SplineFontDB: 3.2
FontName: IMFELL-Italic
FullName: IM FELL Extended
FamilyName: IM FELL Extended
Weight: Italic
Copyright: (c) 2007 Igino Marini (www.iginomarini.com) With Reserved Font Name IM FELL English Italic
Version: 3.00
ItalicAngle: -18
UnderlinePosition: -200
UnderlineWidth: 84
Ascent: 1638
Descent: 410
InvalidEm: 0
sfntRevision: 0x00030000
LayerCount: 2
Layer: 0 1 "Back" 1
Layer: 1 1 "Fore" 0
XUID: [1021 796 -163880829 9257623]
StyleMap: 0x0001
FSType: 0
OS2Version: 2
OS2_WeightWidthSlopeOnly: 0
OS2_UseTypoMetrics: 0
CreationTime: 1150054206
ModificationTime: 1749727677
PfmFamily: 17
TTFWeight: 400
TTFWidth: 5
LineGap: 0
VLineGap: 0
Panose: 2 0 0 0 0 0 0 0 0 0
OS2TypoAscent: 1519
OS2TypoAOffset: 0
OS2TypoDescent: -637
OS2TypoDOffset: 0
OS2TypoLinegap: 442
OS2WinAscent: 1854
OS2WinAOffset: 0
OS2WinDescent: 744
OS2WinDOffset: 0
HheadAscent: 1854
HheadAOffset: 0
HheadDescent: -744
HheadDOffset: 0
OS2SubXSize: 1365
OS2SubYSize: 1365
OS2SubXOff: 0
OS2SubYOff: 260
OS2SupXSize: 1365
OS2SupYSize: 1365
OS2SupXOff: 0
OS2SupYOff: 960
OS2StrikeYSize: 100
OS2StrikeYPos: 512
OS2CapHeight: 1431
OS2XHeight: 912
OS2FamilyClass: 258
OS2Vendor: 'imar'
OS2CodePages: 00000093.00000000
OS2UnicodeRanges: a00000ef.5000405a.00000000.00000000
Lookup: 1 0 0 "'aalt' Access All Alternates in Latin lookup 0" { "'aalt' Access All Alternates in Latin lookup 0 subtable"  } ['aalt' ('latn' <'MOL ' 'ROM ' 'TRK ' 'dflt' > ) ]
Lookup: 1 0 0 "'ss04' Style Set 4 in Latin lookup 1" { "'ss04' Style Set 4 in Latin lookup 1 subtable"  } ['locl' ('latn' <'TRK ' > ) 'ss04' ('latn' <'MOL ' 'ROM ' 'TRK ' 'dflt' > ) ]
Lookup: 1 0 0 "'ss03' Style Set 3 in Latin lookup 2" { "'ss03' Style Set 3 in Latin lookup 2 subtable"  } ['locl' ('latn' <'MOL ' 'ROM ' > ) 'salt' ('latn' <'MOL ' 'ROM ' 'TRK ' 'dflt' > ) 'ss03' ('latn' <'MOL ' 'ROM ' 'TRK ' 'dflt' > ) ]

StartChar: .notdef
Encoding: 65536 -1 0
Width: 1350
GlyphClass: 1
Flags: W
LayerCount: 2
Fore
SplineSet
938 28 m 1,0,-1
 1316 1263 l 1,1,-1
 504 1263 l 1,2,-1
 127 28 l 1,3,-1
 938 28 l 1,0,-1
487 1291 m 1,4,-1
 1352 1291 l 1,5,-1
 957 0 l 1,6,-1
 92 0 l 1,7,-1
 487 1291 l 1,4,-1
EndSplineSet
EndChar

StartChar: exclam
Encoding: 33 33 4
Width: 579
GlyphClass: 1
Flags: W
LayerCount: 2
Fore
SplineSet
109 107 m 2,0,-1
 109 142 l 2,1,2
 109 143 109 143 111 148 c 128,-1,3
 113 153 113 153 115.5 159.5 c 128,-1,4
 118 166 118 166 121 172.5 c 128,-1,5
 124 179 124 179 126 182 c 0,6,7
 127 184 127 184 131 189.5 c 128,-1,8
 135 195 135 195 140 201.5 c 128,-1,9
 145 208 145 208 149 213.5 c 128,-1,10
 153 219 153 219 154 221 c 0,11,12
 154 222 154 222 155.5 227 c 128,-1,13
 157 232 157 232 160 238 c 128,-1,14
 163 244 163 244 167.5 249 c 128,-1,15
 172 254 172 254 177 254 c 0,16,17
 247 254 247 254 294.5 225.5 c 128,-1,18
 342 197 342 197 367 125 c 1,19,-1
 367 118 l 2,20,21
 367 95 367 95 362.5 80 c 128,-1,22
 358 65 358 65 349 52.5 c 128,-1,23
 340 40 340 40 326 28.5 c 128,-1,24
 312 17 312 17 294 2 c 0,25,26
 291 1 291 1 283 -0.5 c 128,-1,27
 275 -2 275 -2 266 -4 c 128,-1,28
 257 -6 257 -6 248.5 -8 c 128,-1,29
 240 -10 240 -10 237 -10 c 2,30,-1
 230 -10 l 2,31,32
 218 -10 218 -10 201.5 -5.5 c 128,-1,33
 185 -1 185 -1 168 7 c 128,-1,34
 151 15 151 15 136.5 25 c 128,-1,35
 122 35 122 35 114 47 c 0,36,37
 110 53 110 53 108.5 61.5 c 128,-1,38
 107 70 107 70 107 78 c 256,39,40
 107 86 107 86 108 93.5 c 128,-1,41
 109 101 109 101 109 107 c 2,0,-1
204 429 m 0,42,43
 204 454 204 454 217 477 c 128,-1,44
 230 500 230 500 237 526 c 0,45,46
 242 543 242 543 244.5 557 c 128,-1,47
 247 571 247 571 247.5 585 c 128,-1,48
 248 599 248 599 248.5 614 c 128,-1,49
 249 629 249 629 251 647 c 0,50,51
 252 660 252 660 256 673.5 c 128,-1,52
 260 687 260 687 264.5 700.5 c 128,-1,53
 269 714 269 714 273 728 c 128,-1,54
 277 742 277 742 277 756 c 0,55,56
 277 769 277 769 273.5 781 c 128,-1,57
 270 793 270 793 270 806 c 0,58,59
 270 843 270 843 278.5 877 c 128,-1,60
 287 911 287 911 291 946 c 1,61,-1
 291 995 l 2,62,63
 291 1020 291 1020 292.5 1044 c 128,-1,64
 294 1068 294 1068 301 1093 c 0,65,66
 302 1095 302 1095 305 1101 c 128,-1,67
 308 1107 308 1107 311.5 1113.5 c 128,-1,68
 315 1120 315 1120 318.5 1125.5 c 128,-1,69
 322 1131 322 1131 324 1133 c 2,70,-1
 324 1173 l 2,71,72
 324 1177 324 1177 329.5 1191.5 c 128,-1,73
 335 1206 335 1206 342 1222 c 128,-1,74
 349 1238 349 1238 356.5 1251.5 c 128,-1,75
 364 1265 364 1265 367 1268 c 0,76,77
 369 1271 369 1271 379.5 1276 c 128,-1,78
 390 1281 390 1281 393 1284 c 2,79,-1
 398 1289 l 2,80,81
 402 1290 402 1290 413.5 1290.5 c 128,-1,82
 425 1291 425 1291 437.5 1292 c 128,-1,83
 450 1293 450 1293 461 1293.5 c 128,-1,84
 472 1294 472 1294 476 1294 c 2,85,-1
 488 1294 l 2,86,87
 502 1294 502 1294 517 1282 c 128,-1,88
 532 1270 532 1270 542 1261 c 0,89,90
 565 1241 565 1241 569 1219.5 c 128,-1,91
 573 1198 573 1198 573 1166 c 0,92,93
 573 1155 573 1155 571 1126 c 128,-1,94
 569 1097 569 1097 564 1065 c 128,-1,95
 559 1033 559 1033 551 1006 c 128,-1,96
 543 979 543 979 531 972 c 1,97,-1
 531 874 l 2,98,99
 528 872 528 872 525 869 c 0,100,101
 520 864 520 864 516 862 c 0,102,103
 493 844 493 844 480.5 814.5 c 128,-1,104
 468 785 468 785 462 751 c 128,-1,105
 456 717 456 717 454.5 683 c 128,-1,106
 453 649 453 649 452 623 c 1,107,108
 431 603 431 603 424.5 571.5 c 128,-1,109
 418 540 418 540 413 504 c 128,-1,110
 408 468 408 468 398.5 431 c 128,-1,111
 389 394 389 394 362 363 c 0,112,113
 354 355 354 355 347 345.5 c 128,-1,114
 340 336 340 336 332 328.5 c 128,-1,115
 324 321 324 321 314.5 316 c 128,-1,116
 305 311 305 311 292 311 c 2,117,-1
 284 311 l 1,118,119
 246 332 246 332 225 358 c 128,-1,120
 204 384 204 384 204 429 c 0,42,43
EndSplineSet
EndChar

StartChar: quotedbl
Encoding: 34 34 5
Width: 1009
GlyphClass: 1
Flags: W
LayerCount: 2
Fore
SplineSet
238 1021 m 2,0,1
 240 1023 240 1023 244.5 1028 c 128,-1,2
 249 1033 249 1033 250 1035 c 0,3,4
 298 1051 298 1051 342.5 1061.5 c 128,-1,5
 387 1072 387 1072 421.5 1089 c 128,-1,6
 456 1106 456 1106 477 1137 c 128,-1,7
 498 1168 498 1168 498 1225 c 0,8,9
 498 1250 498 1250 481.5 1266 c 128,-1,10
 465 1282 465 1282 445 1297 c 128,-1,11
 425 1312 425 1312 408.5 1328.5 c 128,-1,12
 392 1345 392 1345 392 1370 c 0,13,14
 392 1398 392 1398 401.5 1412.5 c 128,-1,15
 411 1427 411 1427 426 1435 c 128,-1,16
 441 1443 441 1443 460 1447.5 c 128,-1,17
 479 1452 479 1452 498 1460 c 1,18,-1
 555 1460 l 2,19,20
 647 1460 647 1460 685.5 1417 c 128,-1,21
 724 1374 724 1374 724 1278 c 0,22,23
 724 1236 724 1236 720 1196 c 128,-1,24
 716 1156 716 1156 695 1119 c 0,25,26
 681 1095 681 1095 655 1065.5 c 128,-1,27
 629 1036 629 1036 597.5 1010.5 c 128,-1,28
 566 985 566 985 533 967.5 c 128,-1,29
 500 950 500 950 474 950 c 2,30,-1
 351 950 l 1,31,32
 340 954 340 954 335 954.5 c 128,-1,33
 330 955 330 955 320 955 c 2,34,-1
 283 950 l 2,35,36
 276 950 276 950 268.5 957 c 128,-1,37
 261 964 261 964 255 974.5 c 128,-1,38
 249 985 249 985 244.5 997 c 128,-1,39
 240 1009 240 1009 238 1019 c 2,40,-1
 238 1021 l 2,0,1
693 1024 m 2,41,42
 695 1028 695 1028 699.5 1034 c 128,-1,43
 704 1040 704 1040 705 1041 c 0,44,45
 753 1056 753 1056 797.5 1066 c 128,-1,46
 842 1076 842 1076 876.5 1093.5 c 128,-1,47
 911 1111 911 1111 932 1142.5 c 128,-1,48
 953 1174 953 1174 953 1232 c 0,49,50
 953 1256 953 1256 936.5 1272.5 c 128,-1,51
 920 1289 920 1289 900 1304 c 128,-1,52
 880 1319 880 1319 863.5 1336 c 128,-1,53
 847 1353 847 1353 847 1379 c 0,54,55
 847 1407 847 1407 856.5 1420.5 c 128,-1,56
 866 1434 866 1434 881 1441 c 128,-1,57
 896 1448 896 1448 915 1452 c 128,-1,58
 934 1456 934 1456 953 1465 c 1,59,-1
 1010 1465 l 2,60,61
 1102 1465 1102 1465 1141.5 1423 c 128,-1,62
 1181 1381 1181 1381 1181 1284 c 0,63,64
 1181 1243 1181 1243 1176 1202.5 c 128,-1,65
 1171 1162 1171 1162 1150 1123 c 0,66,67
 1138 1099 1138 1099 1111.5 1070 c 128,-1,68
 1085 1041 1085 1041 1053.5 1015.5 c 128,-1,69
 1022 990 1022 990 988.5 972.5 c 128,-1,70
 955 955 955 955 929 955 c 2,71,-1
 806 955 l 1,72,73
 795 960 795 960 789.5 961 c 128,-1,74
 784 962 784 962 775 962 c 2,75,-1
 738 955 l 2,76,77
 732 955 732 955 725 961.5 c 128,-1,78
 718 968 718 968 712 977.5 c 128,-1,79
 706 987 706 987 701 999 c 128,-1,80
 696 1011 696 1011 693 1022 c 2,81,-1
 693 1024 l 2,41,42
EndSplineSet
EndChar

StartChar: numbersign
Encoding: 35 35 6
Width: 1636
GlyphClass: 1
Flags: W
LayerCount: 2
Fore
SplineSet
796 163 m 0,0,1
 796 179 796 179 802 192.5 c 128,-1,2
 808 206 808 206 815.5 218.5 c 128,-1,3
 823 231 823 231 829.5 244.5 c 128,-1,4
 836 258 836 258 838 273 c 0,5,6
 839 289 839 289 840.5 298 c 128,-1,7
 842 307 842 307 844 313 c 128,-1,8
 846 319 846 319 848.5 323.5 c 128,-1,9
 851 328 851 328 853 334 c 0,10,11
 856 338 856 338 859.5 344.5 c 128,-1,12
 863 351 863 351 866 362 c 0,13,14
 868 371 868 371 869 376.5 c 128,-1,15
 870 382 870 382 872 387 c 128,-1,16
 874 392 874 392 878.5 398.5 c 128,-1,17
 883 405 883 405 893 417 c 1,18,19
 892 424 892 424 892 429 c 128,-1,20
 892 434 892 434 892 439 c 0,21,22
 892 446 892 446 892 453 c 128,-1,23
 892 460 892 460 893 471 c 0,24,25
 893 475 893 475 896.5 480 c 128,-1,26
 900 485 900 485 900 490 c 1,27,-1
 898 490 l 2,28,29
 897 490 897 490 895.5 490.5 c 128,-1,30
 894 491 894 491 892 491 c 0,31,32
 877 491 877 491 844 487.5 c 128,-1,33
 811 484 811 484 762 477 c 1,34,-1
 667 490 l 2,35,36
 642 490 642 490 642 481 c 1,37,-1
 578 481 l 1,38,39
 578 463 578 463 565 455 c 0,40,41
 560 453 560 453 555.5 447 c 128,-1,42
 551 441 551 441 546 441 c 1,43,44
 546 433 546 433 546.5 427.5 c 128,-1,45
 547 422 547 422 547 417 c 0,46,47
 547 396 547 396 543.5 387 c 128,-1,48
 540 378 540 378 533 374 c 1,49,50
 533 342 533 342 532 319.5 c 128,-1,51
 531 297 531 297 526 285 c 0,52,53
 525 281 525 281 514 273 c 128,-1,54
 503 265 503 265 499 263 c 0,55,56
 491 250 491 250 489.5 240.5 c 128,-1,57
 488 231 488 231 488 218 c 0,58,59
 488 204 488 204 487 201 c 0,60,61
 484 187 484 187 479.5 181.5 c 128,-1,62
 475 176 475 176 471 172 c 128,-1,63
 467 168 467 168 463.5 163 c 128,-1,64
 460 158 460 158 457 145 c 1,65,-1
 404 125 l 2,66,67
 398 125 398 125 389 135 c 128,-1,68
 380 145 380 145 371 157 c 128,-1,69
 362 169 362 169 356 179.5 c 128,-1,70
 350 190 350 190 350 192 c 0,71,72
 350 208 350 208 354 220.5 c 128,-1,73
 358 233 358 233 363.5 245 c 128,-1,74
 369 257 369 257 374.5 269 c 128,-1,75
 380 281 380 281 383 296 c 0,76,77
 385 300 385 300 386 311 c 128,-1,78
 387 322 387 322 392 327 c 1,79,80
 393 341 393 341 400.5 353.5 c 128,-1,81
 408 366 408 366 412 384 c 0,82,83
 412 386 412 386 412.5 392.5 c 128,-1,84
 413 399 413 399 414 406.5 c 128,-1,85
 415 414 415 414 416 420.5 c 128,-1,86
 417 427 417 427 417 429 c 0,87,88
 419 433 419 433 431 444 c 128,-1,89
 443 455 443 455 445 462 c 0,90,91
 445 466 445 466 444.5 472.5 c 128,-1,92
 444 479 444 479 440 479 c 0,93,94
 423 470 423 470 408 466 c 128,-1,95
 393 462 393 462 392 462 c 0,96,97
 387 464 387 464 383.5 464 c 128,-1,98
 380 464 380 464 376 464 c 0,99,100
 365 464 365 464 356.5 461.5 c 128,-1,101
 348 459 348 459 340 456 c 128,-1,102
 332 453 332 453 323.5 450.5 c 128,-1,103
 315 448 315 448 305 448 c 2,104,-1
 239 457 l 1,105,106
 219 453 219 453 212.5 451.5 c 128,-1,107
 206 450 206 450 201 450 c 0,108,109
 188 450 188 450 171.5 452 c 128,-1,110
 155 454 155 454 140 459.5 c 128,-1,111
 125 465 125 465 114.5 475 c 128,-1,112
 104 485 104 485 104 502 c 0,113,114
 104 510 104 510 109 522 c 128,-1,115
 114 534 114 534 121.5 545.5 c 128,-1,116
 129 557 129 557 137.5 566.5 c 128,-1,117
 146 576 146 576 153 580 c 0,118,119
 202 587 202 587 234.5 589.5 c 128,-1,120
 267 592 267 592 296 592 c 0,121,122
 319 592 319 592 340.5 592 c 128,-1,123
 362 592 362 592 385 590 c 1,124,125
 409 583 409 583 417.5 581.5 c 128,-1,126
 426 580 426 580 428 580 c 0,127,128
 473 593 473 593 492 615 c 128,-1,129
 511 637 511 637 518.5 665.5 c 128,-1,130
 526 694 526 694 530.5 727 c 128,-1,131
 535 760 535 760 552 796 c 0,132,133
 555 804 555 804 560.5 807.5 c 128,-1,134
 566 811 566 811 570.5 814.5 c 128,-1,135
 575 818 575 818 578.5 822.5 c 128,-1,136
 582 827 582 827 582 837 c 0,137,138
 581 838 581 838 581 840 c 0,139,140
 580 842 580 842 580 844 c 1,141,142
 573 844 573 844 569.5 844.5 c 128,-1,143
 566 845 566 845 562.5 846.5 c 128,-1,144
 559 848 559 848 554 849.5 c 128,-1,145
 549 851 549 851 540 853 c 0,146,147
 534 851 534 851 529 850 c 128,-1,148
 524 849 524 849 516 849 c 2,149,-1
 478 856 l 2,150,151
 469 856 469 856 460 852 c 128,-1,152
 451 848 451 848 442 842.5 c 128,-1,153
 433 837 433 837 423.5 833 c 128,-1,154
 414 829 414 829 404 829 c 2,155,-1
 341 844 l 1,156,157
 321 839 321 839 314.5 836.5 c 128,-1,158
 308 834 308 834 303 834 c 0,159,160
 290 834 290 834 273.5 836.5 c 128,-1,161
 257 839 257 839 242.5 845 c 128,-1,162
 228 851 228 851 218 861.5 c 128,-1,163
 208 872 208 872 208 889 c 0,164,165
 208 897 208 897 212.5 908.5 c 128,-1,166
 217 920 217 920 223.5 932 c 128,-1,167
 230 944 230 944 238.5 953.5 c 128,-1,168
 247 963 247 963 255 967 c 1,169,-1
 283 967 l 1,170,-1
 487 977 l 1,171,-1
 526 965 l 1,172,173
 541 965 541 965 556 972.5 c 128,-1,174
 571 980 571 980 589 984 c 0,175,176
 594 984 594 984 604 980.5 c 128,-1,177
 614 977 614 977 616 977 c 0,178,179
 617 978 617 978 619 979 c 0,180,181
 622 982 622 982 622 984 c 0,182,183
 645 1022 645 1022 662.5 1070 c 128,-1,184
 680 1118 680 1118 689 1163 c 1,185,-1
 689 1189 l 2,186,187
 689 1193 689 1193 694 1199.5 c 128,-1,188
 699 1206 699 1206 701 1211 c 0,189,190
 710 1219 710 1219 713.5 1226 c 128,-1,191
 717 1233 717 1233 717 1244 c 0,192,193
 717 1266 717 1266 725 1285.5 c 128,-1,194
 733 1305 733 1305 746 1322 c 128,-1,195
 759 1339 759 1339 776 1353.5 c 128,-1,196
 793 1368 793 1368 812 1379 c 1,197,198
 826 1379 826 1379 835.5 1370 c 128,-1,199
 845 1361 845 1361 850.5 1348.5 c 128,-1,200
 856 1336 856 1336 858 1324 c 128,-1,201
 860 1312 860 1312 860 1306 c 0,202,203
 860 1293 860 1293 851.5 1287.5 c 128,-1,204
 843 1282 843 1282 843 1275 c 0,205,206
 847 1267 847 1267 849.5 1253.5 c 128,-1,207
 852 1240 852 1240 853 1235 c 0,208,209
 853 1225 853 1225 850 1219 c 128,-1,210
 847 1213 847 1213 842.5 1208 c 128,-1,211
 838 1203 838 1203 833 1199 c 128,-1,212
 828 1195 828 1195 824 1189 c 0,213,214
 823 1186 823 1186 820 1176 c 128,-1,215
 817 1166 817 1166 813.5 1153.5 c 128,-1,216
 810 1141 810 1141 807.5 1129 c 128,-1,217
 805 1117 805 1117 805 1112 c 0,218,219
 805 1087 805 1087 799.5 1070.5 c 128,-1,220
 794 1054 794 1054 786 1040.5 c 128,-1,221
 778 1027 778 1027 770 1014.5 c 128,-1,222
 762 1002 762 1002 758 984 c 1,223,-1
 893 977 l 1,224,-1
 968 977 l 2,225,226
 985 977 985 977 1003.5 977.5 c 128,-1,227
 1022 978 1022 978 1039.5 980.5 c 128,-1,228
 1057 983 1057 983 1072 987.5 c 128,-1,229
 1087 992 1087 992 1097 1000 c 0,230,231
 1097 1001 1097 1001 1103.5 1018.5 c 128,-1,232
 1110 1036 1110 1036 1117.5 1058 c 128,-1,233
 1125 1080 1125 1080 1131.5 1099.5 c 128,-1,234
 1138 1119 1138 1119 1137 1123 c 2,235,-1
 1137 1154 l 2,236,237
 1139 1160 1139 1160 1144.5 1165 c 128,-1,238
 1150 1170 1150 1170 1156 1175 c 128,-1,239
 1162 1180 1162 1180 1167 1186 c 128,-1,240
 1172 1192 1172 1192 1172 1199 c 0,241,242
 1172 1223 1172 1223 1177.5 1243.5 c 128,-1,243
 1183 1264 1183 1264 1191.5 1282 c 128,-1,244
 1200 1300 1200 1300 1209.5 1316.5 c 128,-1,245
 1219 1333 1219 1333 1227 1349 c 1,246,247
 1234 1351 1234 1351 1240 1352 c 128,-1,248
 1246 1353 1246 1353 1251 1353 c 0,249,250
 1265 1353 1265 1353 1274.5 1350 c 128,-1,251
 1284 1347 1284 1347 1284 1344 c 0,252,253
 1292 1327 1292 1327 1301 1316.5 c 128,-1,254
 1310 1306 1310 1306 1315 1301 c 0,255,256
 1315 1296 1315 1296 1312 1287 c 128,-1,257
 1309 1278 1309 1278 1305 1269 c 128,-1,258
 1301 1260 1301 1260 1298 1252.5 c 128,-1,259
 1295 1245 1295 1245 1295 1244 c 0,260,261
 1296 1232 1296 1232 1296 1224 c 128,-1,262
 1296 1216 1296 1216 1296 1211 c 0,263,264
 1296 1200 1296 1200 1294.5 1195 c 128,-1,265
 1293 1190 1293 1190 1290.5 1186 c 128,-1,266
 1288 1182 1288 1182 1284 1178 c 128,-1,267
 1280 1174 1280 1174 1274 1166 c 0,268,269
 1269 1160 1269 1160 1267.5 1154 c 128,-1,270
 1266 1148 1266 1148 1264.5 1140.5 c 128,-1,271
 1263 1133 1263 1133 1260.5 1123.5 c 128,-1,272
 1258 1114 1258 1114 1251 1100 c 1,273,-1
 1258 1067 l 2,274,275
 1258 1059 1258 1059 1256.5 1049 c 128,-1,276
 1255 1039 1255 1039 1252 1029 c 128,-1,277
 1249 1019 1249 1019 1244 1011 c 128,-1,278
 1239 1003 1239 1003 1232 1000 c 1,279,-1
 1300 1005 l 2,280,281
 1311 1005 1311 1005 1319 997.5 c 128,-1,282
 1327 990 1327 990 1341 990 c 0,283,284
 1352 990 1352 990 1364.5 997.5 c 128,-1,285
 1377 1005 1377 1005 1393 1005 c 2,286,-1
 1495 1000 l 1,287,-1
 1571 1005 l 2,288,289
 1590 1005 1590 1005 1598.5 988.5 c 128,-1,290
 1607 972 1607 972 1611 957 c 1,291,292
 1585 925 1585 925 1552.5 907 c 128,-1,293
 1520 889 1520 889 1480 889 c 0,294,295
 1468 889 1468 889 1465 889 c 128,-1,296
 1462 889 1462 889 1462 891 c 1,297,298
 1442 888 1442 888 1424 883.5 c 128,-1,299
 1406 879 1406 879 1402 877 c 256,300,301
 1398 875 1398 875 1390.5 871.5 c 128,-1,302
 1383 868 1383 868 1372 868 c 256,303,304
 1361 868 1361 868 1352 877 c 1,305,306
 1336 875 1336 875 1330.5 875 c 128,-1,307
 1325 875 1325 875 1321 875 c 0,308,309
 1295 875 1295 875 1285.5 875 c 128,-1,310
 1276 875 1276 875 1274 877 c 0,311,312
 1253 866 1253 866 1241 861 c 128,-1,313
 1229 856 1229 856 1213 856 c 1,314,315
 1195 861 1195 861 1187 861.5 c 128,-1,316
 1179 862 1179 862 1175 862 c 0,317,318
 1158 846 1158 846 1149.5 830 c 128,-1,319
 1141 814 1141 814 1136.5 797 c 128,-1,320
 1132 780 1132 780 1130.5 762 c 128,-1,321
 1129 744 1129 744 1125 723 c 0,322,323
 1121 713 1121 713 1111.5 699 c 128,-1,324
 1102 685 1102 685 1092.5 671 c 128,-1,325
 1083 657 1083 657 1075.5 645.5 c 128,-1,326
 1068 634 1068 634 1068 630 c 0,327,328
 1070 623 1070 623 1072.5 616 c 128,-1,329
 1075 609 1075 609 1077 607 c 0,330,331
 1087 610 1087 610 1103 612.5 c 128,-1,332
 1119 615 1119 615 1136.5 616.5 c 128,-1,333
 1154 618 1154 618 1170.5 618.5 c 128,-1,334
 1187 619 1187 619 1199 619 c 2,335,-1
 1238 607 l 2,336,337
 1249 607 1249 607 1262 613 c 128,-1,338
 1275 619 1275 619 1291 619 c 2,339,-1
 1393 612 l 1,340,-1
 1469 619 l 2,341,342
 1488 619 1488 619 1497.5 603 c 128,-1,343
 1507 587 1507 587 1511 573 c 1,344,345
 1461 502 1461 502 1378 502 c 0,346,347
 1373 502 1373 502 1366.5 504.5 c 128,-1,348
 1360 507 1360 507 1359 507 c 0,349,350
 1357 507 1357 507 1346 502 c 128,-1,351
 1335 497 1335 497 1331 497 c 0,352,353
 1323 497 1323 497 1314.5 494.5 c 128,-1,354
 1306 492 1306 492 1298 490 c 0,355,356
 1284 484 1284 484 1274 484 c 0,357,358
 1265 485 1265 485 1258 487 c 0,359,360
 1252 488 1252 488 1246 489 c 128,-1,361
 1240 490 1240 490 1238 490 c 0,362,363
 1233 488 1233 488 1228 488 c 128,-1,364
 1223 488 1223 488 1218 488 c 0,365,366
 1187 488 1187 488 1180 488 c 128,-1,367
 1173 488 1173 488 1172 490 c 1,368,369
 1154 474 1154 474 1140.5 471.5 c 128,-1,370
 1127 469 1127 469 1113 469 c 2,371,-1
 1035 484 l 1,372,373
 1028 479 1028 479 1027 469 c 128,-1,374
 1026 459 1026 459 1026 450 c 2,375,-1
 994 374 l 2,376,377
 992 370 992 370 990 362 c 128,-1,378
 988 354 988 354 987 346 c 128,-1,379
 986 338 986 338 985.5 330.5 c 128,-1,380
 985 323 985 323 985 320 c 0,381,382
 985 300 985 300 982 288 c 128,-1,383
 979 276 979 276 973 266 c 128,-1,384
 967 256 967 256 958.5 245.5 c 128,-1,385
 950 235 950 235 938 218 c 0,386,387
 933 206 933 206 933 202 c 0,388,389
 933 191 933 191 934 186 c 128,-1,390
 935 181 935 181 935 176 c 0,391,392
 935 172 935 172 934 169 c 128,-1,393
 933 166 933 166 933 164 c 0,394,395
 931 160 931 160 923.5 151 c 128,-1,396
 916 142 916 142 912 140 c 0,397,398
 911 135 911 135 908 126 c 128,-1,399
 905 117 905 117 905 112 c 1,400,401
 892 104 892 104 879.5 100.5 c 128,-1,402
 867 97 867 97 852 97 c 0,403,404
 846 97 846 97 836.5 105.5 c 128,-1,405
 827 114 827 114 818 125 c 128,-1,406
 809 136 809 136 802.5 147 c 128,-1,407
 796 158 796 158 796 163 c 0,0,1
770 877 m 1,408,409
 742 877 742 877 726 872.5 c 128,-1,410
 710 868 710 868 701 857.5 c 128,-1,411
 692 847 692 847 689 830.5 c 128,-1,412
 686 814 686 814 684 789 c 0,413,414
 682 763 682 763 671.5 749 c 128,-1,415
 661 735 661 735 661 734 c 256,416,417
 661 733 661 733 660 728 c 128,-1,418
 659 723 659 723 658 717 c 128,-1,419
 657 711 657 711 656.5 706 c 128,-1,420
 656 701 656 701 656 701 c 1,421,422
 648 688 648 688 641 682 c 128,-1,423
 634 676 634 676 628.5 672.5 c 128,-1,424
 623 669 623 669 619.5 664 c 128,-1,425
 616 659 616 659 616 647 c 0,426,427
 613 644 613 644 613 619 c 2,428,-1
 613 590 l 1,429,-1
 783 600 l 2,430,431
 789 600 789 600 808 598.5 c 128,-1,432
 827 597 827 597 874 590 c 0,433,434
 897 590 897 590 918.5 591 c 128,-1,435
 940 592 940 592 956 600 c 0,436,437
 958 600 958 600 964 621 c 128,-1,438
 970 642 970 642 977.5 669 c 128,-1,439
 985 696 985 696 992 721.5 c 128,-1,440
 999 747 999 747 1002 756 c 0,441,442
 1005 762 1005 762 1007 763.5 c 128,-1,443
 1009 765 1009 765 1011.5 765.5 c 128,-1,444
 1014 766 1014 766 1017 767 c 128,-1,445
 1020 768 1020 768 1023 773 c 0,446,447
 1040 808 1040 808 1040 860 c 1,448,449
 1025 877 1025 877 1013.5 881.5 c 128,-1,450
 1002 886 1002 886 988 886 c 2,451,-1
 864 862 l 1,452,-1
 770 877 l 1,408,409
EndSplineSet
EndChar

StartChar: dollar
Encoding: 36 36 7
Width: 1143
GlyphClass: 1
Flags: W
LayerCount: 2
Fore
SplineSet
304 -69 m 0,0,1
 303 -50 303 -50 306 -36 c 128,-1,2
 309 -22 309 -22 313.5 -10 c 128,-1,3
 318 2 318 2 324 14 c 128,-1,4
 330 26 330 26 335 42 c 2,5,-1
 336 45 l 1,6,7
 310 56 310 56 283 65 c 128,-1,8
 256 74 256 74 230 85 c 0,9,10
 228 89 228 89 224.5 91 c 128,-1,11
 221 93 221 93 220 93 c 0,12,13
 212 97 212 97 194.5 108.5 c 128,-1,14
 177 120 177 120 157.5 132.5 c 128,-1,15
 138 145 138 145 121.5 156 c 128,-1,16
 105 167 105 167 100 171 c 0,17,18
 91 178 91 178 86 191.5 c 128,-1,19
 81 205 81 205 81 218 c 0,20,21
 81 228 81 228 84.5 240.5 c 128,-1,22
 88 253 88 253 92.5 266.5 c 128,-1,23
 97 280 97 280 101.5 293 c 128,-1,24
 106 306 106 306 107 318 c 0,25,26
 107 328 107 328 109 349 c 128,-1,27
 111 370 111 370 114 395.5 c 128,-1,28
 117 421 117 421 121.5 447.5 c 128,-1,29
 126 474 126 474 132.5 495.5 c 128,-1,30
 139 517 139 517 148 531 c 128,-1,31
 157 545 157 545 168 545 c 0,32,33
 183 545 183 545 194.5 533 c 128,-1,34
 206 521 206 521 214 504.5 c 128,-1,35
 222 488 222 488 226 470.5 c 128,-1,36
 230 453 230 453 230 443 c 0,37,38
 230 423 230 423 227.5 403 c 128,-1,39
 225 383 225 383 225 349 c 1,40,41
 229 323 229 323 240 290.5 c 128,-1,42
 251 258 251 258 268 225.5 c 128,-1,43
 285 193 285 193 306.5 164 c 128,-1,44
 328 135 328 135 354 116 c 1,45,-1
 357 125 l 1,46,-1
 370 178 l 2,47,48
 368 180 368 180 371 183 c 128,-1,49
 374 186 374 186 379 190 c 128,-1,50
 384 194 384 194 389 197 c 128,-1,51
 394 200 394 200 396 202 c 2,52,-1
 392 251 l 2,53,54
 393 264 393 264 398.5 274 c 128,-1,55
 404 284 404 284 411 293 c 128,-1,56
 418 302 418 302 424.5 311 c 128,-1,57
 431 320 431 320 433 330 c 0,58,59
 436 335 436 335 441 346 c 128,-1,60
 446 357 446 357 450 369 c 128,-1,61
 454 381 454 381 457 391.5 c 128,-1,62
 460 402 460 402 460 407 c 0,63,64
 461 410 461 410 466 433.5 c 128,-1,65
 471 457 471 457 479 483.5 c 128,-1,66
 487 510 487 510 497 532 c 128,-1,67
 507 554 507 554 518 554 c 1,68,69
 529 573 529 573 536.5 595 c 128,-1,70
 544 617 544 617 549.5 640.5 c 128,-1,71
 555 664 555 664 559.5 688 c 128,-1,72
 564 712 564 712 569 733 c 2,73,-1
 578 754 l 1,74,75
 552 791 552 791 522.5 826.5 c 128,-1,76
 493 862 493 862 469 901 c 0,77,78
 460 919 460 919 451 946 c 128,-1,79
 442 973 442 973 435.5 1002 c 128,-1,80
 429 1031 429 1031 424.5 1058.5 c 128,-1,81
 420 1086 420 1086 420 1105 c 0,82,83
 420 1127 420 1127 422 1142.5 c 128,-1,84
 424 1158 424 1158 428.5 1171 c 128,-1,85
 433 1184 433 1184 440 1197 c 128,-1,86
 447 1210 447 1210 458 1227 c 0,87,88
 468 1243 468 1243 473.5 1258 c 128,-1,89
 479 1273 479 1273 483.5 1288 c 128,-1,90
 488 1303 488 1303 492.5 1318.5 c 128,-1,91
 497 1334 497 1334 505 1351 c 0,92,93
 512 1364 512 1364 531.5 1379.5 c 128,-1,94
 551 1395 551 1395 573.5 1409 c 128,-1,95
 596 1423 596 1423 615.5 1433 c 128,-1,96
 635 1443 635 1443 642 1446 c 0,97,98
 644 1448 644 1448 650.5 1452 c 128,-1,99
 657 1456 657 1456 665.5 1460 c 128,-1,100
 674 1464 674 1464 681.5 1468 c 128,-1,101
 689 1472 689 1472 692 1474 c 0,102,103
 708 1476 708 1476 723 1476.5 c 128,-1,104
 738 1477 738 1477 754 1477 c 0,105,106
 787 1477 787 1477 823 1471 c 1,107,108
 825 1482 825 1482 827 1492.5 c 128,-1,109
 829 1503 829 1503 830 1511 c 0,110,111
 832 1524 832 1524 834.5 1536 c 128,-1,112
 837 1548 837 1548 842.5 1557 c 128,-1,113
 848 1566 848 1566 858 1571.5 c 128,-1,114
 868 1577 868 1577 885 1577 c 0,115,116
 897 1578 897 1578 915 1575 c 0,117,118
 930 1574 930 1574 950.5 1565 c 128,-1,119
 971 1556 971 1556 985 1541 c 1,120,-1
 989 1483 l 2,121,122
 988 1481 988 1481 981.5 1471 c 128,-1,123
 975 1461 975 1461 973 1459 c 0,124,125
 971 1452 971 1452 971 1445.5 c 128,-1,126
 971 1439 971 1439 971 1432 c 1,127,128
 993 1424 993 1424 1015.5 1416 c 128,-1,129
 1038 1408 1038 1408 1064 1408 c 1,130,-1
 1138 1429 l 2,131,132
 1152 1429 1152 1429 1163.5 1415.5 c 128,-1,133
 1175 1402 1175 1402 1175 1391 c 1,134,135
 1159 1359 1159 1359 1144 1317 c 128,-1,136
 1129 1275 1129 1275 1124 1240 c 0,137,138
 1118 1221 1118 1221 1114.5 1202.5 c 128,-1,139
 1111 1184 1111 1184 1108 1161.5 c 128,-1,140
 1105 1139 1105 1139 1102 1111.5 c 128,-1,141
 1099 1084 1099 1084 1093 1047 c 1,142,143
 1086 1048 1086 1048 1081 1048.5 c 128,-1,144
 1076 1049 1076 1049 1071 1050 c 128,-1,145
 1066 1051 1066 1051 1059.5 1053.5 c 128,-1,146
 1053 1056 1053 1056 1043 1062 c 1,147,148
 1035 1084 1035 1084 1029.5 1113.5 c 128,-1,149
 1024 1143 1024 1143 1018.5 1171 c 128,-1,150
 1013 1199 1013 1199 1006.5 1221.5 c 128,-1,151
 1000 1244 1000 1244 990 1253 c 0,152,153
 987 1253 987 1253 983.5 1257 c 128,-1,154
 980 1261 980 1261 976.5 1266 c 128,-1,155
 973 1271 973 1271 969.5 1275 c 128,-1,156
 966 1279 966 1279 965 1280 c 0,157,158
 965 1282 965 1282 961.5 1288.5 c 128,-1,159
 958 1295 958 1295 954 1302.5 c 128,-1,160
 950 1310 950 1310 945.5 1316 c 128,-1,161
 941 1322 941 1322 939 1323 c 2,162,-1
 931 1331 l 1,163,164
 929 1324 929 1324 929 1316.5 c 128,-1,165
 929 1309 929 1309 931 1292 c 1,166,167
 928 1278 928 1278 920 1264.5 c 128,-1,168
 912 1251 912 1251 902.5 1237.5 c 128,-1,169
 893 1224 893 1224 882.5 1211.5 c 128,-1,170
 872 1199 872 1199 865 1189 c 0,171,172
 847 1162 847 1162 853 1154 c 1,173,-1
 853 1152 l 1,174,-1
 850 1119 l 2,175,176
 846 1090 846 1090 834 1065 c 128,-1,177
 822 1040 822 1040 811 1026 c 1,178,179
 809 1015 809 1015 811.5 1007 c 128,-1,180
 814 999 814 999 813 994 c 0,181,182
 813 976 813 976 811.5 965.5 c 128,-1,183
 810 955 810 955 807 948.5 c 128,-1,184
 804 942 804 942 800 938 c 128,-1,185
 796 934 796 934 792 929 c 0,186,187
 787 921 787 921 781 902.5 c 128,-1,188
 775 884 775 884 773 867 c 1,189,190
 780 860 780 860 788 852 c 128,-1,191
 796 844 796 844 803 836.5 c 128,-1,192
 810 829 810 829 815 823.5 c 128,-1,193
 820 818 820 818 822 815 c 0,194,195
 830 808 830 808 842 798.5 c 128,-1,196
 854 789 854 789 865 777.5 c 128,-1,197
 876 766 876 766 883.5 752.5 c 128,-1,198
 891 739 891 739 891 725 c 1,199,200
 912 706 912 706 924 689 c 128,-1,201
 936 672 936 672 944 654 c 128,-1,202
 952 636 952 636 958 616.5 c 128,-1,203
 964 597 964 597 972 574 c 1,204,-1
 995 535 l 1,205,206
 995 493 995 493 992.5 449 c 128,-1,207
 990 405 990 405 982.5 362.5 c 128,-1,208
 975 320 975 320 960.5 280 c 128,-1,209
 946 240 946 240 922 204 c 0,210,211
 912 189 912 189 898.5 168 c 128,-1,212
 885 147 885 147 869.5 127 c 128,-1,213
 854 107 854 107 837 90 c 128,-1,214
 820 73 820 73 804 66 c 1,215,-1
 758 61 l 2,216,217
 756 60 756 60 750.5 54.5 c 128,-1,218
 745 49 745 49 738 42 c 128,-1,219
 731 35 731 35 725.5 29 c 128,-1,220
 720 23 720 23 720 21 c 0,221,222
 713 14 713 14 699 7 c 128,-1,223
 685 0 685 0 669 -6 c 128,-1,224
 653 -12 653 -12 637.5 -15.5 c 128,-1,225
 622 -19 622 -19 612 -19 c 0,226,227
 580 -19 580 -19 551 -13.5 c 128,-1,228
 522 -8 522 -8 491 -3 c 1,229,230
 485 -10 485 -10 468 -22 c 0,231,232
 461 -28 461 -28 459.5 -35 c 128,-1,233
 458 -42 458 -42 458 -50.5 c 128,-1,234
 458 -59 458 -59 459.5 -68.5 c 128,-1,235
 461 -78 461 -78 460 -87 c 0,236,237
 454 -99 454 -99 448.5 -103 c 128,-1,238
 443 -107 443 -107 439.5 -110 c 128,-1,239
 436 -113 436 -113 433.5 -119 c 128,-1,240
 431 -125 431 -125 430 -141 c 1,241,-1
 363 -149 l 2,242,243
 356 -147 356 -147 345.5 -135 c 128,-1,244
 335 -123 335 -123 325.5 -109 c 128,-1,245
 316 -95 316 -95 309.5 -83 c 128,-1,246
 303 -71 303 -71 304 -69 c 0,0,1
773 367 m 0,247,248
 773 411 773 411 764 441 c 128,-1,249
 755 471 755 471 739.5 496 c 128,-1,250
 724 521 724 521 704 545 c 128,-1,251
 684 569 684 569 663 600 c 1,252,253
 654 589 654 589 652 577 c 128,-1,254
 650 565 650 565 647 555 c 1,255,256
 654 518 654 518 654 505 c 128,-1,257
 654 492 654 492 651 483 c 1,258,259
 642 475 642 475 637.5 466 c 128,-1,260
 633 457 633 457 630.5 448.5 c 128,-1,261
 628 440 628 440 627 434.5 c 128,-1,262
 626 429 626 429 625 428 c 0,263,264
 625 425 625 425 619.5 420.5 c 128,-1,265
 614 416 614 416 607 411.5 c 128,-1,266
 600 407 600 407 593.5 404 c 128,-1,267
 587 401 587 401 585 401 c 0,268,269
 580 393 580 393 579 373.5 c 128,-1,270
 578 354 578 354 577 333 c 128,-1,271
 576 312 576 312 574 292.5 c 128,-1,272
 572 273 572 273 566 265 c 0,273,274
 564 262 564 262 559.5 258 c 128,-1,275
 555 254 555 254 550.5 250 c 128,-1,276
 546 246 546 246 544 242.5 c 128,-1,277
 542 239 542 239 544 237 c 0,278,279
 545 229 545 229 546 225 c 128,-1,280
 547 221 547 221 548 216 c 0,281,282
 551 211 551 211 550 206 c 0,283,284
 551 193 551 193 547.5 183.5 c 128,-1,285
 544 174 544 174 538.5 167 c 128,-1,286
 533 160 533 160 527 156 c 128,-1,287
 521 152 521 152 517 150 c 0,288,289
 515 127 515 127 514.5 114.5 c 128,-1,290
 514 102 514 102 500 98 c 0,291,292
 500 95 500 95 501.5 89 c 128,-1,293
 503 83 503 83 504 75 c 1,294,295
 576 82 576 82 632 116 c 128,-1,296
 688 150 688 150 739 204 c 0,297,298
 752 217 752 217 759 235.5 c 128,-1,299
 766 254 766 254 769 275.5 c 128,-1,300
 772 297 772 297 772.5 320 c 128,-1,301
 773 343 773 343 773 367 c 0,247,248
588 1133 m 0,302,303
 611 1110 611 1110 629 1082.5 c 128,-1,304
 647 1055 647 1055 664 1026 c 1,305,306
 666 1039 666 1039 670 1048.5 c 128,-1,307
 674 1058 674 1058 679.5 1066 c 128,-1,308
 685 1074 685 1074 690.5 1083 c 128,-1,309
 696 1092 696 1092 702 1106 c 0,310,311
 725 1154 725 1154 737.5 1207 c 128,-1,312
 750 1260 750 1260 765 1310 c 0,313,314
 770 1330 770 1330 778.5 1347 c 128,-1,315
 787 1364 787 1364 798 1387 c 0,316,317
 798 1388 798 1388 799 1389 c 1,318,-1
 797 1389 l 2,319,320
 795 1389 795 1389 788 1387.5 c 128,-1,321
 781 1386 781 1386 772 1384 c 128,-1,322
 763 1382 763 1382 755 1380 c 128,-1,323
 747 1378 747 1378 744 1377 c 2,324,-1
 654 1370 l 1,325,326
 633 1364 633 1364 620 1339.5 c 128,-1,327
 607 1315 607 1315 599.5 1286 c 128,-1,328
 592 1257 592 1257 589 1228.5 c 128,-1,329
 586 1200 586 1200 586 1185 c 0,330,331
 586 1183 586 1183 586 1176 c 128,-1,332
 586 1169 586 1169 586 1161 c 128,-1,333
 586 1153 586 1153 586.5 1145 c 128,-1,334
 587 1137 587 1137 588 1133 c 0,302,303
EndSplineSet
EndChar

StartChar: ampersand
Encoding: 38 38 9
Width: 1457
GlyphClass: 1
Flags: W
LayerCount: 2
Fore
SplineSet
194 244 m 2,0,1
 184 263 184 263 173.5 284.5 c 128,-1,2
 163 306 163 306 154.5 329.5 c 128,-1,3
 146 353 146 353 140.5 379 c 128,-1,4
 135 405 135 405 135 434 c 0,5,6
 135 466 135 466 136 499 c 128,-1,7
 137 532 137 532 142.5 564.5 c 128,-1,8
 148 597 148 597 160 627.5 c 128,-1,9
 172 658 172 658 194 685 c 0,10,11
 209 703 209 703 226.5 714 c 128,-1,12
 244 725 244 725 258.5 736.5 c 128,-1,13
 273 748 273 748 283 763 c 128,-1,14
 293 778 293 778 293 804 c 1,15,-1
 263 849 l 2,16,17
 255 863 255 863 247 877 c 128,-1,18
 239 891 239 891 239 908 c 0,19,20
 239 950 239 950 252.5 986 c 128,-1,21
 266 1022 266 1022 291.5 1053 c 128,-1,22
 317 1084 317 1084 354.5 1112.5 c 128,-1,23
 392 1141 392 1141 440 1168 c 0,24,25
 463 1181 463 1181 487 1191 c 128,-1,26
 511 1201 511 1201 545 1201 c 1,27,28
 559 1194 559 1194 588 1182.5 c 128,-1,29
 617 1171 617 1171 645.5 1156 c 128,-1,30
 674 1141 674 1141 695.5 1122.5 c 128,-1,31
 717 1104 717 1104 717 1083 c 0,32,33
 717 1078 717 1078 716 1067 c 128,-1,34
 715 1056 715 1056 713 1044 c 128,-1,35
 711 1032 711 1032 709 1020.5 c 128,-1,36
 707 1009 707 1009 706 1005 c 0,37,38
 702 994 702 994 690.5 979.5 c 128,-1,39
 679 965 679 965 663 965 c 1,40,41
 657 969 657 969 641 978.5 c 128,-1,42
 625 988 625 988 607.5 998.5 c 128,-1,43
 590 1009 590 1009 574.5 1017.5 c 128,-1,44
 559 1026 559 1026 554 1029 c 0,45,46
 537 1038 537 1038 515.5 1044 c 128,-1,47
 494 1050 494 1050 478 1050 c 0,48,49
 459 1050 459 1050 434 1039.5 c 128,-1,50
 409 1029 409 1029 386 1012.5 c 128,-1,51
 363 996 363 996 347 975.5 c 128,-1,52
 331 955 331 955 331 936 c 2,53,-1
 345 855 l 2,54,55
 350 846 350 846 360 838 c 128,-1,56
 370 830 370 830 381 829 c 1,57,58
 392 835 392 835 399.5 839 c 128,-1,59
 407 843 407 843 413.5 845 c 128,-1,60
 420 847 420 847 426.5 847.5 c 128,-1,61
 433 848 433 848 443 848 c 0,62,63
 460 848 460 848 483.5 842 c 128,-1,64
 507 836 507 836 528.5 825 c 128,-1,65
 550 814 550 814 565 798 c 128,-1,66
 580 782 580 782 580 763 c 0,67,68
 580 745 580 745 571.5 722 c 128,-1,69
 563 699 563 699 549 679.5 c 128,-1,70
 535 660 535 660 517.5 646.5 c 128,-1,71
 500 633 500 633 481 633 c 1,72,73
 466 639 466 639 448.5 645 c 128,-1,74
 431 651 431 651 412 656.5 c 128,-1,75
 393 662 393 662 375 665 c 128,-1,76
 357 668 357 668 341 668 c 0,77,78
 333 668 333 668 328.5 667 c 128,-1,79
 324 666 324 666 320 663.5 c 128,-1,80
 316 661 316 661 312 656.5 c 128,-1,81
 308 652 308 652 301 645 c 0,82,83
 272 625 272 625 263.5 597.5 c 128,-1,84
 255 570 255 570 255 538 c 2,85,-1
 258 483 l 1,86,87
 253 478 253 478 252 473.5 c 128,-1,88
 251 469 251 469 251 462 c 0,89,90
 251 450 251 450 255.5 440.5 c 128,-1,91
 260 431 260 431 265.5 422.5 c 128,-1,92
 271 414 271 414 276.5 406 c 128,-1,93
 282 398 282 398 284 388 c 0,94,95
 284 385 284 385 284.5 378 c 128,-1,96
 285 371 285 371 286.5 363.5 c 128,-1,97
 288 356 288 356 289.5 349.5 c 128,-1,98
 291 343 291 343 293 343 c 0,99,100
 295 340 295 340 301.5 332.5 c 128,-1,101
 308 325 308 325 315.5 317 c 128,-1,102
 323 309 323 309 329.5 302.5 c 128,-1,103
 336 296 336 296 338 294 c 2,104,-1
 350 270 l 2,105,106
 350 269 350 269 352 266.5 c 128,-1,107
 354 264 354 264 363 256.5 c 128,-1,108
 372 249 372 249 390.5 235 c 128,-1,109
 409 221 409 221 442 197 c 0,110,111
 466 183 466 183 495.5 172 c 128,-1,112
 525 161 525 161 556 153.5 c 128,-1,113
 587 146 587 146 618.5 141.5 c 128,-1,114
 650 137 650 137 680 137 c 0,115,116
 724 137 724 137 779 147 c 128,-1,117
 834 157 834 157 889.5 173.5 c 128,-1,118
 945 190 945 190 996 211.5 c 128,-1,119
 1047 233 1047 233 1085 256 c 1,120,121
 1091 265 1091 265 1095 272.5 c 128,-1,122
 1099 280 1099 280 1102.5 287.5 c 128,-1,123
 1106 295 1106 295 1110.5 302.5 c 128,-1,124
 1115 310 1115 310 1123 320 c 0,125,126
 1135 331 1135 331 1146.5 338.5 c 128,-1,127
 1158 346 1158 346 1172 363 c 0,128,129
 1173 370 1173 370 1175 382.5 c 128,-1,130
 1177 395 1177 395 1177 398 c 0,131,132
 1178 400 1178 400 1183 405 c 128,-1,133
 1188 410 1188 410 1194 415.5 c 128,-1,134
 1200 421 1200 421 1205.5 425.5 c 128,-1,135
 1211 430 1211 430 1211 431 c 0,136,137
 1221 443 1221 443 1226 460 c 128,-1,138
 1231 477 1231 477 1233.5 496.5 c 128,-1,139
 1236 516 1236 516 1236.5 535.5 c 128,-1,140
 1237 555 1237 555 1237 571 c 2,141,-1
 1237 654 l 2,142,143
 1234 661 1234 661 1231.5 664 c 128,-1,144
 1229 667 1229 667 1225.5 669.5 c 128,-1,145
 1222 672 1222 672 1218.5 675 c 128,-1,146
 1215 678 1215 678 1211 685 c 0,147,148
 1200 702 1200 702 1192 718 c 128,-1,149
 1184 734 1184 734 1176 750 c 128,-1,150
 1168 766 1168 766 1158 781 c 128,-1,151
 1148 796 1148 796 1134 810 c 0,152,153
 1124 816 1124 816 1108 817.5 c 128,-1,154
 1092 819 1092 819 1085 823 c 0,155,156
 1070 829 1070 829 1060 834.5 c 128,-1,157
 1050 840 1050 840 1039.5 844.5 c 128,-1,158
 1029 849 1029 849 1014.5 852 c 128,-1,159
 1000 855 1000 855 976 855 c 0,160,161
 975 855 975 855 969.5 853 c 128,-1,162
 964 851 964 851 957.5 849 c 128,-1,163
 951 847 951 847 945 845 c 128,-1,164
 939 843 939 843 938 843 c 2,165,-1
 898 843 l 2,166,167
 887 840 887 840 879.5 830.5 c 128,-1,168
 872 821 872 821 864 813 c 0,169,170
 847 800 847 800 831 784.5 c 128,-1,171
 815 769 815 769 802 750.5 c 128,-1,172
 789 732 789 732 781.5 711 c 128,-1,173
 774 690 774 690 774 666 c 0,174,175
 774 648 774 648 779 630.5 c 128,-1,176
 784 613 784 613 794.5 599.5 c 128,-1,177
 805 586 805 586 820.5 577.5 c 128,-1,178
 836 569 836 569 857 569 c 0,179,180
 863 569 863 569 871.5 570 c 128,-1,181
 880 571 880 571 888 574 c 128,-1,182
 896 577 896 577 902.5 582 c 128,-1,183
 909 587 909 587 910 595 c 0,184,185
 909 596 909 596 906.5 601.5 c 128,-1,186
 904 607 904 607 901 613.5 c 128,-1,187
 898 620 898 620 896 625.5 c 128,-1,188
 894 631 894 631 893 633 c 0,189,190
 893 650 893 650 900.5 662.5 c 128,-1,191
 908 675 908 675 920 683.5 c 128,-1,192
 932 692 932 692 947 696.5 c 128,-1,193
 962 701 962 701 976 701 c 2,194,-1
 995 699 l 1,195,196
 1013 686 1013 686 1022.5 676 c 128,-1,197
 1032 666 1032 666 1036.5 655 c 128,-1,198
 1041 644 1041 644 1041.5 630.5 c 128,-1,199
 1042 617 1042 617 1042 597 c 0,200,201
 1042 594 1042 594 1042 588 c 128,-1,202
 1042 582 1042 582 1042 575 c 128,-1,203
 1042 568 1042 568 1041.5 562 c 128,-1,204
 1041 556 1041 556 1040 554 c 0,205,206
 1037 538 1037 538 1020.5 520.5 c 128,-1,207
 1004 503 1004 503 981.5 488.5 c 128,-1,208
 959 474 959 474 935.5 464.5 c 128,-1,209
 912 455 912 455 895 455 c 0,210,211
 870 455 870 455 851.5 464.5 c 128,-1,212
 833 474 833 474 813 490 c 0,213,214
 794 504 794 504 773 516 c 128,-1,215
 752 528 752 528 741 548 c 0,216,217
 725 587 725 587 714 632.5 c 128,-1,218
 703 678 703 678 703 732 c 1,219,220
 749 885 749 885 893 965 c 0,221,222
 895 970 895 970 900 978.5 c 128,-1,223
 905 987 905 987 910 991 c 0,224,225
 915 990 915 990 928 990 c 128,-1,226
 941 990 941 990 955 990 c 0,227,228
 971 990 971 990 984 990 c 128,-1,229
 997 990 997 990 1002 991 c 0,230,231
 1003 991 1003 991 1008.5 993 c 128,-1,232
 1014 995 1014 995 1019.5 997.5 c 128,-1,233
 1025 1000 1025 1000 1030 1002 c 128,-1,234
 1035 1004 1035 1004 1037 1005 c 0,235,236
 1051 1008 1051 1008 1064 1008 c 128,-1,237
 1077 1008 1077 1008 1088 1010 c 128,-1,238
 1099 1012 1099 1012 1108 1019 c 128,-1,239
 1117 1026 1117 1026 1123 1045 c 1,240,-1
 1198 1045 l 1,241,242
 1206 1038 1206 1038 1211.5 1037 c 128,-1,243
 1217 1036 1217 1036 1223 1036 c 0,244,245
 1252 1036 1252 1036 1273.5 1057 c 128,-1,246
 1295 1078 1295 1078 1309.5 1107.5 c 128,-1,247
 1324 1137 1324 1137 1331.5 1169 c 128,-1,248
 1339 1201 1339 1201 1339 1223 c 0,249,250
 1339 1269 1339 1269 1310.5 1286.5 c 128,-1,251
 1282 1304 1282 1304 1241 1304 c 0,252,253
 1233 1304 1233 1304 1227.5 1303 c 128,-1,254
 1222 1302 1222 1302 1217 1297 c 0,255,256
 1205 1283 1205 1283 1194.5 1268 c 128,-1,257
 1184 1253 1184 1253 1172.5 1241 c 128,-1,258
 1161 1229 1161 1229 1146.5 1221 c 128,-1,259
 1132 1213 1132 1213 1113 1213 c 0,260,261
 1099 1213 1099 1213 1091.5 1219.5 c 128,-1,262
 1084 1226 1084 1226 1080 1235 c 128,-1,263
 1076 1244 1076 1244 1075.5 1254.5 c 128,-1,264
 1075 1265 1075 1265 1075 1273 c 0,265,266
 1075 1289 1075 1289 1082 1303.5 c 128,-1,267
 1089 1318 1089 1318 1100 1329.5 c 128,-1,268
 1111 1341 1111 1341 1125 1349.5 c 128,-1,269
 1139 1358 1139 1358 1153 1362 c 2,270,-1
 1204 1365 l 2,271,272
 1263 1365 1263 1365 1311.5 1354 c 128,-1,273
 1360 1343 1360 1343 1394.5 1317.5 c 128,-1,274
 1429 1292 1429 1292 1447.5 1249.5 c 128,-1,275
 1466 1207 1466 1207 1466 1144 c 0,276,277
 1466 1119 1466 1119 1456 1098 c 128,-1,278
 1446 1077 1446 1077 1433 1052 c 0,279,280
 1432 1051 1432 1051 1431 1046.5 c 128,-1,281
 1430 1042 1430 1042 1429.5 1036 c 128,-1,282
 1429 1030 1429 1030 1428.5 1024.5 c 128,-1,283
 1428 1019 1428 1019 1428 1017 c 2,284,-1
 1393 981 l 2,285,286
 1392 978 1392 978 1388.5 972 c 128,-1,287
 1385 966 1385 966 1381.5 959.5 c 128,-1,288
 1378 953 1378 953 1374.5 947.5 c 128,-1,289
 1371 942 1371 942 1371 941 c 0,290,291
 1368 939 1368 939 1358 936 c 128,-1,292
 1348 933 1348 933 1336.5 930 c 128,-1,293
 1325 927 1325 927 1315 924 c 128,-1,294
 1305 921 1305 921 1301 920 c 2,295,-1
 1268 920 l 2,296,297
 1259 918 1259 918 1244.5 910.5 c 128,-1,298
 1230 903 1230 903 1216 893 c 128,-1,299
 1202 883 1202 883 1192 872.5 c 128,-1,300
 1182 862 1182 862 1182 855 c 0,301,302
 1182 838 1182 838 1193 823 c 128,-1,303
 1204 808 1204 808 1218 794 c 128,-1,304
 1232 780 1232 780 1246.5 767.5 c 128,-1,305
 1261 755 1261 755 1268 744 c 0,306,307
 1286 718 1286 718 1295.5 690 c 128,-1,308
 1305 662 1305 662 1309.5 631 c 128,-1,309
 1314 600 1314 600 1314.5 566.5 c 128,-1,310
 1315 533 1315 533 1315 498 c 0,311,312
 1315 468 1315 468 1314 449.5 c 128,-1,313
 1313 431 1313 431 1310 416 c 128,-1,314
 1307 401 1307 401 1301.5 385 c 128,-1,315
 1296 369 1296 369 1287 344 c 0,316,317
 1283 336 1283 336 1278.5 322.5 c 128,-1,318
 1274 309 1274 309 1269.5 294.5 c 128,-1,319
 1265 280 1265 280 1261 269 c 128,-1,320
 1257 258 1257 258 1256 256 c 0,321,322
 1243 224 1243 224 1221 203.5 c 128,-1,323
 1199 183 1199 183 1176 164.5 c 128,-1,324
 1153 146 1153 146 1132 124 c 128,-1,325
 1111 102 1111 102 1101 66 c 1,326,327
 1076 66 1076 66 1057.5 61.5 c 128,-1,328
 1039 57 1039 57 1022.5 50.5 c 128,-1,329
 1006 44 1006 44 990 36 c 128,-1,330
 974 28 974 28 955 21 c 0,331,332
 926 9 926 9 894 2 c 128,-1,333
 862 -5 862 -5 833 -19 c 1,334,335
 821 -17 821 -17 810 -17 c 128,-1,336
 799 -17 799 -17 786 -17 c 2,337,-1
 597 -26 l 2,338,339
 594 -25 594 -25 581 -21 c 128,-1,340
 568 -17 568 -17 553 -12 c 128,-1,341
 538 -7 538 -7 524 -3 c 128,-1,342
 510 1 510 1 506 2 c 2,343,-1
 481 2 l 2,344,345
 458 4 458 4 424.5 21 c 128,-1,346
 391 38 391 38 357 61.5 c 128,-1,347
 323 85 323 85 294 109.5 c 128,-1,348
 265 134 265 134 251 151 c 0,349,350
 244 160 244 160 239 171.5 c 128,-1,351
 234 183 234 183 228.5 194 c 128,-1,352
 223 205 223 205 217 214.5 c 128,-1,353
 211 224 211 224 201 230 c 1,354,-1
 194 244 l 2,0,1
EndSplineSet
EndChar

StartChar: quotesingle
Encoding: 39 39 10
Width: 555
GlyphClass: 1
Flags: W
LayerCount: 2
Fore
SplineSet
283 953 m 1,0,1
 267 962 267 962 255 979 c 128,-1,2
 243 996 243 996 238 1019 c 0,3,4
 238 1024 238 1024 240 1030.5 c 128,-1,5
 242 1037 242 1037 250 1040 c 0,6,7
 297 1055 297 1055 342 1065 c 128,-1,8
 387 1075 387 1075 422 1092 c 128,-1,9
 457 1109 457 1109 478 1140 c 128,-1,10
 499 1171 499 1171 499 1228 c 0,11,12
 499 1245 499 1245 491.5 1257.5 c 128,-1,13
 484 1270 484 1270 472 1281 c 128,-1,14
 460 1292 460 1292 447 1301.5 c 128,-1,15
 434 1311 434 1311 422 1321.5 c 128,-1,16
 410 1332 410 1332 402.5 1345 c 128,-1,17
 395 1358 395 1358 395 1375 c 0,18,19
 395 1402 395 1402 404 1416 c 128,-1,20
 413 1430 413 1430 428 1437.5 c 128,-1,21
 443 1445 443 1445 461.5 1450 c 128,-1,22
 480 1455 480 1455 499 1464 c 1,23,-1
 565 1464 l 2,24,25
 652 1464 652 1464 689 1419.5 c 128,-1,26
 726 1375 726 1375 726 1284 c 0,27,28
 726 1241 726 1241 721.5 1201 c 128,-1,29
 717 1161 717 1161 696 1123 c 0,30,31
 683 1099 683 1099 657 1069.5 c 128,-1,32
 631 1040 631 1040 599 1014 c 128,-1,33
 567 988 567 988 533 970.5 c 128,-1,34
 499 953 499 953 471 953 c 0,35,36
 445 950 445 950 418 950 c 0,37,38
 384 950 384 950 354 953 c 0,39,40
 342 957 342 957 336 957.5 c 128,-1,41
 330 958 330 958 321 958 c 2,42,-1
 283 953 l 1,0,1
EndSplineSet
EndChar

StartChar: parenleft
Encoding: 40 40 11
Width: 592
GlyphClass: 1
Flags: W
LayerCount: 2
Fore
SplineSet
852 1349 m 0,0,1
 852 1345 852 1345 846.5 1330.5 c 128,-1,2
 841 1316 841 1316 833.5 1299 c 128,-1,3
 826 1282 826 1282 818.5 1267 c 128,-1,4
 811 1252 811 1252 807 1249 c 0,5,6
 789 1233 789 1233 766 1224 c 128,-1,7
 743 1215 743 1215 724 1199 c 0,8,9
 672 1145 672 1145 617 1099 c 128,-1,10
 562 1053 562 1053 510 996 c 0,11,12
 510 994 510 994 507.5 984 c 128,-1,13
 505 974 505 974 503 972 c 0,14,15
 494 947 494 947 487.5 922 c 128,-1,16
 481 897 481 897 465 872 c 0,17,18
 456 858 456 858 441 852 c 128,-1,19
 426 846 426 846 413 837 c 0,20,21
 393 820 393 820 366 787.5 c 128,-1,22
 339 755 339 755 313.5 718 c 128,-1,23
 288 681 288 681 268.5 644.5 c 128,-1,24
 249 608 249 608 243 583 c 1,25,-1
 243 543 l 2,26,27
 241 528 241 528 236.5 519.5 c 128,-1,28
 232 511 232 511 227 504 c 128,-1,29
 222 497 222 497 216.5 490 c 128,-1,30
 211 483 211 483 207 471 c 0,31,32
 195 437 195 437 188.5 394 c 128,-1,33
 182 351 182 351 179 305.5 c 128,-1,34
 176 260 176 260 175 216 c 128,-1,35
 174 172 174 172 174 138 c 0,36,37
 174 129 174 129 173 115.5 c 128,-1,38
 172 102 172 102 172 86 c 0,39,40
 172 69 172 69 173.5 50.5 c 128,-1,41
 175 32 175 32 180 15.5 c 128,-1,42
 185 -1 185 -1 194 -14 c 128,-1,43
 203 -27 203 -27 217 -33 c 1,44,-1
 217 -83 l 1,45,-1
 233 -90 l 1,46,47
 231 -98 231 -98 231 -107.5 c 128,-1,48
 231 -117 231 -117 231 -126 c 0,49,50
 231 -150 231 -150 235 -175 c 128,-1,51
 239 -200 239 -200 247.5 -223.5 c 128,-1,52
 256 -247 256 -247 269.5 -267.5 c 128,-1,53
 283 -288 283 -288 302 -303 c 0,54,55
 320 -317 320 -317 330.5 -322 c 128,-1,56
 341 -327 341 -327 348 -332.5 c 128,-1,57
 355 -338 355 -338 360.5 -347.5 c 128,-1,58
 366 -357 366 -357 373 -379 c 0,59,60
 375 -383 375 -383 382 -393 c 128,-1,61
 389 -403 389 -403 389 -405 c 2,62,-1
 389 -413 l 2,63,64
 389 -428 389 -428 380 -440 c 128,-1,65
 371 -452 371 -452 357.5 -460 c 128,-1,66
 344 -468 344 -468 329 -472.5 c 128,-1,67
 314 -477 314 -477 302 -477 c 2,68,-1
 299 -477 l 1,69,70
 265 -464 265 -464 250 -454 c 128,-1,71
 235 -444 235 -444 227.5 -433 c 128,-1,72
 220 -422 220 -422 214 -407.5 c 128,-1,73
 208 -393 208 -393 193 -372 c 0,74,75
 193 -371 193 -371 188.5 -367 c 128,-1,76
 184 -363 184 -363 178.5 -358 c 128,-1,77
 173 -353 173 -353 168 -348.5 c 128,-1,78
 163 -344 163 -344 162 -343 c 0,79,80
 161 -340 161 -340 160 -333 c 128,-1,81
 159 -326 159 -326 158 -318.5 c 128,-1,82
 157 -311 157 -311 156 -304.5 c 128,-1,83
 155 -298 155 -298 155 -298 c 2,84,85
 150 -282 150 -282 142 -264 c 128,-1,86
 134 -246 134 -246 126 -228 c 128,-1,87
 118 -210 118 -210 111 -193.5 c 128,-1,88
 104 -177 104 -177 102 -163 c 2,89,-1
 102 -90 l 2,90,91
 102 -88 102 -88 100.5 -82.5 c 128,-1,92
 99 -77 99 -77 96.5 -70 c 128,-1,93
 94 -63 94 -63 92.5 -57.5 c 128,-1,94
 91 -52 91 -52 91 -50 c 2,95,-1
 91 -31 l 2,96,97
 91 -1 91 -1 93.5 31.5 c 128,-1,98
 96 64 96 64 98 92 c 0,99,100
 98 99 98 99 100 104 c 0,101,102
 98 115 98 115 98 125.5 c 128,-1,103
 98 136 98 136 98 147 c 0,104,105
 96 151 96 151 96 153 c 0,106,107
 95 155 95 155 95 156 c 0,108,109
 95 177 95 177 98.5 197.5 c 128,-1,110
 102 218 102 218 106 238 c 128,-1,111
 110 258 110 258 113.5 277.5 c 128,-1,112
 117 297 117 297 117 318 c 2,113,-1
 117 356 l 1,114,115
 110 361 110 361 109 366.5 c 128,-1,116
 108 372 108 372 108 379 c 0,117,118
 108 404 108 404 113.5 427.5 c 128,-1,119
 119 451 119 451 125.5 474.5 c 128,-1,120
 132 498 132 498 137 521.5 c 128,-1,121
 142 545 142 545 141 571 c 1,122,123
 166 598 166 598 175 633 c 128,-1,124
 184 668 184 668 189.5 705.5 c 128,-1,125
 195 743 195 743 201 780 c 128,-1,126
 207 817 207 817 226 848 c 0,127,128
 236 863 236 863 248.5 872 c 128,-1,129
 261 881 261 881 273.5 887.5 c 128,-1,130
 286 894 286 894 295.5 899 c 128,-1,131
 305 904 305 904 309 912 c 0,132,133
 315 922 315 922 323.5 935.5 c 128,-1,134
 332 949 332 949 340.5 963 c 128,-1,135
 349 977 349 977 356 991 c 128,-1,136
 363 1005 363 1005 366 1016 c 0,137,138
 369 1020 369 1020 371 1032.5 c 128,-1,139
 373 1045 373 1045 373 1047 c 0,140,141
 374 1049 374 1049 378 1053 c 128,-1,142
 382 1057 382 1057 387 1061 c 128,-1,143
 392 1065 392 1065 396.5 1068.5 c 128,-1,144
 401 1072 401 1072 403 1073 c 0,145,146
 409 1082 409 1082 415 1093 c 128,-1,147
 421 1104 421 1104 427.5 1115 c 128,-1,148
 434 1126 434 1126 441.5 1136 c 128,-1,149
 449 1146 449 1146 460 1152 c 0,150,151
 472 1159 472 1159 481.5 1164.5 c 128,-1,152
 491 1170 491 1170 499 1176.5 c 128,-1,153
 507 1183 507 1183 513 1192 c 128,-1,154
 519 1201 519 1201 524 1216 c 0,155,156
 530 1237 530 1237 545.5 1251.5 c 128,-1,157
 561 1266 561 1266 580.5 1277 c 128,-1,158
 600 1288 600 1288 621.5 1297 c 128,-1,159
 643 1306 643 1306 660 1318 c 0,160,161
 671 1327 671 1327 680.5 1344.5 c 128,-1,162
 690 1362 690 1362 699.5 1380 c 128,-1,163
 709 1398 709 1398 718.5 1411 c 128,-1,164
 728 1424 728 1424 740 1424 c 0,165,166
 759 1424 759 1424 779 1421 c 128,-1,167
 799 1418 799 1418 815.5 1410 c 128,-1,168
 832 1402 832 1402 842 1387.5 c 128,-1,169
 852 1373 852 1373 852 1349 c 0,0,1
EndSplineSet
EndChar

StartChar: parenright
Encoding: 41 41 12
Width: 660
GlyphClass: 1
Flags: W
LayerCount: 2
Fore
SplineSet
-187 -403 m 0,0,1
 -187 -399 -187 -399 -181.5 -384 c 128,-1,2
 -176 -369 -176 -369 -168.5 -352 c 128,-1,3
 -161 -335 -161 -335 -153.5 -320.5 c 128,-1,4
 -146 -306 -146 -306 -142 -303 c 0,5,6
 -124 -287 -124 -287 -100.5 -277.5 c 128,-1,7
 -77 -268 -77 -268 -59 -253 c 0,8,9
 -7 -200 -7 -200 48.5 -153 c 128,-1,10
 104 -106 104 -106 156 -50 c 0,11,12
 156 -48 156 -48 158.5 -38 c 128,-1,13
 161 -28 161 -28 163 -26 c 0,14,15
 172 -1 172 -1 178.5 24.5 c 128,-1,16
 185 50 185 50 201 74 c 0,17,18
 210 88 210 88 224.5 94 c 128,-1,19
 239 100 239 100 253 109 c 0,20,21
 273 127 273 127 299.5 159.5 c 128,-1,22
 326 192 326 192 351.5 228.5 c 128,-1,23
 377 265 377 265 396.5 301.5 c 128,-1,24
 416 338 416 338 422 363 c 1,25,-1
 422 403 l 2,26,27
 424 418 424 418 428.5 426.5 c 128,-1,28
 433 435 433 435 438 442 c 128,-1,29
 443 449 443 449 448.5 456.5 c 128,-1,30
 454 464 454 464 458 476 c 0,31,32
 470 510 470 510 476.5 553 c 128,-1,33
 483 596 483 596 486.5 641 c 128,-1,34
 490 686 490 686 490.5 729.5 c 128,-1,35
 491 773 491 773 491 808 c 0,36,37
 491 817 491 817 492 830.5 c 128,-1,38
 493 844 493 844 493 860 c 0,39,40
 493 878 493 878 491.5 896 c 128,-1,41
 490 914 490 914 485 930.5 c 128,-1,42
 480 947 480 947 471 960 c 128,-1,43
 462 973 462 973 448 979 c 1,44,-1
 448 1029 l 1,45,-1
 433 1036 l 1,46,47
 434 1044 434 1044 434 1053.5 c 128,-1,48
 434 1063 434 1063 434 1073 c 0,49,50
 434 1121 434 1121 417.5 1170 c 128,-1,51
 401 1219 401 1219 363 1249 c 0,52,53
 346 1262 346 1262 335.5 1267.5 c 128,-1,54
 325 1273 325 1273 317.5 1278.5 c 128,-1,55
 310 1284 310 1284 304.5 1293.5 c 128,-1,56
 299 1303 299 1303 292 1325 c 0,57,58
 291 1329 291 1329 284 1339 c 128,-1,59
 277 1349 277 1349 277 1351 c 2,60,-1
 277 1360 l 2,61,62
 277 1375 277 1375 286 1387 c 128,-1,63
 295 1399 295 1399 308.5 1407 c 128,-1,64
 322 1415 322 1415 336.5 1419.5 c 128,-1,65
 351 1424 351 1424 363 1424 c 2,66,-1
 367 1424 l 1,67,68
 401 1411 401 1411 416 1400.5 c 128,-1,69
 431 1390 431 1390 438.5 1379 c 128,-1,70
 446 1368 446 1368 451.5 1353.5 c 128,-1,71
 457 1339 457 1339 472 1318 c 0,72,73
 473 1318 473 1318 477.5 1313.5 c 128,-1,74
 482 1309 482 1309 487 1304 c 128,-1,75
 492 1299 492 1299 497 1294.5 c 128,-1,76
 502 1290 502 1290 503 1289 c 0,77,78
 504 1287 504 1287 505 1280 c 128,-1,79
 506 1273 506 1273 507 1265.5 c 128,-1,80
 508 1258 508 1258 509 1251.5 c 128,-1,81
 510 1245 510 1245 510 1244 c 0,82,83
 514 1228 514 1228 522.5 1210 c 128,-1,84
 531 1192 531 1192 539 1174 c 128,-1,85
 547 1156 547 1156 554 1139 c 128,-1,86
 561 1122 561 1122 564 1109 c 2,87,-1
 564 1036 l 2,88,89
 564 1034 564 1034 565.5 1028.5 c 128,-1,90
 567 1023 567 1023 569 1016.5 c 128,-1,91
 571 1010 571 1010 572.5 1004 c 128,-1,92
 574 998 574 998 574 996 c 2,93,-1
 574 977 l 2,94,95
 574 948 574 948 572 915 c 128,-1,96
 570 882 570 882 567 855 c 0,97,98
 567 848 567 848 566 843 c 0,99,100
 567 831 567 831 567 820.5 c 128,-1,101
 567 810 567 810 567 799 c 0,102,103
 568 797 568 797 568.5 796.5 c 128,-1,104
 569 796 569 796 570 794 c 256,105,106
 571 792 571 792 571 791 c 0,107,108
 571 770 571 770 567.5 749.5 c 128,-1,109
 564 729 564 729 559.5 709 c 128,-1,110
 555 689 555 689 551.5 669 c 128,-1,111
 548 649 548 649 548 628 c 2,112,-1
 548 590 l 1,113,114
 555 585 555 585 556 579.5 c 128,-1,115
 557 574 557 574 557 567 c 0,116,117
 557 543 557 543 551.5 519.5 c 128,-1,118
 546 496 546 496 539.5 472.5 c 128,-1,119
 533 449 533 449 528 424.5 c 128,-1,120
 523 400 523 400 524 375 c 1,121,122
 499 348 499 348 490 313 c 128,-1,123
 481 278 481 278 476 241 c 128,-1,124
 471 204 471 204 464.5 167 c 128,-1,125
 458 130 458 130 439 99 c 0,126,127
 429 83 429 83 416.5 74 c 128,-1,128
 404 65 404 65 392 59 c 128,-1,129
 380 53 380 53 370 47.5 c 128,-1,130
 360 42 360 42 356 35 c 0,131,132
 350 24 350 24 341.5 11 c 128,-1,133
 333 -2 333 -2 324.5 -16.5 c 128,-1,134
 316 -31 316 -31 309 -44.5 c 128,-1,135
 302 -58 302 -58 299 -69 c 0,136,137
 297 -73 297 -73 294.5 -86 c 128,-1,138
 292 -99 292 -99 292 -100 c 0,139,140
 292 -102 292 -102 287.5 -106.5 c 128,-1,141
 283 -111 283 -111 278 -115 c 128,-1,142
 273 -119 273 -119 268.5 -122.5 c 128,-1,143
 264 -126 264 -126 263 -126 c 0,144,145
 250 -145 250 -145 238.5 -169 c 128,-1,146
 227 -193 227 -193 206 -206 c 0,147,148
 194 -213 194 -213 184.5 -218.5 c 128,-1,149
 175 -224 175 -224 167 -230.5 c 128,-1,150
 159 -237 159 -237 152.5 -246 c 128,-1,151
 146 -255 146 -255 142 -270 c 0,152,153
 136 -291 136 -291 120.5 -305.5 c 128,-1,154
 105 -320 105 -320 85 -331 c 128,-1,155
 65 -342 65 -342 44 -351 c 128,-1,156
 23 -360 23 -360 5 -372 c 0,157,158
 -6 -381 -6 -381 -15.5 -398.5 c 128,-1,159
 -25 -416 -25 -416 -34 -433.5 c 128,-1,160
 -43 -451 -43 -451 -52.5 -464 c 128,-1,161
 -62 -477 -62 -477 -74 -477 c 0,162,163
 -94 -477 -94 -477 -114 -474 c 128,-1,164
 -134 -471 -134 -471 -150 -463 c 128,-1,165
 -166 -455 -166 -455 -176.5 -440.5 c 128,-1,166
 -187 -426 -187 -426 -187 -403 c 0,0,1
EndSplineSet
EndChar

StartChar: asterisk
Encoding: 42 42 13
Width: 1056
GlyphClass: 1
Flags: W
LayerCount: 2
Fore
SplineSet
537 751 m 2,0,1
 537 771 537 771 542 790 c 128,-1,2
 547 809 547 809 552.5 828 c 128,-1,3
 558 847 558 847 563 866 c 128,-1,4
 568 885 568 885 568 905 c 1,5,-1
 560 905 l 2,6,7
 558 905 558 905 546.5 896 c 128,-1,8
 535 887 535 887 519.5 875 c 128,-1,9
 504 863 504 863 488.5 849.5 c 128,-1,10
 473 836 473 836 463 827 c 0,11,12
 460 827 460 827 452.5 818.5 c 128,-1,13
 445 810 445 810 444 808 c 0,14,15
 439 806 439 806 428.5 800.5 c 128,-1,16
 418 795 418 795 407 789 c 128,-1,17
 396 783 396 783 386.5 777.5 c 128,-1,18
 377 772 377 772 374 770 c 2,19,-1
 364 770 l 2,20,21
 355 770 355 770 348 775.5 c 128,-1,22
 341 781 341 781 336 789.5 c 128,-1,23
 331 798 331 798 328.5 808 c 128,-1,24
 326 818 326 818 326 827 c 0,25,26
 326 850 326 850 332.5 860.5 c 128,-1,27
 339 871 339 871 349.5 876 c 128,-1,28
 360 881 360 881 374 883.5 c 128,-1,29
 388 886 388 886 402 894 c 0,30,31
 404 895 404 895 408.5 899.5 c 128,-1,32
 413 904 413 904 418 909 c 128,-1,33
 423 914 423 914 427 918.5 c 128,-1,34
 431 923 431 923 431 924 c 0,35,36
 434 927 434 927 446 935.5 c 128,-1,37
 458 944 458 944 471 953.5 c 128,-1,38
 484 963 484 963 496 971 c 128,-1,39
 508 979 508 979 511 981 c 0,40,41
 511 983 511 983 514.5 990 c 128,-1,42
 518 997 518 997 518 1002 c 2,43,-1
 518 1007 l 1,44,-1
 518 1010 l 2,45,46
 518 1013 518 1013 515.5 1016 c 128,-1,47
 513 1019 513 1019 511 1021 c 0,48,49
 493 1018 493 1018 480 1016 c 128,-1,50
 467 1014 467 1014 455 1012.5 c 128,-1,51
 443 1011 443 1011 430.5 1010.5 c 128,-1,52
 418 1010 418 1010 402 1010 c 0,53,54
 390 1010 390 1010 366 1013.5 c 128,-1,55
 342 1017 342 1017 318 1024.5 c 128,-1,56
 294 1032 294 1032 276 1043.5 c 128,-1,57
 258 1055 258 1055 258 1071 c 0,58,59
 258 1084 258 1084 275.5 1096 c 128,-1,60
 293 1108 293 1108 316 1117.5 c 128,-1,61
 339 1127 339 1127 361 1132.5 c 128,-1,62
 383 1138 383 1138 393 1138 c 0,63,64
 428 1138 428 1138 463.5 1132 c 128,-1,65
 499 1126 499 1126 534 1126 c 2,66,-1
 579 1126 l 1,67,68
 570 1147 570 1147 555 1162.5 c 128,-1,69
 540 1178 540 1178 522 1191.5 c 128,-1,70
 504 1205 504 1205 485 1217.5 c 128,-1,71
 466 1230 466 1230 451 1244 c 0,72,73
 446 1248 446 1248 435 1258.5 c 128,-1,74
 424 1269 424 1269 412 1281 c 128,-1,75
 400 1293 400 1293 389.5 1303.5 c 128,-1,76
 379 1314 379 1314 374 1318 c 0,77,78
 368 1327 368 1327 366 1335.5 c 128,-1,79
 364 1344 364 1344 364 1353 c 2,80,-1
 364 1372 l 1,81,-1
 364 1406 l 1,82,83
 371 1422 371 1422 381 1424.5 c 128,-1,84
 391 1427 391 1427 402 1427 c 0,85,86
 422 1427 422 1427 440 1418 c 128,-1,87
 458 1409 458 1409 470 1398 c 2,88,-1
 655 1213 l 1,89,90
 661 1214 661 1214 663 1221.5 c 128,-1,91
 665 1229 665 1229 665 1235 c 2,92,-1
 665 1247 l 2,93,94
 665 1268 665 1268 660 1286 c 128,-1,95
 655 1304 655 1304 655 1327 c 0,96,97
 655 1359 655 1359 656.5 1390 c 128,-1,98
 658 1421 658 1421 665 1455 c 0,99,100
 666 1463 666 1463 673.5 1473.5 c 128,-1,101
 681 1484 681 1484 691 1493 c 128,-1,102
 701 1502 701 1502 712.5 1508 c 128,-1,103
 724 1514 724 1514 733 1514 c 0,104,105
 736 1511 736 1511 740 1509 c 0,106,107
 746 1504 746 1504 752 1503 c 0,108,109
 764 1496 764 1496 774.5 1490.5 c 128,-1,110
 785 1485 785 1485 793 1478.5 c 128,-1,111
 801 1472 801 1472 805.5 1463 c 128,-1,112
 810 1454 810 1454 810 1439 c 0,113,114
 810 1413 810 1413 802.5 1387.5 c 128,-1,115
 795 1362 795 1362 785.5 1336.5 c 128,-1,116
 776 1311 776 1311 766 1285 c 128,-1,117
 756 1259 756 1259 752 1232 c 1,118,-1
 752 1195 l 2,119,120
 750 1186 750 1186 745 1180.5 c 128,-1,121
 740 1175 740 1175 735 1170 c 128,-1,122
 730 1165 730 1165 726 1159.5 c 128,-1,123
 722 1154 722 1154 722 1145 c 0,124,125
 722 1140 722 1140 724.5 1128 c 128,-1,126
 727 1116 727 1116 736 1116 c 2,127,-1
 741 1116 l 1,128,129
 743 1120 743 1120 746 1132 c 128,-1,130
 749 1144 749 1144 752 1145 c 0,131,132
 761 1162 761 1162 778.5 1187.5 c 128,-1,133
 796 1213 796 1213 818.5 1241 c 128,-1,134
 841 1269 841 1269 867 1297 c 128,-1,135
 893 1325 893 1325 919 1347.5 c 128,-1,136
 945 1370 945 1370 969.5 1384 c 128,-1,137
 994 1398 994 1398 1015 1398 c 0,138,139
 1025 1398 1025 1398 1036.5 1395.5 c 128,-1,140
 1048 1393 1048 1393 1057.5 1388 c 128,-1,141
 1067 1383 1067 1383 1073 1374.5 c 128,-1,142
 1079 1366 1079 1366 1079 1353 c 2,143,-1
 1079 1349 l 1,144,145
 1067 1314 1067 1314 1050.5 1282.5 c 128,-1,146
 1034 1251 1034 1251 1011 1225 c 0,147,148
 1009 1221 1009 1221 1001.5 1214 c 128,-1,149
 994 1207 994 1207 992 1202 c 0,150,151
 986 1198 986 1198 964.5 1181.5 c 128,-1,152
 943 1165 943 1165 918.5 1146 c 128,-1,153
 894 1127 894 1127 873 1110.5 c 128,-1,154
 852 1094 852 1094 847 1090 c 0,155,156
 838 1081 838 1081 838 1080 c 0,157,158
 838 1078 838 1078 839 1075 c 128,-1,159
 840 1072 840 1072 840 1066 c 1,160,161
 862 1066 862 1066 879.5 1062.5 c 128,-1,162
 897 1059 897 1059 919 1059 c 0,163,164
 939 1059 939 1059 952 1065 c 128,-1,165
 965 1071 965 1071 985 1071 c 0,166,167
 1006 1071 1006 1071 1032.5 1070 c 128,-1,168
 1059 1069 1059 1069 1082.5 1061.5 c 128,-1,169
 1106 1054 1106 1054 1121.5 1038.5 c 128,-1,170
 1137 1023 1137 1023 1137 995 c 0,171,172
 1137 954 1137 954 1108 933.5 c 128,-1,173
 1079 913 1079 913 1040 913 c 0,174,175
 1020 913 1020 913 1001.5 921.5 c 128,-1,176
 983 930 983 930 963 934 c 0,177,178
 931 941 931 941 910.5 943.5 c 128,-1,179
 890 946 890 946 861 946 c 0,180,181
 857 946 857 946 847 944 c 0,182,183
 843 943 843 943 838 943 c 1,184,-1
 828 924 l 1,185,-1
 935 818 l 2,186,187
 948 804 948 804 956 779.5 c 128,-1,188
 964 755 964 755 964 737 c 0,189,190
 964 723 964 723 960 708 c 128,-1,191
 956 693 956 693 948.5 681 c 128,-1,192
 941 669 941 669 928.5 661.5 c 128,-1,193
 916 654 916 654 900 654 c 0,194,195
 873 654 873 654 849.5 672 c 128,-1,196
 826 690 826 690 805.5 717 c 128,-1,197
 785 744 785 744 768.5 775 c 128,-1,198
 752 806 752 806 738.5 833 c 128,-1,199
 725 860 725 860 715 878 c 128,-1,200
 705 896 705 896 698 896 c 0,201,202
 696 896 696 896 694.5 895 c 128,-1,203
 693 894 693 894 691 894 c 0,204,205
 689 893 689 893 687 891 c 0,206,207
 684 888 684 888 684 886 c 2,208,-1
 684 732 l 2,209,210
 683 717 683 717 680 697 c 128,-1,211
 677 677 677 677 669.5 659 c 128,-1,212
 662 641 662 641 649.5 628.5 c 128,-1,213
 637 616 637 616 617 616 c 0,214,215
 587 616 587 616 571.5 626.5 c 128,-1,216
 556 637 556 637 549.5 654.5 c 128,-1,217
 543 672 543 672 541.5 694.5 c 128,-1,218
 540 717 540 717 537 740 c 2,219,-1
 537 751 l 2,0,1
EndSplineSet
EndChar

StartChar: plus
Encoding: 43 43 14
Width: 1074
GlyphClass: 1
Flags: W
LayerCount: 2
Fore
SplineSet
127 699 m 0,0,1
 139 710 139 710 161 715.5 c 128,-1,2
 183 721 183 721 210 721 c 0,3,4
 230 721 230 721 237.5 720 c 128,-1,5
 245 719 245 719 250 716 c 2,6,-1
 401 716 l 2,7,8
 435 716 435 716 459 719.5 c 128,-1,9
 483 723 483 723 492 732 c 0,10,11
 510 750 510 750 510 803 c 1,12,-1
 491 1038 l 2,13,14
 491 1064 491 1064 495 1086 c 128,-1,15
 499 1108 499 1108 510 1119 c 0,16,17
 526 1133 526 1133 560 1133 c 0,18,19
 583 1133 583 1133 604 1126.5 c 128,-1,20
 625 1120 625 1120 636 1109 c 1,21,-1
 664 1048 l 1,22,23
 664 1048 664 1048 665 1046 c 128,-1,24
 666 1044 666 1044 667.5 1037 c 128,-1,25
 669 1030 669 1030 671 1015.5 c 128,-1,26
 673 1001 673 1001 676 976 c 1,27,28
 666 972 666 972 660 965 c 0,29,30
 652 954 652 954 648.5 944 c 128,-1,31
 645 934 645 934 645 920 c 0,32,33
 645 897 645 897 648.5 869.5 c 128,-1,34
 652 842 652 842 657 822 c 0,35,36
 658 808 658 808 659 804 c 128,-1,37
 660 800 660 800 660 796 c 0,38,39
 660 780 660 780 658.5 764 c 128,-1,40
 657 748 657 748 657 737 c 2,41,-1
 657 735 l 2,42,43
 657 734 657 734 658 734 c 0,44,45
 665 727 665 727 667 727 c 0,46,47
 701 727 701 727 738.5 735.5 c 128,-1,48
 776 744 776 744 807 744 c 0,49,50
 823 744 823 744 835 741 c 128,-1,51
 847 738 847 738 857 734 c 1,52,-1
 1011 734 l 2,53,54
 1016 734 1016 734 1024 731 c 128,-1,55
 1032 728 1032 728 1034 727 c 0,56,57
 1043 716 1043 716 1043 697 c 2,58,-1
 1043 621 l 1,59,-1
 1025 602 l 2,60,61
 992 569 992 569 935 569 c 0,62,63
 890 569 890 569 844.5 579.5 c 128,-1,64
 799 590 799 590 761 592 c 1,65,-1
 738 583 l 1,66,-1
 676 578 l 1,67,68
 671 569 671 569 667 551.5 c 128,-1,69
 663 534 663 534 660 512 c 128,-1,70
 657 490 657 490 655 465.5 c 128,-1,71
 653 441 653 441 653 419 c 0,72,73
 653 396 653 396 655.5 378 c 128,-1,74
 658 360 658 360 662 344 c 0,75,76
 667 324 667 324 667 315 c 0,77,78
 667 311 667 311 664.5 297.5 c 128,-1,79
 662 284 662 284 662 282 c 2,80,-1
 665 234 l 2,81,82
 665 212 665 212 657 204 c 0,83,84
 641 194 641 194 612 194 c 0,85,86
 586 194 586 194 563 200 c 128,-1,87
 540 206 540 206 532 211 c 1,88,89
 519 235 519 235 514 264 c 128,-1,90
 509 293 509 293 506.5 324.5 c 128,-1,91
 504 356 504 356 501.5 388.5 c 128,-1,92
 499 421 499 421 492 452 c 1,93,-1
 513 529 l 2,94,95
 513 540 513 540 506 550 c 0,96,97
 495 559 495 559 485 564 c 128,-1,98
 475 569 475 569 461 569 c 0,99,100
 444 569 444 569 427.5 565 c 128,-1,101
 411 561 411 561 390 561 c 0,102,103
 376 561 376 561 370.5 561 c 128,-1,104
 365 561 365 561 361 562 c 0,105,106
 355 569 355 569 337 569 c 2,107,-1
 312 567 l 2,108,109
 297 563 297 563 280.5 562 c 128,-1,110
 264 561 264 561 247 561 c 256,111,112
 230 561 230 561 214 562 c 128,-1,113
 198 563 198 563 181 567 c 0,114,115
 165 567 165 567 154 570.5 c 128,-1,116
 143 574 143 574 133 588 c 0,117,118
 120 611 120 611 120 649 c 0,119,120
 123 680 123 680 125 688.5 c 128,-1,121
 127 697 127 697 127 699 c 0,0,1
EndSplineSet
EndChar

StartChar: comma
Encoding: 44 44 15
Width: 501
GlyphClass: 1
Flags: W
LayerCount: 2
Fore
SplineSet
-178 -235 m 2,0,1
 -176 -233 -176 -233 -172 -227 c 128,-1,2
 -168 -221 -168 -221 -166 -220 c 0,3,4
 -119 -205 -119 -205 -74.5 -195 c 128,-1,5
 -30 -185 -30 -185 4.5 -167.5 c 128,-1,6
 39 -150 39 -150 60 -119 c 128,-1,7
 81 -88 81 -88 81 -31 c 0,8,9
 81 -6 81 -6 64.5 10 c 128,-1,10
 48 26 48 26 28.5 41 c 128,-1,11
 9 56 9 56 -7.5 73.5 c 128,-1,12
 -24 91 -24 91 -24 118 c 256,13,14
 -24 145 -24 145 -15 158.5 c 128,-1,15
 -6 172 -6 172 9 178.5 c 128,-1,16
 24 185 24 185 43 189 c 128,-1,17
 62 193 62 193 81 201 c 1,18,-1
 147 201 l 2,19,20
 234 201 234 201 272 159.5 c 128,-1,21
 310 118 310 118 310 24 c 0,22,23
 310 -19 310 -19 304.5 -60.5 c 128,-1,24
 299 -102 299 -102 279 -137 c 0,25,26
 265 -160 265 -160 238 -190 c 128,-1,27
 211 -220 211 -220 179 -246 c 128,-1,28
 147 -272 147 -272 114 -290 c 128,-1,29
 81 -308 81 -308 54 -308 c 2,30,-1
 -67 -308 l 1,31,32
 -78 -301 -78 -301 -83 -300 c 128,-1,33
 -88 -299 -88 -299 -98 -299 c 2,34,-1
 -135 -308 l 2,35,36
 -143 -308 -143 -308 -150 -300 c 128,-1,37
 -157 -292 -157 -292 -162.5 -281.5 c 128,-1,38
 -168 -271 -168 -271 -172 -260 c 128,-1,39
 -176 -249 -176 -249 -178 -242 c 2,40,-1
 -178 -235 l 2,0,1
EndSplineSet
EndChar

StartChar: hyphen
Encoding: 45 45 16
AltUni2: 0000ad.ffffffff.0 0000ad.ffffffff.0
Width: 909
GlyphClass: 1
Flags: W
LayerCount: 2
Fore
SplineSet
535 467 m 2,0,1
 523 465 523 465 508.5 463.5 c 128,-1,2
 494 462 494 462 471 462 c 0,3,4
 449 462 449 462 436 469 c 1,5,6
 422 464 422 464 409.5 462 c 128,-1,7
 397 460 397 460 386 460 c 0,8,9
 367 460 367 460 349 463.5 c 128,-1,10
 331 467 331 467 312 470.5 c 128,-1,11
 293 474 293 474 274 477.5 c 128,-1,12
 255 481 255 481 234 481 c 2,13,-1
 213 481 l 1,14,15
 190 505 190 505 190 535 c 0,16,17
 190 581 190 581 211.5 596.5 c 128,-1,18
 233 612 233 612 270 612 c 0,19,20
 281 612 281 612 291.5 612 c 128,-1,21
 302 612 302 612 313 611 c 2,22,-1
 365 605 l 2,23,24
 378 605 378 605 390 605 c 128,-1,25
 402 605 402 605 415 607 c 2,26,-1
 538 595 l 2,27,28
 554 595 554 595 573 596 c 128,-1,29
 592 597 592 597 612 602 c 0,30,31
 633 610 633 610 642.5 611 c 128,-1,32
 652 612 652 612 668 612 c 0,33,34
 681 612 681 612 697.5 610 c 128,-1,35
 714 608 714 608 729 603 c 128,-1,36
 744 598 744 598 754.5 588.5 c 128,-1,37
 765 579 765 579 765 564 c 0,38,39
 765 559 765 559 764 555 c 128,-1,40
 763 551 763 551 761 547 c 0,41,42
 749 515 749 515 738 496 c 128,-1,43
 727 477 727 477 710.5 467.5 c 128,-1,44
 694 458 694 458 669.5 455 c 128,-1,45
 645 452 645 452 607 452 c 0,46,47
 605 452 605 452 599.5 455.5 c 128,-1,48
 594 459 594 459 588 462.5 c 128,-1,49
 582 466 582 466 577 469 c 128,-1,50
 572 472 572 472 571 472 c 2,51,-1
 535 467 l 2,0,1
EndSplineSet
EndChar

StartChar: period
Encoding: 46 46 17
Width: 460
GlyphClass: 1
Flags: W
LayerCount: 2
Fore
SplineSet
-5 195 m 2,0,1
 -2 201 -2 201 15.5 215 c 128,-1,2
 33 229 33 229 54 243 c 128,-1,3
 75 257 75 257 94 268 c 128,-1,4
 113 279 113 279 119 279 c 0,5,6
 149 279 149 279 177.5 266 c 128,-1,7
 206 253 206 253 228.5 231.5 c 128,-1,8
 251 210 251 210 264.5 182.5 c 128,-1,9
 278 155 278 155 278 125 c 0,10,11
 278 83 278 83 260.5 57.5 c 128,-1,12
 243 32 243 32 215.5 17.5 c 128,-1,13
 188 3 188 3 153.5 -2 c 128,-1,14
 119 -7 119 -7 85 -7 c 0,15,16
 59 -7 59 -7 41.5 11.5 c 128,-1,17
 24 30 24 30 13.5 56.5 c 128,-1,18
 3 83 3 83 -1 111.5 c 128,-1,19
 -5 140 -5 140 -5 161 c 2,20,-1
 -5 195 l 2,0,1
EndSplineSet
EndChar

StartChar: slash
Encoding: 47 47 18
Width: 567
GlyphClass: 1
Flags: W
LayerCount: 2
Fore
SplineSet
-40 7 m 0,0,1
 -37 24 -37 24 -31.5 36 c 128,-1,2
 -26 48 -26 48 -18.5 58.5 c 128,-1,3
 -11 69 -11 69 -3 79.5 c 128,-1,4
 5 90 5 90 13 104 c 2,5,-1
 29 131 l 1,6,7
 33 147 33 147 39.5 156 c 128,-1,8
 46 165 46 165 53 178 c 2,9,-1
 74 225 l 2,10,11
 74 227 74 227 78.5 230 c 128,-1,12
 83 233 83 233 88 236 c 128,-1,13
 93 239 93 239 98 241.5 c 128,-1,14
 103 244 103 244 105 246 c 2,15,-1
 114 289 l 2,16,17
 117 301 117 301 124 309.5 c 128,-1,18
 131 318 131 318 139 326 c 128,-1,19
 147 334 147 334 154.5 341.5 c 128,-1,20
 162 349 162 349 167 358 c 0,21,22
 171 362 171 362 178 372 c 128,-1,23
 185 382 185 382 191.5 392.5 c 128,-1,24
 198 403 198 403 203 412.5 c 128,-1,25
 208 422 208 422 209 426 c 0,26,27
 210 429 210 429 220 449.5 c 128,-1,28
 230 470 230 470 243.5 493.5 c 128,-1,29
 257 517 257 517 271 536 c 128,-1,30
 285 555 285 555 295 555 c 1,31,32
 323 588 323 588 344 632 c 128,-1,33
 365 676 365 676 382 713 c 1,34,-1
 442 799 l 1,35,36
 461 842 461 842 473 867 c 128,-1,37
 485 892 485 892 492.5 904.5 c 128,-1,38
 500 917 500 917 504 921 c 128,-1,39
 508 925 508 925 511 927 c 2,40,-1
 532 962 l 2,41,42
 537 977 537 977 543.5 986.5 c 128,-1,43
 550 996 550 996 557 1004 c 128,-1,44
 564 1012 564 1012 571.5 1020.5 c 128,-1,45
 579 1029 579 1029 588 1043 c 0,46,47
 619 1086 619 1086 642 1132 c 128,-1,48
 665 1178 665 1178 690 1223 c 0,49,50
 699 1241 699 1241 711.5 1256 c 128,-1,51
 724 1271 724 1271 738 1291 c 0,52,53
 741 1295 741 1295 748.5 1308.5 c 128,-1,54
 756 1322 756 1322 765 1338 c 128,-1,55
 774 1354 774 1354 782 1371 c 128,-1,56
 790 1388 790 1388 795 1400 c 0,57,58
 805 1423 805 1423 817 1440.5 c 128,-1,59
 829 1458 829 1458 859 1458 c 0,60,61
 870 1458 870 1458 887 1455 c 0,62,63
 900 1453 900 1453 916 1444.5 c 128,-1,64
 932 1436 932 1436 939 1422 c 1,65,-1
 928 1370 l 2,66,67
 927 1368 927 1368 920 1359.5 c 128,-1,68
 913 1351 913 1351 911 1349 c 0,69,70
 900 1331 900 1331 898 1310.5 c 128,-1,71
 896 1290 896 1290 885 1270 c 0,72,73
 878 1257 878 1257 868 1252.5 c 128,-1,74
 858 1248 858 1248 844 1239 c 0,75,76
 839 1232 839 1232 837.5 1225.5 c 128,-1,77
 836 1219 836 1219 833 1201 c 0,78,79
 828 1189 828 1189 817.5 1177 c 128,-1,80
 807 1165 807 1165 795.5 1153.5 c 128,-1,81
 784 1142 784 1142 772 1131.5 c 128,-1,82
 760 1121 760 1121 752 1112 c 0,83,84
 740 1101 740 1101 735.5 1093 c 128,-1,85
 731 1085 731 1085 731 1081 c 2,86,-1
 731 1080 l 1,87,-1
 721 1050 l 2,88,89
 710 1024 710 1024 694.5 1002 c 128,-1,90
 679 980 679 980 664 967 c 1,91,92
 661 958 661 958 661.5 951 c 128,-1,93
 662 944 662 944 660 939 c 0,94,95
 656 923 656 923 652 913.5 c 128,-1,96
 648 904 648 904 643.5 898.5 c 128,-1,97
 639 893 639 893 634.5 889.5 c 128,-1,98
 630 886 630 886 626 882 c 0,99,100
 623 877 623 877 617 868.5 c 128,-1,101
 611 860 611 860 605.5 850 c 128,-1,102
 600 840 600 840 596 830 c 128,-1,103
 592 820 592 820 591 813 c 0,104,105
 586 787 586 787 576 770.5 c 128,-1,106
 566 754 566 754 556.5 744 c 128,-1,107
 547 734 547 734 539 728 c 128,-1,108
 531 722 531 722 529 718 c 0,109,110
 529 714 529 714 523 707.5 c 128,-1,111
 517 701 517 701 515 699 c 0,112,113
 509 679 509 679 500.5 664.5 c 128,-1,114
 492 650 492 650 482 638.5 c 128,-1,115
 472 627 472 627 459.5 616 c 128,-1,116
 447 605 447 605 434 592 c 0,117,118
 424 583 424 583 419.5 572 c 128,-1,119
 415 561 415 561 411 552 c 0,120,121
 407 520 407 520 404 507.5 c 128,-1,122
 401 495 401 495 397 488 c 0,123,124
 379 475 379 475 371 459 c 128,-1,125
 363 443 363 443 361 441 c 0,126,127
 359 438 359 438 353.5 434 c 128,-1,128
 348 430 348 430 341 426.5 c 128,-1,129
 334 423 334 423 327.5 420 c 128,-1,130
 321 417 321 417 319 417 c 0,131,132
 313 410 313 410 307 393 c 128,-1,133
 301 376 301 376 295 356.5 c 128,-1,134
 289 337 289 337 282.5 320 c 128,-1,135
 276 303 276 303 269 296 c 0,136,137
 267 293 267 293 262.5 290 c 128,-1,138
 258 287 258 287 253 283.5 c 128,-1,139
 248 280 248 280 244.5 277 c 128,-1,140
 241 274 241 274 242 272 c 0,141,142
 243 265 243 265 243 261 c 128,-1,143
 243 257 243 257 243 253 c 0,144,145
 243 247 243 247 242 244 c 0,146,147
 237 221 237 221 222.5 209.5 c 128,-1,148
 208 198 208 198 200 195 c 1,149,150
 191 175 191 175 188.5 164 c 128,-1,151
 186 153 186 153 174 149 c 0,152,153
 172 145 172 145 172 136 c 128,-1,154
 172 127 172 127 167 116 c 0,155,156
 164 101 164 101 161 90.5 c 128,-1,157
 158 80 158 80 152.5 71.5 c 128,-1,158
 147 63 147 63 138 56 c 128,-1,159
 129 49 129 49 115 42 c 0,160,161
 101 34 101 34 100 18 c 128,-1,162
 99 2 99 2 93 -14 c 0,163,164
 85 -25 85 -25 79.5 -28.5 c 128,-1,165
 74 -32 74 -32 69.5 -34.5 c 128,-1,166
 65 -37 65 -37 61 -42 c 128,-1,167
 57 -47 57 -47 53 -61 c 1,168,-1
 -6 -67 l 2,169,170
 -12 -65 -12 -65 -18.5 -54 c 128,-1,171
 -25 -43 -25 -43 -30 -30 c 128,-1,172
 -35 -17 -35 -17 -38 -6 c 128,-1,173
 -41 5 -41 5 -40 7 c 0,0,1
EndSplineSet
EndChar

StartChar: zero
Encoding: 48 48 19
Width: 1050
GlyphClass: 1
Flags: W
LayerCount: 2
Fore
SplineSet
170 180 m 1,0,1
 141 239 141 239 126 276 c 128,-1,2
 111 313 111 313 111 344 c 0,3,4
 111 416 111 416 118.5 476.5 c 128,-1,5
 126 537 126 537 158 586 c 2,6,-1
 227 697 l 2,7,8
 238 711 238 711 264.5 731.5 c 128,-1,9
 291 752 291 752 322 770.5 c 128,-1,10
 353 789 353 789 383 802 c 128,-1,11
 413 815 413 815 431 815 c 1,12,13
 448 810 448 810 459 808 c 128,-1,14
 470 806 470 806 476 806 c 0,15,16
 485 806 485 806 490 809 c 128,-1,17
 495 812 495 812 499 815 c 2,18,-1
 549 815 l 2,19,20
 585 815 585 815 613 806.5 c 128,-1,21
 641 798 641 798 674 772 c 1,22,-1
 738 709 l 1,23,-1
 776 690 l 2,24,25
 796 677 796 677 803.5 659 c 128,-1,26
 811 641 811 641 814.5 621.5 c 128,-1,27
 818 602 818 602 822.5 582.5 c 128,-1,28
 827 563 827 563 840 548 c 0,29,30
 851 533 851 533 859 526.5 c 128,-1,31
 867 520 867 520 873.5 514 c 128,-1,32
 880 508 880 508 884.5 499 c 128,-1,33
 889 490 889 490 893 471 c 0,34,35
 894 463 894 463 894.5 448.5 c 128,-1,36
 895 434 895 434 896 416.5 c 128,-1,37
 897 399 897 399 897.5 381.5 c 128,-1,38
 898 364 898 364 898 349 c 0,39,40
 898 341 898 341 893.5 324.5 c 128,-1,41
 889 308 889 308 883 291 c 128,-1,42
 877 274 877 274 872 260.5 c 128,-1,43
 867 247 867 247 866 246 c 0,44,45
 863 235 863 235 853.5 215 c 128,-1,46
 844 195 844 195 833.5 174.5 c 128,-1,47
 823 154 823 154 812.5 136 c 128,-1,48
 802 118 802 118 796 111 c 0,49,50
 772 100 772 100 758.5 88 c 128,-1,51
 745 76 745 76 735 64.5 c 128,-1,52
 725 53 725 53 715.5 43 c 128,-1,53
 706 33 706 33 691 28 c 0,54,55
 677 20 677 20 662 15.5 c 128,-1,56
 647 11 647 11 631 7.5 c 128,-1,57
 615 4 615 4 599 0.5 c 128,-1,58
 583 -3 583 -3 568 -9 c 1,59,-1
 518 -9 l 2,60,61
 449 -9 449 -9 403 4 c 128,-1,62
 357 17 357 17 320.5 41.5 c 128,-1,63
 284 66 284 66 250 101 c 128,-1,64
 216 136 216 136 170 180 c 1,0,1
194 415 m 0,65,66
 194 393 194 393 205 357 c 128,-1,67
 216 321 216 321 233.5 283.5 c 128,-1,68
 251 246 251 246 272.5 213.5 c 128,-1,69
 294 181 294 181 314 166 c 0,70,71
 337 150 337 150 371.5 136.5 c 128,-1,72
 406 123 406 123 442.5 113 c 128,-1,73
 479 103 479 103 515 97.5 c 128,-1,74
 551 92 551 92 577 92 c 0,75,76
 584 92 584 92 588.5 95 c 128,-1,77
 593 98 593 98 597 102 c 128,-1,78
 601 106 601 106 605.5 110 c 128,-1,79
 610 114 610 114 616 116 c 0,80,81
 631 122 631 122 640 125.5 c 128,-1,82
 649 129 649 129 656 132.5 c 128,-1,83
 663 136 663 136 670 142.5 c 128,-1,84
 677 149 677 149 686 161 c 0,85,86
 695 176 695 176 707 186 c 128,-1,87
 719 196 719 196 730 205.5 c 128,-1,88
 741 215 741 215 750.5 226.5 c 128,-1,89
 760 238 760 238 764 256 c 0,90,91
 764 259 764 259 765 266 c 128,-1,92
 766 273 766 273 767 279.5 c 128,-1,93
 768 286 768 286 769 291.5 c 128,-1,94
 770 297 770 297 770 298 c 0,95,96
 773 311 773 311 776.5 320.5 c 128,-1,97
 780 330 780 330 783 339 c 128,-1,98
 786 348 786 348 788.5 358.5 c 128,-1,99
 791 369 791 369 791 384 c 0,100,101
 791 416 791 416 785 442.5 c 128,-1,102
 779 469 779 469 750 490 c 1,103,104
 746 503 746 503 745.5 509 c 128,-1,105
 745 515 745 515 745 519 c 0,106,107
 745 535 745 535 740.5 546.5 c 128,-1,108
 736 558 736 558 728.5 568 c 128,-1,109
 721 578 721 578 711.5 588 c 128,-1,110
 702 598 702 598 691 612 c 0,111,112
 668 645 668 645 649 659 c 128,-1,113
 630 673 630 673 611.5 679.5 c 128,-1,114
 593 686 593 686 572.5 691.5 c 128,-1,115
 552 697 552 697 525 714 c 1,116,-1
 430 714 l 2,117,118
 429 714 429 714 421.5 711 c 128,-1,119
 414 708 414 708 403.5 703 c 128,-1,120
 393 698 393 698 382 692.5 c 128,-1,121
 371 687 371 687 364 682 c 0,122,123
 335 667 335 667 305 635 c 128,-1,124
 275 603 275 603 250.5 564.5 c 128,-1,125
 226 526 226 526 210 486 c 128,-1,126
 194 446 194 446 194 415 c 0,65,66
EndSplineSet
EndChar

StartChar: one
Encoding: 49 49 20
Width: 739
GlyphClass: 1
Flags: W
LayerCount: 2
Fore
SplineSet
81 36 m 1,0,1
 81 56 81 56 92 68 c 128,-1,2
 103 80 103 80 120.5 86 c 128,-1,3
 138 92 138 92 159.5 95 c 128,-1,4
 181 98 181 98 201 101 c 128,-1,5
 221 104 221 104 237 109.5 c 128,-1,6
 253 115 253 115 261 126 c 0,7,8
 264 133 264 133 268.5 145 c 128,-1,9
 273 157 273 157 277 169.5 c 128,-1,10
 281 182 281 182 284 194 c 128,-1,11
 287 206 287 206 287 213 c 2,12,-1
 261 344 l 2,13,14
 261 351 261 351 264.5 365.5 c 128,-1,15
 268 380 268 380 271.5 396 c 128,-1,16
 275 412 275 412 278.5 425 c 128,-1,17
 282 438 282 438 282 441 c 2,18,-1
 261 625 l 2,19,20
 261 635 261 635 264.5 643.5 c 128,-1,21
 268 652 268 652 273 663 c 1,22,23
 251 686 251 686 228.5 701 c 128,-1,24
 206 716 206 716 183 727 c 0,25,26
 168 732 168 732 148 735.5 c 128,-1,27
 128 739 128 739 110 745 c 128,-1,28
 92 751 92 751 79.5 762.5 c 128,-1,29
 67 774 67 774 67 794 c 0,30,31
 67 806 67 806 74.5 813 c 128,-1,32
 82 820 82 820 92.5 823.5 c 128,-1,33
 103 827 103 827 114 828 c 128,-1,34
 125 829 125 829 133 829 c 2,35,-1
 239 822 l 2,36,37
 252 822 252 822 259 823 c 128,-1,38
 266 824 266 824 282 829 c 1,39,40
 304 826 304 826 324 824 c 128,-1,41
 344 822 344 822 365 822 c 0,42,43
 382 822 382 822 400.5 823 c 128,-1,44
 419 824 419 824 439 829 c 1,45,46
 447 836 447 836 464 841 c 128,-1,47
 481 846 481 846 500.5 849 c 128,-1,48
 520 852 520 852 539.5 853.5 c 128,-1,49
 559 855 559 855 571 855 c 0,50,51
 578 855 578 855 590.5 854 c 128,-1,52
 603 853 603 853 614 849.5 c 128,-1,53
 625 846 625 846 633.5 839 c 128,-1,54
 642 832 642 832 642 820 c 0,55,56
 642 795 642 795 625.5 780 c 128,-1,57
 609 765 609 765 586 756 c 128,-1,58
 563 747 563 747 538.5 742 c 128,-1,59
 514 737 514 737 498 732 c 0,60,61
 491 729 491 729 484.5 721 c 128,-1,62
 478 713 478 713 472 703 c 128,-1,63
 466 693 466 693 461.5 682.5 c 128,-1,64
 457 672 457 672 453 664 c 2,65,-1
 439 476 l 1,66,-1
 456 334 l 1,67,-1
 439 308 l 2,68,69
 439 306 439 306 442.5 296.5 c 128,-1,70
 446 287 446 287 448 285 c 2,71,-1
 448 284 l 2,72,73
 448 272 448 272 443.5 260 c 128,-1,74
 439 248 439 248 439 234 c 0,75,76
 439 210 439 210 448 192.5 c 128,-1,77
 457 175 457 175 462 152 c 0,78,79
 465 152 465 152 473 150.5 c 128,-1,80
 481 149 481 149 491 147.5 c 128,-1,81
 501 146 501 146 511 144.5 c 128,-1,82
 521 143 521 143 526 142 c 0,83,84
 533 138 533 138 552 127.5 c 128,-1,85
 571 117 571 117 591 104.5 c 128,-1,86
 611 92 611 92 626.5 78 c 128,-1,87
 642 64 642 64 642 52 c 2,88,-1
 642 50 l 2,89,90
 640 39 640 39 632.5 29 c 128,-1,91
 625 19 625 19 614 9 c 1,92,-1
 472 3 l 2,93,94
 470 5 470 5 464 7 c 128,-1,95
 458 9 458 9 456 9 c 0,96,97
 451 10 451 10 444.5 10 c 128,-1,98
 438 10 438 10 429 10 c 2,99,-1
 384 10 l 2,100,101
 336 10 336 10 285.5 8.5 c 128,-1,102
 235 7 235 7 190 0 c 1,103,-1
 171 -10 l 1,104,105
 140 -10 140 -10 116.5 4 c 128,-1,106
 93 18 93 18 81 36 c 1,0,1
EndSplineSet
EndChar

StartChar: two
Encoding: 50 50 21
Width: 940
GlyphClass: 1
Flags: W
LayerCount: 2
Fore
SplineSet
61 12 m 2,0,1
 63 17 63 17 69.5 32.5 c 128,-1,2
 76 48 76 48 80 59 c 0,3,4
 84 65 84 65 96 72 c 128,-1,5
 108 79 108 79 121.5 86 c 128,-1,6
 135 93 135 93 148 99.5 c 128,-1,7
 161 106 161 106 167 111 c 0,8,9
 184 124 184 124 202.5 134.5 c 128,-1,10
 221 145 221 145 240 156 c 128,-1,11
 259 167 259 167 277.5 179 c 128,-1,12
 296 191 296 191 312 206 c 0,13,14
 343 233 343 233 376.5 272 c 128,-1,15
 410 311 410 311 438 355.5 c 128,-1,16
 466 400 466 400 484 447 c 128,-1,17
 502 494 502 494 502 538 c 0,18,19
 502 559 502 559 492.5 579 c 128,-1,20
 483 599 483 599 466.5 614.5 c 128,-1,21
 450 630 450 630 428.5 640 c 128,-1,22
 407 650 407 650 383 650 c 1,23,-1
 345 637 l 1,24,-1
 307 637 l 2,25,26
 298 637 298 637 288 635.5 c 128,-1,27
 278 634 278 634 269 623 c 0,28,29
 253 612 253 612 241.5 593.5 c 128,-1,30
 230 575 230 575 217.5 558 c 128,-1,31
 205 541 205 541 190 528.5 c 128,-1,32
 175 516 175 516 153 516 c 0,33,34
 142 516 142 516 131 517.5 c 128,-1,35
 120 519 120 519 113 528 c 1,36,-1
 113 557 l 2,37,38
 113 584 113 584 117.5 597 c 128,-1,39
 122 610 122 610 130 618 c 128,-1,40
 138 626 138 626 149 633.5 c 128,-1,41
 160 641 160 641 172 659 c 2,42,-1
 186 676 l 2,43,44
 198 691 198 691 209.5 705.5 c 128,-1,45
 221 720 221 720 234.5 733 c 128,-1,46
 248 746 248 746 264 756 c 128,-1,47
 280 766 280 766 300 772 c 2,48,-1
 376 782 l 1,49,-1
 425 792 l 1,50,51
 449 792 449 792 481.5 788 c 128,-1,52
 514 784 514 784 547.5 775 c 128,-1,53
 581 766 581 766 611 751 c 128,-1,54
 641 736 641 736 660 714 c 0,55,56
 667 705 667 705 671.5 694 c 128,-1,57
 676 683 676 683 681 682 c 2,58,-1
 712 631 l 1,59,-1
 712 516 l 2,60,61
 712 497 712 497 698.5 481.5 c 128,-1,62
 685 466 685 466 674 452 c 0,63,64
 673 451 673 451 672 448 c 128,-1,65
 671 445 671 445 668 437 c 128,-1,66
 665 429 665 429 660 415 c 128,-1,67
 655 401 655 401 646 379 c 0,68,69
 645 377 645 377 644 376 c 0,70,71
 642 374 642 374 641 374 c 0,72,73
 630 367 630 367 625 359 c 128,-1,74
 620 351 620 351 616 342.5 c 128,-1,75
 612 334 612 334 608 325.5 c 128,-1,76
 604 317 604 317 596 310 c 0,77,78
 585 301 585 301 575 296.5 c 128,-1,79
 565 292 565 292 554.5 289.5 c 128,-1,80
 544 287 544 287 533.5 285 c 128,-1,81
 523 283 523 283 513 277 c 0,82,83
 511 277 511 277 504.5 271.5 c 128,-1,84
 498 266 498 266 490.5 259 c 128,-1,85
 483 252 483 252 476.5 246 c 128,-1,86
 470 240 470 240 468 239 c 0,87,88
 466 239 466 239 458.5 234 c 128,-1,89
 451 229 451 229 442 222 c 128,-1,90
 433 215 433 215 425 209 c 128,-1,91
 417 203 417 203 416 202 c 0,92,93
 411 198 411 198 402 189 c 128,-1,94
 393 180 393 180 384.5 170 c 128,-1,95
 376 160 376 160 370 150 c 128,-1,96
 364 140 364 140 364 135 c 256,97,98
 364 130 364 130 369 130 c 2,99,-1
 402 130 l 2,100,101
 428 130 428 130 449.5 127.5 c 128,-1,102
 471 125 471 125 492 116 c 1,103,-1
 542 116 l 2,104,105
 596 116 596 116 650 124 c 128,-1,106
 704 132 704 132 752 154 c 0,107,108
 761 159 761 159 762 166 c 128,-1,109
 763 173 763 173 767 180 c 0,110,111
 780 197 780 197 801.5 210 c 128,-1,112
 823 223 823 223 843 234 c 1,113,-1
 859 183 l 1,114,115
 859 166 859 166 851.5 148.5 c 128,-1,116
 844 131 844 131 833 111 c 0,117,118
 830 104 830 104 827 86 c 128,-1,119
 824 68 824 68 818 49 c 128,-1,120
 812 30 812 30 802 15 c 128,-1,121
 792 0 792 0 776 0 c 2,122,-1
 759 -2 l 2,123,124
 720 -7 720 -7 682 -13 c 128,-1,125
 644 -19 644 -19 606 -19 c 0,126,127
 594 -19 594 -19 583 -15 c 128,-1,128
 572 -11 572 -11 560.5 -6 c 128,-1,129
 549 -1 549 -1 538 3 c 128,-1,130
 527 7 527 7 516 7 c 0,131,132
 496 7 496 7 470.5 4 c 128,-1,133
 445 1 445 1 428 -3 c 0,134,135
 424 -3 424 -3 415.5 -8.5 c 128,-1,136
 407 -14 407 -14 402 -19 c 1,137,-1
 310 7 l 2,138,139
 299 7 299 7 287.5 0 c 128,-1,140
 276 -7 276 -7 262 -9 c 0,141,142
 243 -11 243 -11 226.5 -12.5 c 128,-1,143
 210 -14 210 -14 192.5 -15.5 c 128,-1,144
 175 -17 175 -17 156.5 -18 c 128,-1,145
 138 -19 138 -19 115 -19 c 0,146,147
 106 -19 106 -19 96.5 -18 c 128,-1,148
 87 -17 87 -17 79 -14 c 128,-1,149
 71 -11 71 -11 66 -5.5 c 128,-1,150
 61 0 61 0 61 9 c 2,151,-1
 61 12 l 2,0,1
EndSplineSet
EndChar

StartChar: three
Encoding: 51 51 22
Width: 766
GlyphClass: 1
Flags: W
LayerCount: 2
Fore
SplineSet
25 -337 m 0,0,1
 25 -318 25 -318 27 -306.5 c 128,-1,2
 29 -295 29 -295 35 -288.5 c 128,-1,3
 41 -282 41 -282 52.5 -278.5 c 128,-1,4
 64 -275 64 -275 84 -270 c 0,5,6
 93 -266 93 -266 109 -259.5 c 128,-1,7
 125 -253 125 -253 134 -253 c 0,8,9
 150 -253 150 -253 163.5 -260.5 c 128,-1,10
 177 -268 177 -268 191 -277 c 128,-1,11
 205 -286 205 -286 219.5 -293.5 c 128,-1,12
 234 -301 234 -301 252 -301 c 0,13,14
 276 -301 276 -301 298.5 -292.5 c 128,-1,15
 321 -284 321 -284 340.5 -269.5 c 128,-1,16
 360 -255 360 -255 376 -236 c 128,-1,17
 392 -217 392 -217 403 -197 c 0,18,19
 404 -193 404 -193 406 -181 c 128,-1,20
 408 -169 408 -169 408 -164 c 0,21,22
 412 -160 412 -160 417.5 -157.5 c 128,-1,23
 423 -155 423 -155 428 -152 c 128,-1,24
 433 -149 433 -149 437 -144.5 c 128,-1,25
 441 -140 441 -140 441 -131 c 2,26,-1
 441 -31 l 2,27,28
 441 -25 441 -25 436.5 -16 c 128,-1,29
 432 -7 432 -7 426.5 2 c 128,-1,30
 421 11 421 11 415.5 17.5 c 128,-1,31
 410 24 410 24 408 26 c 0,32,33
 392 48 392 48 374.5 64.5 c 128,-1,34
 357 81 357 81 337.5 95.5 c 128,-1,35
 318 110 318 110 297.5 123.5 c 128,-1,36
 277 137 277 137 255 152 c 0,37,38
 255 154 255 154 251.5 158.5 c 128,-1,39
 248 163 248 163 243.5 168 c 128,-1,40
 239 173 239 173 235 176.5 c 128,-1,41
 231 180 231 180 228 180 c 0,42,43
 217 180 217 180 204.5 175.5 c 128,-1,44
 192 171 192 171 180 166 c 128,-1,45
 168 161 168 161 156 156.5 c 128,-1,46
 144 152 144 152 134 152 c 0,47,48
 123 152 123 152 111.5 166 c 128,-1,49
 100 180 100 180 100 192 c 0,50,51
 100 213 100 213 117 227.5 c 128,-1,52
 134 242 134 242 156.5 252.5 c 128,-1,53
 179 263 179 263 202 270 c 128,-1,54
 225 277 225 277 238 282 c 0,55,56
 239 283 239 283 243 287.5 c 128,-1,57
 247 292 247 292 252 297.5 c 128,-1,58
 257 303 257 303 261.5 307.5 c 128,-1,59
 266 312 266 312 269 313 c 0,60,61
 290 331 290 331 313.5 342.5 c 128,-1,62
 337 354 337 354 351 377 c 2,63,-1
 363 394 l 2,64,65
 390 438 390 438 412.5 484 c 128,-1,66
 435 530 435 530 435 580 c 0,67,68
 435 582 435 582 429 589 c 128,-1,69
 423 596 423 596 414.5 605 c 128,-1,70
 406 614 406 614 397 624.5 c 128,-1,71
 388 635 388 635 382 644 c 0,72,73
 373 659 373 659 354 663.5 c 128,-1,74
 335 668 335 668 319 668 c 1,75,76
 283 656 283 656 257.5 649 c 128,-1,77
 232 642 232 642 200 642 c 2,78,-1
 153 644 l 2,79,80
 138 645 138 645 132.5 659.5 c 128,-1,81
 127 674 127 674 127 685 c 0,82,83
 127 707 127 707 133 713 c 2,84,-1
 159 727 l 2,85,86
 179 738 179 738 191.5 754 c 128,-1,87
 204 770 204 770 223 785 c 0,88,89
 258 809 258 809 306 821.5 c 128,-1,90
 354 834 354 834 399 834 c 0,91,92
 420 834 420 834 436.5 825.5 c 128,-1,93
 453 817 453 817 473 806 c 0,94,95
 508 793 508 793 530 780.5 c 128,-1,96
 552 768 552 768 566 751 c 128,-1,97
 580 734 580 734 588.5 711 c 128,-1,98
 597 688 597 688 605 654 c 0,99,100
 607 643 607 643 611 632.5 c 128,-1,101
 615 622 615 622 615 611 c 0,102,103
 615 589 615 589 607.5 561.5 c 128,-1,104
 600 534 600 534 588 506 c 128,-1,105
 576 478 576 478 561 453 c 128,-1,106
 546 428 546 428 531 410 c 0,107,108
 524 400 524 400 515 395 c 128,-1,109
 506 390 506 390 496.5 386.5 c 128,-1,110
 487 383 487 383 478 379 c 128,-1,111
 469 375 469 375 461 367 c 0,112,113
 446 351 446 351 441.5 336 c 128,-1,114
 437 321 437 321 425 308 c 1,115,116
 413 304 413 304 408.5 297.5 c 128,-1,117
 404 291 404 291 404 280 c 0,118,119
 404 276 404 276 405 275.5 c 128,-1,120
 406 275 406 275 406 273 c 0,121,122
 412 260 412 260 430.5 244 c 128,-1,123
 449 228 449 228 470.5 211 c 128,-1,124
 492 194 492 194 512 178.5 c 128,-1,125
 532 163 532 163 541 152 c 1,126,127
 544 123 544 123 553 103.5 c 128,-1,128
 562 84 562 84 571.5 66 c 128,-1,129
 581 48 581 48 588.5 27.5 c 128,-1,130
 596 7 596 7 596 -26 c 0,131,132
 596 -37 596 -37 594 -58 c 128,-1,133
 592 -79 592 -79 589 -102 c 128,-1,134
 586 -125 586 -125 581.5 -145 c 128,-1,135
 577 -165 577 -165 572 -173 c 2,136,-1
 546 -206 l 2,137,138
 540 -213 540 -213 535.5 -223 c 128,-1,139
 531 -233 531 -233 526.5 -243 c 128,-1,140
 522 -253 522 -253 517 -263 c 128,-1,141
 512 -273 512 -273 505 -280 c 0,142,143
 479 -308 479 -308 432.5 -341 c 128,-1,144
 386 -374 386 -374 333 -402 c 128,-1,145
 280 -430 280 -430 227.5 -448.5 c 128,-1,146
 175 -467 175 -467 136 -467 c 0,147,148
 119 -467 119 -467 107.5 -454 c 128,-1,149
 96 -441 96 -441 84 -427 c 1,150,151
 70 -419 70 -419 59.5 -411 c 128,-1,152
 49 -403 49 -403 41 -393 c 128,-1,153
 33 -383 33 -383 29 -370 c 128,-1,154
 25 -357 25 -357 25 -337 c 0,0,1
EndSplineSet
EndChar

StartChar: four
Encoding: 52 52 23
Width: 986
GlyphClass: 1
Flags: W
LayerCount: 2
Fore
SplineSet
421 -310 m 1,0,-1
 440 -256 l 1,1,-1
 433 -194 l 2,2,3
 433 -173 433 -173 437.5 -155.5 c 128,-1,4
 442 -138 442 -138 447 -118 c 0,5,6
 452 -97 452 -97 455.5 -77 c 128,-1,7
 459 -57 459 -57 459 -36 c 0,8,9
 459 -27 459 -27 448.5 -16.5 c 128,-1,10
 438 -6 438 -6 433 -2 c 2,11,-1
 319 3 l 2,12,13
 305 3 305 3 286 2 c 128,-1,14
 267 1 267 1 246 -3 c 0,15,16
 223 -8 223 -8 204 -11 c 128,-1,17
 185 -14 185 -14 165 -14 c 1,18,-1
 127 -5 l 2,19,20
 124 -5 124 -5 118.5 -7.5 c 128,-1,21
 113 -10 113 -10 103 -14 c 0,22,23
 94 -14 94 -14 89.5 -11 c 128,-1,24
 85 -8 85 -8 80.5 -4.5 c 128,-1,25
 76 -1 76 -1 70 2 c 128,-1,26
 64 5 64 5 52 5 c 0,27,28
 46 5 46 5 42 5 c 128,-1,29
 38 5 38 5 33 3 c 1,30,31
 27 19 27 19 25 30 c 128,-1,32
 23 41 23 41 23 57 c 0,33,34
 23 78 23 78 25 89 c 128,-1,35
 27 100 27 100 33 114 c 0,36,37
 79 177 79 177 119 240.5 c 128,-1,38
 159 304 159 304 198 370 c 2,39,-1
 220 408 l 2,40,41
 225 415 225 415 231 417.5 c 128,-1,42
 237 420 237 420 243 422.5 c 128,-1,43
 249 425 249 425 255 428 c 128,-1,44
 261 431 261 431 267 439 c 0,45,46
 269 444 269 444 270.5 453.5 c 128,-1,47
 272 463 272 463 272 467 c 0,48,49
 274 469 274 469 280 474.5 c 128,-1,50
 286 480 286 480 292.5 486.5 c 128,-1,51
 299 493 299 493 304 499.5 c 128,-1,52
 309 506 309 506 310 509 c 2,53,-1
 324 545 l 1,54,-1
 343 562 l 2,55,56
 345 566 345 566 351 577.5 c 128,-1,57
 357 589 357 589 364.5 601.5 c 128,-1,58
 372 614 372 614 379 625.5 c 128,-1,59
 386 637 386 637 390 642 c 0,60,61
 390 644 390 644 391.5 652.5 c 128,-1,62
 393 661 393 661 395 661 c 2,63,-1
 449 716 l 2,64,65
 449 721 449 721 450.5 724.5 c 128,-1,66
 452 728 452 728 454 732 c 0,67,68
 454 733 454 733 455.5 737.5 c 128,-1,69
 457 742 457 742 458.5 747.5 c 128,-1,70
 460 753 460 753 461.5 757.5 c 128,-1,71
 463 762 463 762 464 763 c 2,72,-1
 495 796 l 2,73,74
 508 812 508 812 516.5 825 c 128,-1,75
 525 838 525 838 534 847 c 128,-1,76
 543 856 543 856 556 860.5 c 128,-1,77
 569 865 569 865 592 865 c 0,78,79
 609 865 609 865 619 841 c 128,-1,80
 629 817 629 817 634 786 c 128,-1,81
 639 755 639 755 640.5 725 c 128,-1,82
 642 695 642 695 642 682 c 2,83,-1
 641 635 l 1,84,85
 627 619 627 619 625 607 c 128,-1,86
 623 595 623 595 623 578 c 256,87,88
 623 561 623 561 628.5 552 c 128,-1,89
 634 543 634 543 634 528 c 2,90,-1
 625 457 l 1,91,-1
 625 439 l 1,92,-1
 634 408 l 1,93,-1
 620 228 l 2,94,95
 620 214 620 214 623 200 c 128,-1,96
 626 186 626 186 646 183 c 0,97,98
 663 181 663 181 679.5 180.5 c 128,-1,99
 696 180 696 180 713 180 c 256,100,101
 730 180 730 180 748 180.5 c 128,-1,102
 766 181 766 181 784 183 c 1,103,104
 800 197 800 197 815.5 199 c 128,-1,105
 831 201 831 201 852 201 c 0,106,107
 862 201 862 201 881.5 194.5 c 128,-1,108
 901 188 901 188 920.5 177.5 c 128,-1,109
 940 167 940 167 954.5 153.5 c 128,-1,110
 969 140 969 140 969 126 c 0,111,112
 969 101 969 101 963.5 77 c 128,-1,113
 958 53 958 53 946 34.5 c 128,-1,114
 934 16 934 16 914 4.5 c 128,-1,115
 894 -7 894 -7 865 -7 c 0,116,117
 854 -7 854 -7 844 -4.5 c 128,-1,118
 834 -2 834 -2 823.5 1 c 128,-1,119
 813 4 813 4 800.5 6.5 c 128,-1,120
 788 9 788 9 772 9 c 0,121,122
 761 7 761 7 749 6 c 128,-1,123
 737 5 737 5 724 5 c 0,124,125
 705 5 705 5 686.5 3 c 128,-1,126
 668 1 668 1 653 -6.5 c 128,-1,127
 638 -14 638 -14 629 -28 c 128,-1,128
 620 -42 620 -42 620 -66 c 0,129,130
 618 -70 618 -70 618 -77 c 128,-1,131
 618 -84 618 -84 618 -92 c 2,132,-1
 618 -173 l 2,133,134
 618 -182 618 -182 618 -189.5 c 128,-1,135
 618 -197 618 -197 620 -202 c 1,136,137
 613 -215 613 -215 613 -232 c 0,138,139
 613 -245 613 -245 619.5 -250.5 c 128,-1,140
 626 -256 626 -256 630 -272 c 0,141,142
 633 -290 633 -290 634 -307 c 128,-1,143
 635 -324 635 -324 635 -341 c 0,144,145
 635 -359 635 -359 634 -376 c 128,-1,146
 633 -393 633 -393 630 -408 c 0,147,148
 630 -417 630 -417 620.5 -429 c 128,-1,149
 611 -441 611 -441 598.5 -452 c 128,-1,150
 586 -463 586 -463 573.5 -471 c 128,-1,151
 561 -479 561 -479 556 -479 c 0,152,153
 547 -479 547 -479 538 -469.5 c 128,-1,154
 529 -460 529 -460 518 -458 c 0,155,156
 485 -451 485 -451 470.5 -443.5 c 128,-1,157
 456 -436 456 -436 450.5 -424 c 128,-1,158
 445 -412 445 -412 443 -394.5 c 128,-1,159
 441 -377 441 -377 433 -348 c 2,160,-1
 421 -310 l 1,0,-1
213 190 m 0,161,162
 213 178 213 178 222 171 c 128,-1,163
 231 164 231 164 244.5 161 c 128,-1,164
 258 158 258 158 273.5 157.5 c 128,-1,165
 289 157 289 157 303 157 c 0,166,167
 315 157 315 157 345.5 160 c 128,-1,168
 376 163 376 163 408 169.5 c 128,-1,169
 440 176 440 176 465 185.5 c 128,-1,170
 490 195 490 195 490 209 c 0,171,172
 490 221 490 221 488.5 241 c 128,-1,173
 487 261 487 261 485 280.5 c 128,-1,174
 483 300 483 300 481.5 315 c 128,-1,175
 480 330 480 330 480 332 c 2,176,-1
 471 349 l 2,177,178
 469 357 469 357 469 367.5 c 128,-1,179
 469 378 469 378 469 391 c 0,180,181
 469 409 469 409 466.5 428.5 c 128,-1,182
 464 448 464 448 457 463.5 c 128,-1,183
 450 479 450 479 438 489.5 c 128,-1,184
 426 500 426 500 407 500 c 0,185,186
 389 500 389 500 372.5 485.5 c 128,-1,187
 356 471 356 471 341 450.5 c 128,-1,188
 326 430 326 430 313.5 409 c 128,-1,189
 301 388 301 388 293 375 c 2,190,-1
 227 242 l 2,191,192
 218 224 218 224 215.5 215 c 128,-1,193
 213 206 213 206 213 190 c 0,161,162
EndSplineSet
EndChar

StartChar: five
Encoding: 53 53 24
Width: 747
GlyphClass: 1
Flags: W
LayerCount: 2
Fore
SplineSet
103 -375 m 0,0,1
 103 -349 103 -349 119 -321 c 128,-1,2
 135 -293 135 -293 162 -282 c 1,3,4
 204 -244 204 -244 239.5 -206.5 c 128,-1,5
 275 -169 275 -169 295 -130 c 0,6,7
 299 -123 299 -123 301.5 -114 c 128,-1,8
 304 -105 304 -105 304 -93 c 0,9,10
 304 -84 304 -84 305.5 -75.5 c 128,-1,11
 307 -67 307 -67 309 -61 c 2,12,-1
 328 -10 l 2,13,14
 328 -1 328 -1 329 2 c 128,-1,15
 330 5 330 5 330 10 c 256,16,17
 330 15 330 15 332.5 18.5 c 128,-1,18
 335 22 335 22 338.5 26 c 128,-1,19
 342 30 342 30 344.5 36.5 c 128,-1,20
 347 43 347 43 347 55 c 2,21,-1
 342 97 l 1,22,-1
 352 151 l 2,23,24
 352 158 352 158 343 174 c 128,-1,25
 334 190 334 190 321.5 208 c 128,-1,26
 309 226 309 226 295.5 243.5 c 128,-1,27
 282 261 282 261 273 272 c 0,28,29
 271 273 271 273 269.5 275.5 c 128,-1,30
 268 278 268 278 266 280 c 2,31,-1
 264 284 l 2,32,33
 259 291 259 291 244 302.5 c 128,-1,34
 229 314 229 314 212.5 326.5 c 128,-1,35
 196 339 196 339 182.5 350.5 c 128,-1,36
 169 362 169 362 167 370 c 2,37,-1
 162 401 l 1,38,39
 154 415 154 415 148 425.5 c 128,-1,40
 142 436 142 436 137.5 445.5 c 128,-1,41
 133 455 133 455 131 466.5 c 128,-1,42
 129 478 129 478 129 495 c 0,43,44
 129 508 129 508 129.5 518.5 c 128,-1,45
 130 529 130 529 132 538.5 c 128,-1,46
 134 548 134 548 137 559.5 c 128,-1,47
 140 571 140 571 146 586 c 0,48,49
 145 591 145 591 143 598 c 128,-1,50
 141 605 141 605 141 609 c 0,51,52
 141 632 141 632 146 648.5 c 128,-1,53
 151 665 151 665 159 679 c 128,-1,54
 167 693 167 693 176.5 706 c 128,-1,55
 186 719 186 719 195 735 c 1,56,-1
 195 761 l 1,57,-1
 226 794 l 2,58,59
 242 814 242 814 253.5 827.5 c 128,-1,60
 265 841 265 841 278.5 849 c 128,-1,61
 292 857 292 857 309.5 860 c 128,-1,62
 327 863 327 863 354 863 c 0,63,64
 376 863 376 863 399.5 859 c 128,-1,65
 423 855 423 855 447 849.5 c 128,-1,66
 471 844 471 844 494.5 840 c 128,-1,67
 518 836 518 836 539 836 c 0,68,69
 564 836 564 836 585.5 848.5 c 128,-1,70
 607 861 607 861 625 876.5 c 128,-1,71
 643 892 643 892 657.5 904.5 c 128,-1,72
 672 917 672 917 683 917 c 0,73,74
 687 917 687 917 689 913 c 128,-1,75
 691 909 691 909 692 903 c 128,-1,76
 693 897 693 897 693 891 c 128,-1,77
 693 885 693 885 693 881 c 2,78,-1
 693 879 l 1,79,80
 687 853 687 853 682 832 c 0,81,82
 677 814 677 814 672.5 799 c 128,-1,83
 668 784 668 784 665 782 c 0,84,85
 665 777 665 777 661 771 c 128,-1,86
 657 765 657 765 655 761 c 2,87,-1
 636 742 l 2,88,89
 631 732 631 732 628 718 c 128,-1,90
 625 704 625 704 620.5 691 c 128,-1,91
 616 678 616 678 608 668.5 c 128,-1,92
 600 659 600 659 584 659 c 0,93,94
 546 659 546 659 512.5 665.5 c 128,-1,95
 479 672 479 672 447 680.5 c 128,-1,96
 415 689 415 689 382.5 695.5 c 128,-1,97
 350 702 350 702 316 702 c 2,98,-1
 269 702 l 1,99,100
 254 697 254 697 245 678 c 128,-1,101
 236 659 236 659 236 642 c 0,102,103
 236 635 236 635 259.5 609 c 128,-1,104
 283 583 283 583 313 552 c 2,105,-1
 349 516 l 2,106,107
 366 496 366 496 382 474.5 c 128,-1,108
 398 453 398 453 406 439 c 0,109,110
 415 417 415 417 432 398 c 128,-1,111
 449 379 449 379 465 356 c 1,112,-1
 480 317 l 1,113,114
 499 301 499 301 502.5 295.5 c 128,-1,115
 506 290 506 290 506 285 c 0,116,117
 506 268 506 268 508.5 254 c 128,-1,118
 511 240 511 240 522 235 c 1,119,-1
 522 192 l 1,120,-1
 513 95 l 1,121,-1
 522 69 l 2,122,123
 522 61 522 61 521 49 c 128,-1,124
 520 37 520 37 518 24 c 128,-1,125
 516 11 516 11 513.5 -1.5 c 128,-1,126
 511 -14 511 -14 508 -22 c 2,127,-1
 486 -47 l 2,128,129
 481 -55 481 -55 479 -66.5 c 128,-1,130
 477 -78 477 -78 475.5 -90.5 c 128,-1,131
 474 -103 474 -103 471.5 -115.5 c 128,-1,132
 469 -128 469 -128 465 -138 c 0,133,134
 455 -155 455 -155 436 -184 c 128,-1,135
 417 -213 417 -213 392 -246 c 128,-1,136
 367 -279 367 -279 338.5 -313.5 c 128,-1,137
 310 -348 310 -348 281.5 -375.5 c 128,-1,138
 253 -403 253 -403 226 -420.5 c 128,-1,139
 199 -438 199 -438 178 -438 c 0,140,141
 167 -438 167 -438 153.5 -433.5 c 128,-1,142
 140 -429 140 -429 129 -421 c 128,-1,143
 118 -413 118 -413 110.5 -401 c 128,-1,144
 103 -389 103 -389 103 -375 c 0,0,1
EndSplineSet
EndChar

StartChar: six
Encoding: 54 54 25
Width: 873
GlyphClass: 1
Flags: W
LayerCount: 2
Fore
SplineSet
99 337 m 0,0,1
 99 376 99 376 109 416.5 c 128,-1,2
 119 457 119 457 125 493 c 0,3,4
 127 495 127 495 128.5 500 c 128,-1,5
 130 505 130 505 132 510 c 0,6,7
 142 528 142 528 149 548.5 c 128,-1,8
 156 569 156 569 163 590 c 128,-1,9
 170 611 170 611 179 633 c 128,-1,10
 188 655 188 655 203 676 c 0,11,12
 215 697 215 697 228.5 712.5 c 128,-1,13
 242 728 242 728 253 739 c 0,14,15
 269 752 269 752 280.5 764.5 c 128,-1,16
 292 777 292 777 301.5 790.5 c 128,-1,17
 311 804 311 804 320.5 819 c 128,-1,18
 330 834 330 834 343 851 c 1,19,-1
 390 893 l 1,20,-1
 402 920 l 2,21,22
 403 921 403 921 413 928 c 128,-1,23
 423 935 423 935 437 943.5 c 128,-1,24
 451 952 451 952 466.5 961.5 c 128,-1,25
 482 971 482 971 495 977 c 0,26,27
 515 987 515 987 518 990 c 0,28,29
 520 990 520 990 525 991.5 c 128,-1,30
 530 993 530 993 536 995 c 128,-1,31
 542 997 542 997 547.5 999 c 128,-1,32
 553 1001 553 1001 556 1003 c 0,33,34
 566 1013 566 1013 573 1022 c 128,-1,35
 580 1031 580 1031 586.5 1038.5 c 128,-1,36
 593 1046 593 1046 600.5 1053.5 c 128,-1,37
 608 1061 608 1061 620 1069 c 0,38,39
 641 1078 641 1078 666 1088.5 c 128,-1,40
 691 1099 691 1099 712 1111 c 0,41,42
 724 1121 724 1121 732 1130 c 128,-1,43
 740 1139 740 1139 748.5 1145.5 c 128,-1,44
 757 1152 757 1152 767.5 1155.5 c 128,-1,45
 778 1159 778 1159 795 1159 c 0,46,47
 807 1159 807 1159 824 1158 c 128,-1,48
 841 1157 841 1157 856 1152.5 c 128,-1,49
 871 1148 871 1148 881.5 1138 c 128,-1,50
 892 1128 892 1128 892 1111 c 0,51,52
 892 1097 892 1097 887.5 1089 c 128,-1,53
 883 1081 883 1081 875.5 1075.5 c 128,-1,54
 868 1070 868 1070 858 1066 c 128,-1,55
 848 1062 848 1062 838 1057 c 0,56,57
 826 1044 826 1044 818.5 1027.5 c 128,-1,58
 811 1011 811 1011 795 1003 c 0,59,60
 791 1002 791 1002 780 998 c 128,-1,61
 769 994 769 994 760 986 c 2,62,-1
 731 972 l 2,63,64
 714 961 714 961 704.5 947.5 c 128,-1,65
 695 934 695 934 679 920 c 0,66,67
 667 909 667 909 649.5 897 c 128,-1,68
 632 885 632 885 616 871.5 c 128,-1,69
 600 858 600 858 588.5 841.5 c 128,-1,70
 577 825 577 825 577 806 c 1,71,72
 564 797 564 797 549 791.5 c 128,-1,73
 534 786 534 786 519 780 c 128,-1,74
 504 774 504 774 489.5 765 c 128,-1,75
 475 756 475 756 464 739 c 0,76,77
 464 737 464 737 462.5 725.5 c 128,-1,78
 461 714 461 714 459 713 c 2,79,-1
 449 701 l 2,80,81
 449 698 449 698 465.5 693.5 c 128,-1,82
 482 689 482 689 504 683.5 c 128,-1,83
 526 678 526 678 547 673 c 128,-1,84
 568 668 568 668 577 663 c 0,85,86
 598 651 598 651 615 640.5 c 128,-1,87
 632 630 632 630 646.5 618 c 128,-1,88
 661 606 661 606 675 592 c 128,-1,89
 689 578 689 578 705 559 c 0,90,91
 711 554 711 554 720 532 c 128,-1,92
 729 510 729 510 737.5 485 c 128,-1,93
 746 460 746 460 752 438 c 128,-1,94
 758 416 758 416 758 410 c 0,95,96
 757 384 757 384 754 373 c 128,-1,97
 751 362 751 362 751 360 c 0,98,99
 753 348 753 348 754 340 c 128,-1,100
 755 332 755 332 755 325 c 0,101,102
 755 312 755 312 753 306 c 128,-1,103
 751 300 751 300 751 296 c 0,104,105
 751 275 751 275 746.5 257 c 128,-1,106
 742 239 742 239 731 218 c 0,107,108
 710 186 710 186 695.5 159 c 128,-1,109
 681 132 681 132 661 102 c 0,110,111
 660 100 660 100 656.5 98.5 c 128,-1,112
 653 97 653 97 653 95 c 1,113,114
 651 95 651 95 640.5 93.5 c 128,-1,115
 630 92 630 92 625 90 c 0,116,117
 623 88 623 88 618 83 c 128,-1,118
 613 78 613 78 607 72 c 128,-1,119
 601 66 601 66 596 60.5 c 128,-1,120
 591 55 591 55 589 52 c 0,121,122
 584 52 584 52 574 51.5 c 128,-1,123
 564 51 564 51 552.5 50 c 128,-1,124
 541 49 541 49 531 47.5 c 128,-1,125
 521 46 521 46 518 43 c 0,126,127
 507 41 507 41 499.5 35.5 c 128,-1,128
 492 30 492 30 484.5 24.5 c 128,-1,129
 477 19 477 19 469 14.5 c 128,-1,130
 461 10 461 10 449 10 c 0,131,132
 427 10 427 10 409.5 13.5 c 128,-1,133
 392 17 392 17 375.5 23 c 128,-1,134
 359 29 359 29 342.5 36.5 c 128,-1,135
 326 44 326 44 307 52 c 0,136,137
 305 52 305 52 297 54 c 128,-1,138
 289 56 289 56 279.5 58 c 128,-1,139
 270 60 270 60 262 62 c 128,-1,140
 254 64 254 64 253 64 c 0,141,142
 241 66 241 66 227 76.5 c 128,-1,143
 213 87 213 87 200 100.5 c 128,-1,144
 187 114 187 114 176 127 c 128,-1,145
 165 140 165 140 158 147 c 0,146,147
 156 148 156 148 151.5 163 c 128,-1,148
 147 178 147 178 141.5 196.5 c 128,-1,149
 136 215 136 215 131.5 232 c 128,-1,150
 127 249 127 249 125 254 c 0,151,152
 124 258 124 258 121.5 267 c 128,-1,153
 119 276 119 276 116 285.5 c 128,-1,154
 113 295 113 295 110 303 c 128,-1,155
 107 311 107 311 104 313 c 0,156,157
 103 324 103 324 101 326 c 128,-1,158
 99 328 99 328 99 337 c 0,0,1
215 336 m 1,159,-1
 220 311 l 2,160,161
 222 306 222 306 226.5 292.5 c 128,-1,162
 231 279 231 279 237.5 260 c 128,-1,163
 244 241 244 241 253 218.5 c 128,-1,164
 262 196 262 196 274 175 c 0,165,166
 285 152 285 152 305 132.5 c 128,-1,167
 325 113 325 113 348 102 c 0,168,169
 350 100 350 100 360 100 c 2,170,-1
 424 100 l 2,171,172
 436 102 436 102 447 106.5 c 128,-1,173
 458 111 458 111 464 116 c 0,174,175
 466 118 466 118 475 126 c 128,-1,176
 484 134 484 134 494.5 144 c 128,-1,177
 505 154 505 154 513.5 163 c 128,-1,178
 522 172 522 172 523 175 c 0,179,180
 546 194 546 194 560 215 c 128,-1,181
 574 236 574 236 581.5 259.5 c 128,-1,182
 589 283 589 283 591.5 310.5 c 128,-1,183
 594 338 594 338 594 370 c 0,184,185
 594 387 594 387 591 399.5 c 128,-1,186
 588 412 588 412 583 424 c 128,-1,187
 578 436 578 436 572 448.5 c 128,-1,188
 566 461 566 461 561 477 c 1,189,-1
 561 510 l 1,190,191
 550 535 550 535 536.5 544.5 c 128,-1,192
 523 554 523 554 502 562 c 0,193,194
 494 565 494 565 483 573.5 c 128,-1,195
 472 582 472 582 459 592.5 c 128,-1,196
 446 603 446 603 432 611.5 c 128,-1,197
 418 620 418 620 405 623 c 0,198,199
 397 623 397 623 382 621 c 128,-1,200
 367 619 367 619 351.5 615.5 c 128,-1,201
 336 612 336 612 323 605.5 c 128,-1,202
 310 599 310 599 307 590 c 2,203,-1
 241 462 l 1,204,-1
 243 446 l 2,205,206
 243 436 243 436 242.5 423.5 c 128,-1,207
 242 411 242 411 241.5 399.5 c 128,-1,208
 241 388 241 388 239.5 379 c 128,-1,209
 238 370 238 370 236 367 c 0,210,211
 236 365 236 365 232.5 360 c 128,-1,212
 229 355 229 355 225.5 350 c 128,-1,213
 222 345 222 345 218.5 340.5 c 128,-1,214
 215 336 215 336 215 336 c 1,159,-1
EndSplineSet
EndChar

StartChar: seven
Encoding: 55 55 26
Width: 936
GlyphClass: 1
Flags: W
LayerCount: 2
Fore
SplineSet
467 -467 m 1,0,-1
 460 -458 l 1,1,-1
 467 -426 l 1,2,3
 461 -413 461 -413 461 -396 c 0,4,5
 461 -389 461 -389 467 -375 c 1,6,-1
 460 -344 l 1,7,8
 473 -321 473 -321 484 -296.5 c 128,-1,9
 495 -272 495 -272 501 -247 c 2,10,-1
 519 -190 l 2,11,12
 524 -167 524 -167 537.5 -145 c 128,-1,13
 551 -123 551 -123 555 -100 c 0,14,15
 559 -66 559 -66 569 -40 c 128,-1,16
 579 -14 579 -14 588 21 c 0,17,18
 592 32 592 32 593.5 38 c 128,-1,19
 595 44 595 44 595 52 c 0,20,21
 595 57 595 57 593 61 c 128,-1,22
 591 65 591 65 591 74 c 2,23,-1
 595 97 l 1,24,-1
 597 103 l 2,25,26
 599 110 599 110 600 111 c 0,27,28
 603 113 603 113 608 118.5 c 128,-1,29
 613 124 613 124 618.5 130 c 128,-1,30
 624 136 624 136 628 141.5 c 128,-1,31
 632 147 632 147 633 149 c 2,32,-1
 641 180 l 2,33,34
 652 211 652 211 662 246 c 128,-1,35
 672 281 672 281 692 308 c 1,36,-1
 692 334 l 2,37,38
 692 359 692 359 696 382 c 128,-1,39
 700 405 700 405 705 428 c 128,-1,40
 710 451 710 451 715 476 c 128,-1,41
 720 501 720 501 723 531 c 0,42,43
 723 556 723 556 713 572 c 128,-1,44
 703 588 703 588 687.5 596.5 c 128,-1,45
 672 605 672 605 652 608 c 128,-1,46
 632 611 632 611 612 611 c 2,47,-1
 538 611 l 1,48,49
 496 615 496 615 456 619 c 128,-1,50
 416 623 416 623 373 623 c 2,51,-1
 356 623 l 1,52,-1
 344 631 l 1,53,-1
 183 631 l 2,54,55
 170 631 170 631 161 609.5 c 128,-1,56
 152 588 152 588 140 562 c 128,-1,57
 128 536 128 536 110 514.5 c 128,-1,58
 92 493 92 493 62 493 c 0,59,60
 57 493 57 493 57 502 c 2,61,-1
 58 526 l 2,62,63
 58 545 58 545 61 560.5 c 128,-1,64
 64 576 64 576 67.5 589 c 128,-1,65
 71 602 71 602 74.5 613.5 c 128,-1,66
 78 625 78 625 79 637 c 0,67,68
 81 646 81 646 81.5 663.5 c 128,-1,69
 82 681 82 681 84 701 c 128,-1,70
 86 721 86 721 89.5 742 c 128,-1,71
 93 763 93 763 100 779.5 c 128,-1,72
 107 796 107 796 118.5 807 c 128,-1,73
 130 818 130 818 147 818 c 0,74,75
 159 816 159 816 163.5 813 c 128,-1,76
 168 810 168 810 170.5 805.5 c 128,-1,77
 173 801 173 801 175 796 c 128,-1,78
 177 791 177 791 183 785 c 0,79,80
 184 784 184 784 201.5 779.5 c 128,-1,81
 219 775 219 775 240 770.5 c 128,-1,82
 261 766 261 766 280 762.5 c 128,-1,83
 299 759 299 759 304 759 c 256,84,85
 309 759 309 759 313.5 760 c 128,-1,86
 318 761 318 761 323 763 c 256,87,88
 328 765 328 765 332.5 765 c 128,-1,89
 337 765 337 765 344 765 c 0,90,91
 365 765 365 765 385.5 760.5 c 128,-1,92
 406 756 406 756 427 754 c 0,93,94
 463 753 463 753 497 748.5 c 128,-1,95
 531 744 531 744 565 744 c 0,96,97
 585 744 585 744 607 751 c 0,98,99
 616 753 616 753 624.5 753.5 c 128,-1,100
 633 754 633 754 645 754 c 0,101,102
 656 754 656 754 661 752 c 128,-1,103
 666 750 666 750 679 739 c 1,104,-1
 788 739 l 2,105,106
 791 739 791 739 797 735.5 c 128,-1,107
 803 732 803 732 808 727 c 128,-1,108
 813 722 813 722 817 717 c 128,-1,109
 821 712 821 712 821 709 c 0,110,111
 821 673 821 673 810 642 c 128,-1,112
 799 611 799 611 799 583 c 2,113,-1
 807 516 l 1,114,115
 802 493 802 493 798 464.5 c 128,-1,116
 794 436 794 436 787.5 407.5 c 128,-1,117
 781 379 781 379 771 353 c 128,-1,118
 761 327 761 327 743 308 c 1,119,-1
 743 225 l 1,120,121
 732 211 732 211 725 194 c 128,-1,122
 718 177 718 177 704 161 c 0,123,124
 699 154 699 154 692.5 145 c 128,-1,125
 686 136 686 136 686 131 c 2,126,-1
 698 97 l 2,127,128
 698 95 698 95 694 89.5 c 128,-1,129
 690 84 690 84 685.5 78 c 128,-1,130
 681 72 681 72 677 66.5 c 128,-1,131
 673 61 673 61 671 59 c 0,132,133
 663 46 663 46 662 31.5 c 128,-1,134
 661 17 661 17 659.5 3.5 c 128,-1,135
 658 -10 658 -10 653 -22 c 128,-1,136
 648 -34 648 -34 633 -42 c 1,137,-1
 633 -59 l 2,138,139
 633 -74 633 -74 631 -93 c 128,-1,140
 629 -112 629 -112 626 -130.5 c 128,-1,141
 623 -149 623 -149 620 -166.5 c 128,-1,142
 617 -184 617 -184 614 -197 c 0,143,144
 614 -204 614 -204 609 -209 c 0,145,146
 598 -229 598 -229 593 -247.5 c 128,-1,147
 588 -266 588 -266 586.5 -285 c 128,-1,148
 585 -304 585 -304 585 -324 c 128,-1,149
 585 -344 585 -344 583 -365 c 0,150,151
 578 -383 578 -383 566.5 -396.5 c 128,-1,152
 555 -410 555 -410 550 -427 c 2,153,-1
 545 -445 l 2,154,155
 537 -465 537 -465 527.5 -473 c 128,-1,156
 518 -481 518 -481 486 -481 c 0,157,158
 471 -481 471 -481 467 -467 c 1,0,-1
EndSplineSet
EndChar

StartChar: eight
Encoding: 56 56 27
Width: 832
GlyphClass: 1
Flags: W
LayerCount: 2
Fore
SplineSet
482 644 m 1,0,1
 496 623 496 623 511 608 c 128,-1,2
 526 593 526 593 541 579.5 c 128,-1,3
 556 566 556 566 571.5 552.5 c 128,-1,4
 587 539 587 539 603 521 c 1,5,-1
 622 490 l 1,6,-1
 647 469 l 1,7,8
 654 457 654 457 662.5 430.5 c 128,-1,9
 671 404 671 404 678.5 374 c 128,-1,10
 686 344 686 344 690.5 317 c 128,-1,11
 695 290 695 290 695 277 c 0,12,13
 695 261 695 261 694 240 c 128,-1,14
 693 219 693 219 689.5 197 c 128,-1,15
 686 175 686 175 679 155.5 c 128,-1,16
 672 136 672 136 660 123 c 0,17,18
 631 90 631 90 603.5 65.5 c 128,-1,19
 576 41 576 41 545 24.5 c 128,-1,20
 514 8 514 8 477.5 -0.5 c 128,-1,21
 441 -9 441 -9 394 -9 c 0,22,23
 324 -9 324 -9 261 18.5 c 128,-1,24
 198 46 198 46 154 102 c 1,25,26
 144 132 144 132 130 162.5 c 128,-1,27
 116 193 116 193 116 225 c 0,28,29
 116 247 116 247 123 269.5 c 128,-1,30
 130 292 130 292 140 313 c 128,-1,31
 150 334 150 334 162 354 c 128,-1,32
 174 374 174 374 185 393 c 0,33,34
 194 411 194 411 198 428.5 c 128,-1,35
 202 446 202 446 218 462 c 0,36,37
 228 474 228 474 242.5 487 c 128,-1,38
 257 500 257 500 270 514 c 128,-1,39
 283 528 283 528 292 544.5 c 128,-1,40
 301 561 301 561 301 580 c 0,41,42
 301 595 301 595 290 612 c 128,-1,43
 279 629 279 629 263 645 c 128,-1,44
 247 661 247 661 228.5 675.5 c 128,-1,45
 210 690 210 690 195 701 c 0,46,47
 190 705 190 705 177.5 732.5 c 128,-1,48
 165 760 165 760 151 792 c 128,-1,49
 137 824 137 824 126.5 853 c 128,-1,50
 116 882 116 882 116 891 c 0,51,52
 116 955 116 955 130.5 1013 c 128,-1,53
 145 1071 145 1071 176.5 1115 c 128,-1,54
 208 1159 208 1159 257.5 1185 c 128,-1,55
 307 1211 307 1211 377 1211 c 0,56,57
 425 1211 425 1211 469 1203 c 128,-1,58
 513 1195 513 1195 558 1175 c 0,59,60
 579 1162 579 1162 598.5 1137.5 c 128,-1,61
 618 1113 618 1113 634 1083.5 c 128,-1,62
 650 1054 650 1054 660.5 1023 c 128,-1,63
 671 992 671 992 674 965 c 0,64,65
 674 938 674 938 661.5 901 c 128,-1,66
 649 864 649 864 631 827.5 c 128,-1,67
 613 791 613 791 591.5 758.5 c 128,-1,68
 570 726 570 726 552 708 c 0,69,70
 548 702 548 702 536.5 694.5 c 128,-1,71
 525 687 525 687 513 679 c 128,-1,72
 501 671 501 671 491.5 662 c 128,-1,73
 482 653 482 653 482 644 c 1,0,1
301 128 m 0,74,75
 321 105 321 105 352 87 c 128,-1,76
 383 69 383 69 417 69 c 0,77,78
 441 69 441 69 462 81.5 c 128,-1,79
 483 94 483 94 498.5 113 c 128,-1,80
 514 132 514 132 523 155.5 c 128,-1,81
 532 179 532 179 532 201 c 0,82,83
 532 215 532 215 526 227.5 c 128,-1,84
 520 240 520 240 520 256 c 0,85,86
 520 261 520 261 527 279 c 0,87,88
 531 285 531 285 534.5 293.5 c 128,-1,89
 538 302 538 302 539 306 c 0,90,91
 539 325 539 325 523.5 356.5 c 128,-1,92
 508 388 508 388 486 417.5 c 128,-1,93
 464 447 464 447 438.5 468.5 c 128,-1,94
 413 490 413 490 394 490 c 0,95,96
 354 490 354 490 331.5 468 c 128,-1,97
 309 446 309 446 297 414 c 128,-1,98
 285 382 285 382 280 346 c 128,-1,99
 275 310 275 310 270 282 c 0,100,101
 268 278 268 278 266 266.5 c 128,-1,102
 264 255 264 255 264 251 c 256,103,104
 264 247 264 247 269.5 234.5 c 128,-1,105
 275 222 275 222 276 218 c 0,106,107
 277 213 277 213 281.5 201 c 128,-1,108
 286 189 286 189 290 174.5 c 128,-1,109
 294 160 294 160 297.5 147 c 128,-1,110
 301 134 301 134 301 128 c 0,74,75
270 958 m 0,111,112
 270 933 270 933 280 893 c 128,-1,113
 290 853 290 853 308.5 814.5 c 128,-1,114
 327 776 327 776 352.5 748.5 c 128,-1,115
 378 721 378 721 408 721 c 0,116,117
 413 721 413 721 423.5 722 c 128,-1,118
 434 723 434 723 446 728 c 0,119,120
 446 730 446 730 446.5 736.5 c 128,-1,121
 447 743 447 743 447.5 749.5 c 128,-1,122
 448 756 448 756 449 762 c 128,-1,123
 450 768 450 768 451 770 c 0,124,125
 451 772 451 772 454 776.5 c 128,-1,126
 457 781 457 781 460.5 786.5 c 128,-1,127
 464 792 464 792 468 796.5 c 128,-1,128
 472 801 472 801 475 803 c 0,129,130
 477 807 477 807 484 821.5 c 128,-1,131
 491 836 491 836 493 844 c 0,132,133
 495 848 495 848 500.5 858 c 128,-1,134
 506 868 506 868 511.5 878.5 c 128,-1,135
 517 889 517 889 521.5 897 c 128,-1,136
 526 905 526 905 526 907 c 0,137,138
 526 924 526 924 519 942 c 128,-1,139
 512 960 512 960 508 977 c 0,140,141
 504 998 504 998 501.5 1017.5 c 128,-1,142
 499 1037 499 1037 494 1055 c 128,-1,143
 489 1073 489 1073 480.5 1089 c 128,-1,144
 472 1105 472 1105 456 1119 c 0,145,146
 450 1123 450 1123 440.5 1130 c 128,-1,147
 431 1137 431 1137 422.5 1143 c 128,-1,148
 414 1149 414 1149 407 1153.5 c 128,-1,149
 400 1158 400 1158 398 1159 c 2,150,-1
 375 1159 l 2,151,152
 337 1159 337 1159 315.5 1139 c 128,-1,153
 294 1119 294 1119 284 1088.5 c 128,-1,154
 274 1058 274 1058 272 1023 c 128,-1,155
 270 988 270 988 270 958 c 0,111,112
EndSplineSet
EndChar

StartChar: nine
Encoding: 57 57 28
Width: 897
GlyphClass: 1
Flags: W
LayerCount: 2
Fore
SplineSet
-32 -223 m 1,0,-1
 -18 -204 l 2,1,2
 -18 -201 -18 -201 -17 -194.5 c 128,-1,3
 -16 -188 -16 -188 -15 -180.5 c 128,-1,4
 -14 -173 -14 -173 -13.5 -167 c 128,-1,5
 -13 -161 -13 -161 -13 -159 c 0,6,7
 -9 -148 -9 -148 -4 -143 c 128,-1,8
 1 -138 1 -138 6 -135 c 128,-1,9
 11 -132 11 -132 17 -128 c 128,-1,10
 23 -124 23 -124 30 -116 c 0,11,12
 35 -110 35 -110 36.5 -104 c 128,-1,13
 38 -98 38 -98 39 -92.5 c 128,-1,14
 40 -87 40 -87 42 -82 c 128,-1,15
 44 -77 44 -77 51 -73 c 0,16,17
 78 -64 78 -64 97 -46 c 128,-1,18
 116 -28 116 -28 142 -12 c 2,19,-1
 263 43 l 1,20,21
 275 59 275 59 301 78.5 c 128,-1,22
 327 98 327 98 353 119 c 128,-1,23
 379 140 379 140 399 161.5 c 128,-1,24
 419 183 419 183 419 204 c 0,25,26
 419 206 419 206 396 212.5 c 128,-1,27
 373 219 373 219 343.5 228 c 128,-1,28
 314 237 314 237 286.5 247 c 128,-1,29
 259 257 259 257 250 266 c 0,30,31
 205 301 205 301 174 332 c 128,-1,32
 143 363 143 363 124.5 398 c 128,-1,33
 106 433 106 433 97.5 476.5 c 128,-1,34
 89 520 89 520 89 581 c 0,35,36
 89 616 89 616 102.5 651 c 128,-1,37
 116 686 116 686 137 717.5 c 128,-1,38
 158 749 158 749 185 776 c 128,-1,39
 212 803 212 803 239 823 c 0,40,41
 250 832 250 832 261.5 837.5 c 128,-1,42
 273 843 273 843 284 848 c 128,-1,43
 295 853 295 853 306 859 c 128,-1,44
 317 865 317 865 328 875 c 1,45,46
 351 880 351 880 374 882 c 128,-1,47
 397 884 397 884 423 884 c 0,48,49
 443 884 443 884 465 882 c 128,-1,50
 487 880 487 880 509 875 c 0,51,52
 513 874 513 874 517.5 870 c 128,-1,53
 522 866 522 866 526 862 c 2,54,-1
 585 851 l 2,55,56
 604 845 604 845 624.5 833.5 c 128,-1,57
 645 822 645 822 663 807 c 128,-1,58
 681 792 681 792 695 773.5 c 128,-1,59
 709 755 709 755 717 734 c 0,60,61
 717 729 717 729 718.5 715.5 c 128,-1,62
 720 702 720 702 722 701 c 2,63,-1
 746 676 l 2,64,65
 757 661 757 661 765 638.5 c 128,-1,66
 773 616 773 616 777.5 592.5 c 128,-1,67
 782 569 782 569 784 547 c 128,-1,68
 786 525 786 525 786 510 c 0,69,70
 786 504 786 504 782.5 488 c 128,-1,71
 779 472 779 472 775.5 454 c 128,-1,72
 772 436 772 436 768.5 421.5 c 128,-1,73
 765 407 765 407 765 405 c 2,74,-1
 753 393 l 1,75,-1
 753 360 l 2,76,77
 753 359 753 359 749 355.5 c 128,-1,78
 745 352 745 352 740.5 347.5 c 128,-1,79
 736 343 736 343 732 339.5 c 128,-1,80
 728 336 728 336 727 336 c 1,81,-1
 727 308 l 2,82,83
 726 303 726 303 721.5 298 c 128,-1,84
 717 293 717 293 711.5 288 c 128,-1,85
 706 283 706 283 701 279 c 128,-1,86
 696 275 696 275 694 272 c 0,87,88
 694 270 694 270 692.5 258 c 128,-1,89
 691 246 691 246 689 244 c 0,90,91
 681 233 681 233 670 225 c 128,-1,92
 659 217 659 217 647 209.5 c 128,-1,93
 635 202 635 202 624 194 c 128,-1,94
 613 186 613 186 604 175 c 0,95,96
 564 118 564 118 515.5 72.5 c 128,-1,97
 467 27 467 27 419 -19 c 0,98,99
 417 -21 417 -21 409 -30.5 c 128,-1,100
 401 -40 401 -40 397 -42 c 0,101,102
 395 -42 395 -42 386 -45 c 128,-1,103
 377 -48 377 -48 372 -52 c 0,104,105
 350 -61 350 -61 325.5 -76.5 c 128,-1,106
 301 -92 301 -92 281 -109 c 2,107,-1
 258 -131 l 1,108,-1
 217 -140 l 1,109,-1
 194 -164 l 2,110,111
 179 -175 179 -175 159 -188.5 c 128,-1,112
 139 -202 139 -202 117 -214 c 128,-1,113
 95 -226 95 -226 72 -234 c 128,-1,114
 49 -242 49 -242 30 -242 c 2,115,-1
 -27 -232 l 1,116,-1
 -32 -223 l 1,0,-1
270 448 m 1,117,-1
 270 429 l 2,118,119
 272 426 272 426 278.5 415.5 c 128,-1,120
 285 405 285 405 292 394 c 128,-1,121
 299 383 299 383 306 373 c 128,-1,122
 313 363 313 363 317 360 c 0,123,124
 331 335 331 335 348.5 324.5 c 128,-1,125
 366 314 366 314 386 306 c 2,126,-1
 424 287 l 2,127,128
 432 285 432 285 435.5 278.5 c 128,-1,129
 439 272 439 272 441.5 264 c 128,-1,130
 444 256 444 256 447 249 c 128,-1,131
 450 242 450 242 456 239 c 1,132,133
 477 248 477 248 492.5 259.5 c 128,-1,134
 508 271 508 271 520.5 285.5 c 128,-1,135
 533 300 533 300 545 317.5 c 128,-1,136
 557 335 557 335 571 355 c 1,137,138
 573 374 573 374 578.5 393 c 128,-1,139
 584 412 584 412 589.5 431 c 128,-1,140
 595 450 595 450 599.5 469.5 c 128,-1,141
 604 489 604 489 604 509 c 0,142,143
 604 522 604 522 604 527.5 c 128,-1,144
 604 533 604 533 603 538 c 0,145,146
 601 545 601 545 600 551.5 c 128,-1,147
 599 558 599 558 599 569 c 2,148,-1
 604 609 l 1,149,150
 584 653 584 653 572 688 c 128,-1,151
 560 723 560 723 543.5 747.5 c 128,-1,152
 527 772 527 772 499 785 c 128,-1,153
 471 798 471 798 419 798 c 2,154,-1
 386 798 l 1,155,156
 386 786 386 786 377.5 774.5 c 128,-1,157
 369 763 369 763 358 752 c 128,-1,158
 347 741 347 741 335.5 731 c 128,-1,159
 324 721 324 721 317 713 c 0,160,161
 306 700 306 700 297.5 683.5 c 128,-1,162
 289 667 289 667 282 649 c 128,-1,163
 275 631 275 631 269 613 c 128,-1,164
 263 595 263 595 258 580 c 1,165,166
 258 554 258 554 261 531.5 c 128,-1,167
 264 509 264 509 269 486 c 0,168,169
 270 482 270 482 270 476 c 128,-1,170
 270 470 270 470 270 465 c 2,171,-1
 270 448 l 1,117,-1
EndSplineSet
EndChar

StartChar: colon
Encoding: 58 58 29
Width: 530
GlyphClass: 1
Flags: W
LayerCount: 2
Fore
SplineSet
213 739 m 1,0,1
 217 745 217 745 235 759.5 c 128,-1,2
 253 774 253 774 274 788.5 c 128,-1,3
 295 803 295 803 314.5 814 c 128,-1,4
 334 825 334 825 341 825 c 0,5,6
 371 825 371 825 399.5 812 c 128,-1,7
 428 799 428 799 450 777 c 128,-1,8
 472 755 472 755 485.5 727.5 c 128,-1,9
 499 700 499 700 499 670 c 0,10,11
 499 628 499 628 481 602 c 128,-1,12
 463 576 463 576 434.5 561.5 c 128,-1,13
 406 547 406 547 371 541.5 c 128,-1,14
 336 536 336 536 303 536 c 0,15,16
 278 536 278 536 260.5 555 c 128,-1,17
 243 574 243 574 232.5 601 c 128,-1,18
 222 628 222 628 217.5 657 c 128,-1,19
 213 686 213 686 213 706 c 2,20,-1
 213 739 l 1,0,1
-3 189 m 2,21,22
 0 193 0 193 17.5 207 c 128,-1,23
 35 221 35 221 56 235 c 128,-1,24
 77 249 77 249 96 260.5 c 128,-1,25
 115 272 115 272 122 272 c 0,26,27
 153 272 153 272 182 259 c 128,-1,28
 211 246 211 246 233 224.5 c 128,-1,29
 255 203 255 203 268 175.5 c 128,-1,30
 281 148 281 148 281 118 c 0,31,32
 281 76 281 76 263.5 50.5 c 128,-1,33
 246 25 246 25 218 10.5 c 128,-1,34
 190 -4 190 -4 155.5 -9 c 128,-1,35
 121 -14 121 -14 87 -14 c 0,36,37
 60 -14 60 -14 43 4.5 c 128,-1,38
 26 23 26 23 15.5 49.5 c 128,-1,39
 5 76 5 76 1 104 c 128,-1,40
 -3 132 -3 132 -3 152 c 2,41,-1
 -3 189 l 2,21,22
EndSplineSet
EndChar

StartChar: semicolon
Encoding: 59 59 30
AltUni2: 00037e.ffffffff.0 00037e.ffffffff.0
Width: 562
GlyphClass: 1
Flags: W
LayerCount: 2
Fore
SplineSet
-166 -189 m 2,0,1
 -165 -184 -165 -184 -159 -179.5 c 128,-1,2
 -153 -175 -153 -175 -151 -173 c 0,3,4
 -105 -158 -105 -158 -61 -148 c 128,-1,5
 -17 -138 -17 -138 17 -120.5 c 128,-1,6
 51 -103 51 -103 72 -71.5 c 128,-1,7
 93 -40 93 -40 93 19 c 0,8,9
 93 43 93 43 76.5 59 c 128,-1,10
 60 75 60 75 40.5 89.5 c 128,-1,11
 21 104 21 104 5 121 c 128,-1,12
 -11 138 -11 138 -11 164 c 0,13,14
 -11 191 -11 191 -1.5 204.5 c 128,-1,15
 8 218 8 218 23 225 c 128,-1,16
 38 232 38 232 56.5 236.5 c 128,-1,17
 75 241 75 241 93 251 c 1,18,-1
 162 251 l 2,19,20
 249 251 249 251 285 207.5 c 128,-1,21
 321 164 321 164 321 71 c 0,22,23
 321 28 321 28 317.5 -12.5 c 128,-1,24
 314 -53 314 -53 295 -92 c 0,25,26
 281 -115 281 -115 254 -143.5 c 128,-1,27
 227 -172 227 -172 195.5 -197.5 c 128,-1,28
 164 -223 164 -223 131 -240.5 c 128,-1,29
 98 -258 98 -258 71 -258 c 2,30,-1
 -52 -258 l 1,31,32
 -63 -254 -63 -254 -68.5 -253.5 c 128,-1,33
 -74 -253 -74 -253 -85 -253 c 2,34,-1
 -120 -258 l 2,35,36
 -127 -258 -127 -258 -134.5 -251 c 128,-1,37
 -142 -244 -142 -244 -148 -234 c 128,-1,38
 -154 -224 -154 -224 -159 -213.5 c 128,-1,39
 -164 -203 -164 -203 -166 -195 c 2,40,-1
 -166 -189 l 2,0,1
235 739 m 2,41,42
 238 745 238 745 256 758.5 c 128,-1,43
 274 772 274 772 295 786.5 c 128,-1,44
 316 801 316 801 335.5 812 c 128,-1,45
 355 823 355 823 361 823 c 0,46,47
 392 823 392 823 421 810.5 c 128,-1,48
 450 798 450 798 472 776.5 c 128,-1,49
 494 755 494 755 507 727 c 128,-1,50
 520 699 520 699 520 668 c 0,51,52
 520 628 520 628 503 602.5 c 128,-1,53
 486 577 486 577 458 562 c 128,-1,54
 430 547 430 547 395.5 541.5 c 128,-1,55
 361 536 361 536 325 536 c 0,56,57
 299 536 299 536 282 555 c 128,-1,58
 265 574 265 574 254.5 601 c 128,-1,59
 244 628 244 628 239.5 656.5 c 128,-1,60
 235 685 235 685 235 704 c 2,61,-1
 235 739 l 2,41,42
EndSplineSet
EndChar

StartChar: less
Encoding: 60 60 31
Width: 1108
GlyphClass: 1
Flags: W
LayerCount: 2
Fore
SplineSet
468 362 m 1,0,-1
 454 391 l 1,1,2
 417 419 417 419 405.5 427.5 c 128,-1,3
 394 436 394 436 393 436 c 0,4,5
 382 436 382 436 376 445 c 128,-1,6
 370 454 370 454 366 466 c 128,-1,7
 362 478 362 478 360.5 490 c 128,-1,8
 359 502 359 502 357 507 c 0,9,10
 348 512 348 512 341.5 515 c 128,-1,11
 335 518 335 518 329.5 522 c 128,-1,12
 324 526 324 526 319.5 533 c 128,-1,13
 315 540 315 540 310 552 c 2,14,-1
 267 618 l 1,15,16
 252 622 252 622 235 632.5 c 128,-1,17
 218 643 218 643 204 658 c 128,-1,18
 190 673 190 673 183.5 691.5 c 128,-1,19
 177 710 177 710 183 730 c 0,20,21
 190 753 190 753 211.5 770 c 128,-1,22
 233 787 233 787 259 800.5 c 128,-1,23
 285 814 285 814 311.5 825.5 c 128,-1,24
 338 837 338 837 356 848 c 0,25,26
 363 850 363 850 371.5 857.5 c 128,-1,27
 380 865 380 865 388.5 873.5 c 128,-1,28
 397 882 397 882 405 889 c 128,-1,29
 413 896 413 896 419 896 c 0,30,31
 435 909 435 909 446 916 c 128,-1,32
 457 923 457 923 466 928 c 128,-1,33
 475 933 475 933 484 938 c 128,-1,34
 493 943 493 943 506 953 c 0,35,36
 511 958 511 958 515.5 964 c 128,-1,37
 520 970 520 970 522 974 c 0,38,39
 525 983 525 983 544 996 c 1,40,-1
 615 1017 l 1,41,-1
 702 1083 l 1,42,43
 717 1083 717 1083 728 1086 c 0,44,45
 734 1088 734 1088 739 1090 c 0,46,47
 747 1094 747 1094 752 1101 c 128,-1,48
 757 1108 757 1108 769 1112 c 0,49,50
 795 1128 795 1128 810.5 1137 c 128,-1,51
 826 1146 826 1146 834 1151 c 0,52,53
 844 1156 844 1156 848 1159 c 0,54,55
 863 1161 863 1161 881.5 1175.5 c 128,-1,56
 900 1190 900 1190 918.5 1207.5 c 128,-1,57
 937 1225 937 1225 954 1240.5 c 128,-1,58
 971 1256 971 1256 983 1259 c 0,59,60
 1002 1265 1002 1265 1012 1272 c 128,-1,61
 1022 1279 1022 1279 1029.5 1286.5 c 128,-1,62
 1037 1294 1037 1294 1045 1301.5 c 128,-1,63
 1053 1309 1053 1309 1067 1317 c 0,64,65
 1085 1327 1085 1327 1104 1334.5 c 128,-1,66
 1123 1342 1123 1342 1142 1349 c 128,-1,67
 1161 1356 1161 1356 1180 1363.5 c 128,-1,68
 1199 1371 1199 1371 1217 1382 c 1,69,70
 1225 1373 1225 1373 1232 1356 c 128,-1,71
 1239 1339 1239 1339 1232 1318 c 0,72,73
 1224 1294 1224 1294 1210.5 1280.5 c 128,-1,74
 1197 1267 1197 1267 1180 1257.5 c 128,-1,75
 1163 1248 1163 1248 1143 1237.5 c 128,-1,76
 1123 1227 1123 1227 1103 1209 c 1,77,78
 1093 1209 1093 1209 1072.5 1198.5 c 128,-1,79
 1052 1188 1052 1188 1029.5 1174 c 128,-1,80
 1007 1160 1007 1160 986.5 1146.5 c 128,-1,81
 966 1133 966 1133 957 1128 c 0,82,83
 954 1126 954 1126 944 1120 c 128,-1,84
 934 1114 934 1114 923.5 1106.5 c 128,-1,85
 913 1099 913 1099 903 1092.5 c 128,-1,86
 893 1086 893 1086 890 1083 c 2,87,-1
 809 1038 l 2,88,89
 800 1031 800 1031 787 1019.5 c 128,-1,90
 774 1008 774 1008 760.5 997.5 c 128,-1,91
 747 987 747 987 732.5 979.5 c 128,-1,92
 718 972 718 972 706 972 c 0,93,94
 700 972 700 972 700 974 c 1,95,96
 698 971 698 971 694.5 965.5 c 128,-1,97
 691 960 691 960 686 954 c 128,-1,98
 681 948 681 948 676.5 943 c 128,-1,99
 672 938 672 938 669 936 c 0,100,101
 664 934 664 934 660 932 c 0,102,103
 652 929 652 929 650 929 c 0,104,105
 627 924 627 924 613 910.5 c 128,-1,106
 599 897 599 897 580 887 c 0,107,108
 548 867 548 867 526.5 856 c 128,-1,109
 505 845 505 845 486.5 835.5 c 128,-1,110
 468 826 468 826 447 814.5 c 128,-1,111
 426 803 426 803 396 784 c 1,112,113
 391 767 391 767 397.5 752 c 128,-1,114
 404 737 404 737 415 737 c 1,115,116
 449 710 449 710 474 682 c 128,-1,117
 499 654 499 654 528 625 c 0,118,119
 529 623 529 623 535.5 618.5 c 128,-1,120
 542 614 542 614 545 612 c 0,121,122
 548 612 548 612 557.5 603.5 c 128,-1,123
 567 595 567 595 579 584.5 c 128,-1,124
 591 574 591 574 601.5 565 c 128,-1,125
 612 556 612 556 616 554 c 0,126,127
 620 534 620 534 624 529 c 128,-1,128
 628 524 628 524 633.5 523.5 c 128,-1,129
 639 523 639 523 646 521.5 c 128,-1,130
 653 520 653 520 662 507 c 0,131,132
 664 500 664 500 672 484.5 c 128,-1,133
 680 469 680 469 690.5 453.5 c 128,-1,134
 701 438 701 438 712 426.5 c 128,-1,135
 723 415 723 415 732 415 c 1,136,137
 749 398 749 398 768 382 c 128,-1,138
 787 366 787 366 803 348 c 0,139,140
 811 340 811 340 815.5 333 c 128,-1,141
 820 326 820 326 824 319.5 c 128,-1,142
 828 313 828 313 833 307.5 c 128,-1,143
 838 302 838 302 848 296 c 0,144,145
 859 287 859 287 875 276.5 c 128,-1,146
 891 266 891 266 904.5 252.5 c 128,-1,147
 918 239 918 239 925 222 c 128,-1,148
 932 205 932 205 925 183 c 0,149,150
 920 169 920 169 906 150 c 128,-1,151
 892 131 892 131 872.5 113.5 c 128,-1,152
 853 96 853 96 830 83.5 c 128,-1,153
 807 71 807 71 786 71 c 0,154,155
 769 71 769 71 757 85 c 128,-1,156
 745 99 745 99 733 111 c 0,157,158
 725 117 725 117 710 119 c 128,-1,159
 695 121 695 121 682 130 c 1,160,-1
 653 192 l 1,161,-1
 632 202 l 2,162,163
 623 209 623 209 618 221.5 c 128,-1,164
 613 234 613 234 607 247.5 c 128,-1,165
 601 261 601 261 592.5 274 c 128,-1,166
 584 287 584 287 568 296 c 0,167,168
 559 300 559 300 549 311 c 128,-1,169
 539 322 539 322 529.5 334 c 128,-1,170
 520 346 520 346 512.5 355.5 c 128,-1,171
 505 365 505 365 503 365 c 2,172,-1
 468 362 l 1,0,-1
EndSplineSet
EndChar

StartChar: equal
Encoding: 61 61 32
Width: 968
GlyphClass: 1
Flags: W
LayerCount: 2
Fore
SplineSet
79 324 m 0,0,1
 79 329 79 329 83 344.5 c 128,-1,2
 87 360 87 360 91 367 c 0,3,4
 96 380 96 380 103 395.5 c 128,-1,5
 110 411 110 411 120.5 424 c 128,-1,6
 131 437 131 437 145 446 c 128,-1,7
 159 455 159 455 178 457 c 2,8,-1
 228 457 l 2,9,10
 253 458 253 458 274.5 467.5 c 128,-1,11
 296 477 296 477 319 477 c 1,12,-1
 371 462 l 2,13,14
 385 462 385 462 396 465.5 c 128,-1,15
 407 469 407 469 418 469 c 0,16,17
 436 469 436 469 451.5 465.5 c 128,-1,18
 467 462 467 462 481.5 458.5 c 128,-1,19
 496 455 496 455 510.5 451.5 c 128,-1,20
 525 448 525 448 541 448 c 0,21,22
 568 448 568 448 599.5 455 c 128,-1,23
 631 462 631 462 660 462 c 2,24,-1
 698 457 l 2,25,26
 707 457 707 457 714.5 460 c 128,-1,27
 722 463 722 463 730 467 c 128,-1,28
 738 471 738 471 746 474 c 128,-1,29
 754 477 754 477 764 477 c 0,30,31
 787 477 787 477 806 465.5 c 128,-1,32
 825 454 825 454 830 434 c 1,33,-1
 818 407 l 2,34,35
 813 391 813 391 809 384 c 128,-1,36
 805 377 805 377 800 371.5 c 128,-1,37
 795 366 795 366 789 358.5 c 128,-1,38
 783 351 783 351 776 334 c 2,39,-1
 773 317 l 1,40,41
 750 296 750 296 718.5 288 c 128,-1,42
 687 280 687 280 662 280 c 2,43,-1
 556 289 l 1,44,45
 486 289 486 289 413 287.5 c 128,-1,46
 340 286 340 286 266 282 c 0,47,48
 232 280 232 280 198 274 c 128,-1,49
 164 268 164 268 133 268 c 0,50,51
 114 268 114 268 96.5 285.5 c 128,-1,52
 79 303 79 303 79 324 c 0,0,1
240 784 m 2,53,54
 246 798 246 798 250.5 811 c 128,-1,55
 255 824 255 824 261 834.5 c 128,-1,56
 267 845 267 845 277.5 852 c 128,-1,57
 288 859 288 859 307 862 c 2,58,-1
 357 862 l 2,59,60
 380 863 380 863 401.5 872.5 c 128,-1,61
 423 882 423 882 447 882 c 0,62,63
 455 882 455 882 460.5 880 c 128,-1,64
 466 878 466 878 471.5 875 c 128,-1,65
 477 872 477 872 483.5 870 c 128,-1,66
 490 868 490 868 499 868 c 2,67,-1
 546 875 l 1,68,-1
 669 853 l 1,69,-1
 787 868 l 1,70,-1
 826 862 l 2,71,72
 842 862 842 862 857.5 872 c 128,-1,73
 873 882 873 882 890 882 c 0,74,75
 913 882 913 882 931 871 c 128,-1,76
 949 860 949 860 956 839 c 1,77,-1
 932 758 l 1,78,-1
 920 730 l 1,79,80
 897 709 897 709 866 702 c 128,-1,81
 835 695 835 695 809 695 c 2,82,-1
 703 702 l 2,83,84
 673 702 673 702 635 702 c 128,-1,85
 597 702 597 702 557.5 701 c 128,-1,86
 518 700 518 700 481 699 c 128,-1,87
 444 698 444 698 415 697 c 0,88,89
 382 695 382 695 347 689 c 128,-1,90
 312 683 312 683 280 683 c 0,91,92
 272 683 272 683 262.5 687.5 c 128,-1,93
 253 692 253 692 244.5 699 c 128,-1,94
 236 706 236 706 230 715.5 c 128,-1,95
 224 725 224 725 224 735 c 2,96,-1
 240 784 l 2,53,54
EndSplineSet
EndChar

StartChar: greater
Encoding: 62 62 33
Width: 1106
GlyphClass: 1
Flags: W
LayerCount: 2
Fore
SplineSet
573 370 m 1,0,-1
 539 370 l 2,1,2
 536 370 536 370 522.5 360.5 c 128,-1,3
 509 351 509 351 491 339 c 128,-1,4
 473 327 473 327 453.5 316 c 128,-1,5
 434 305 434 305 419 301 c 0,6,7
 402 292 402 292 387 279 c 128,-1,8
 372 266 372 266 357.5 252.5 c 128,-1,9
 343 239 343 239 329.5 227 c 128,-1,10
 316 215 316 215 302 208 c 2,11,-1
 278 201 l 1,12,-1
 206 135 l 1,13,14
 190 128 190 128 172.5 126.5 c 128,-1,15
 155 125 155 125 141 116 c 0,16,17
 121 104 121 104 101.5 92 c 128,-1,18
 82 80 82 80 65 80 c 0,19,20
 43 80 43 80 28 92 c 128,-1,21
 13 104 13 104 5 121 c 128,-1,22
 -3 138 -3 138 -4.5 157 c 128,-1,23
 -6 176 -6 176 -1 190 c 0,24,25
 6 212 6 212 23.5 228.5 c 128,-1,26
 41 245 41 245 63 258 c 128,-1,27
 85 271 85 271 108 281 c 128,-1,28
 131 291 131 291 149 301 c 0,29,30
 162 307 162 307 171.5 313 c 128,-1,31
 181 319 181 319 189.5 326 c 128,-1,32
 198 333 198 333 207 340.5 c 128,-1,33
 216 348 216 348 229 356 c 0,34,35
 255 372 255 372 284.5 388.5 c 128,-1,36
 314 405 314 405 340 420 c 1,37,38
 350 420 350 420 369 431.5 c 128,-1,39
 388 443 388 443 408 458.5 c 128,-1,40
 428 474 428 474 445.5 489.5 c 128,-1,41
 463 505 463 505 470 512 c 0,42,43
 488 525 488 525 496.5 527 c 128,-1,44
 505 529 505 529 511.5 530 c 128,-1,45
 518 531 518 531 525.5 535.5 c 128,-1,46
 533 540 533 540 549 559 c 0,47,48
 552 563 552 563 569 572.5 c 128,-1,49
 586 582 586 582 605.5 592 c 128,-1,50
 625 602 625 602 640.5 610 c 128,-1,51
 656 618 656 618 657 618 c 0,52,53
 663 619 663 619 672 625 c 128,-1,54
 681 631 681 631 682 633 c 0,55,56
 730 661 730 661 774 689 c 128,-1,57
 818 717 818 717 869 744 c 0,58,59
 874 744 874 744 881.5 748 c 128,-1,60
 889 752 889 752 896.5 758 c 128,-1,61
 904 764 904 764 910 772 c 128,-1,62
 916 780 916 780 919 789 c 1,63,64
 902 809 902 809 888.5 821 c 128,-1,65
 875 833 875 833 862 843 c 128,-1,66
 849 853 849 853 834.5 864 c 128,-1,67
 820 875 820 875 800 893 c 0,68,69
 794 898 794 898 790.5 904.5 c 128,-1,70
 787 911 787 911 783 917 c 128,-1,71
 779 923 779 923 773.5 928.5 c 128,-1,72
 768 934 768 934 759 938 c 0,73,74
 758 938 758 938 755.5 938 c 128,-1,75
 753 938 753 938 750 939 c 0,76,77
 746 940 746 940 743 941 c 0,78,79
 740 945 740 945 739.5 951.5 c 128,-1,80
 739 958 739 958 738.5 963.5 c 128,-1,81
 738 969 738 969 735.5 973 c 128,-1,82
 733 977 733 977 727 977 c 0,83,84
 715 977 715 977 706 985.5 c 128,-1,85
 697 994 697 994 690.5 1005 c 128,-1,86
 684 1016 684 1016 679 1027 c 128,-1,87
 674 1038 674 1038 670 1043 c 2,88,-1
 620 1093 l 2,89,90
 617 1093 617 1093 611.5 1098.5 c 128,-1,91
 606 1104 606 1104 600 1111 c 128,-1,92
 594 1118 594 1118 588.5 1124.5 c 128,-1,93
 583 1131 583 1131 581 1133 c 0,94,95
 575 1137 575 1137 563 1150.5 c 128,-1,96
 551 1164 551 1164 537.5 1178 c 128,-1,97
 524 1192 524 1192 510 1203 c 128,-1,98
 496 1214 496 1214 484 1214 c 1,99,100
 477 1233 477 1233 464.5 1243 c 128,-1,101
 452 1253 452 1253 441 1262.5 c 128,-1,102
 430 1272 430 1272 424.5 1285 c 128,-1,103
 419 1298 419 1298 427 1323 c 0,104,105
 434 1344 434 1344 453 1361 c 128,-1,106
 472 1378 472 1378 488 1387 c 1,107,108
 498 1376 498 1376 511.5 1368.5 c 128,-1,109
 525 1361 525 1361 539.5 1354 c 128,-1,110
 554 1347 554 1347 567.5 1339.5 c 128,-1,111
 581 1332 581 1332 592 1322 c 0,112,113
 601 1315 601 1315 604.5 1307 c 128,-1,114
 608 1299 608 1299 611.5 1291.5 c 128,-1,115
 615 1284 615 1284 621 1277.5 c 128,-1,116
 627 1271 627 1271 641 1265 c 0,117,118
 649 1262 649 1262 656 1246.5 c 128,-1,119
 663 1231 663 1231 670.5 1213 c 128,-1,120
 678 1195 678 1195 687.5 1180.5 c 128,-1,121
 697 1166 697 1166 710 1164 c 1,122,-1
 714 1162 l 2,123,124
 717 1160 717 1160 717 1159 c 0,125,126
 736 1141 736 1141 745.5 1129.5 c 128,-1,127
 755 1118 755 1118 760 1111 c 128,-1,128
 765 1104 765 1104 767 1100.5 c 128,-1,129
 769 1097 769 1097 774 1095 c 0,130,131
 779 1094 779 1094 784 1094 c 0,132,133
 789 1093 789 1093 794.5 1093 c 128,-1,134
 800 1093 800 1093 808 1093 c 1,135,136
 812 1088 812 1088 817 1079 c 128,-1,137
 822 1070 822 1070 827 1060 c 128,-1,138
 832 1050 832 1050 838 1041 c 128,-1,139
 844 1032 844 1032 850 1026 c 0,140,141
 876 1011 876 1011 889.5 1000.5 c 128,-1,142
 903 990 903 990 908.5 982.5 c 128,-1,143
 914 975 914 975 915 969.5 c 128,-1,144
 916 964 916 964 918 958 c 0,145,146
 924 950 924 950 930.5 945.5 c 128,-1,147
 937 941 937 941 944 936 c 128,-1,148
 951 931 951 931 957.5 924.5 c 128,-1,149
 964 918 964 918 972 905 c 0,150,151
 976 905 976 905 979 897.5 c 128,-1,152
 982 890 982 890 985 881 c 128,-1,153
 988 872 988 872 991.5 863.5 c 128,-1,154
 995 855 995 855 998 853 c 0,155,156
 1010 842 1010 842 1029.5 831 c 128,-1,157
 1049 820 1049 820 1066 806.5 c 128,-1,158
 1083 793 1083 793 1092 775.5 c 128,-1,159
 1101 758 1101 758 1094 735 c 0,160,161
 1088 715 1088 715 1069.5 696.5 c 128,-1,162
 1051 678 1051 678 1028 663 c 128,-1,163
 1005 648 1005 648 981 637.5 c 128,-1,164
 957 627 957 627 941 623 c 0,165,166
 932 621 932 621 919 610.5 c 128,-1,167
 906 600 906 600 893 588 c 128,-1,168
 880 576 880 576 868.5 566.5 c 128,-1,169
 857 557 857 557 853 557 c 0,170,171
 841 545 841 545 831.5 538 c 128,-1,172
 822 531 822 531 814 527 c 128,-1,173
 806 523 806 523 797.5 520 c 128,-1,174
 789 517 789 517 777 512 c 0,175,176
 771 507 771 507 761.5 495.5 c 128,-1,177
 752 484 752 484 740.5 472 c 128,-1,178
 729 460 729 460 716.5 450.5 c 128,-1,179
 704 441 704 441 693 441 c 0,180,181
 692 441 692 441 686 439 c 0,182,183
 683 438 683 438 680 438 c 0,184,185
 661 433 661 433 645.5 426.5 c 128,-1,186
 630 420 630 420 613 407 c 2,187,-1
 573 370 l 1,0,-1
EndSplineSet
EndChar

StartChar: question
Encoding: 63 63 34
Width: 735
GlyphClass: 1
Flags: W
LayerCount: 2
Fore
SplineSet
116 104 m 0,0,1
 116 122 116 122 123.5 151.5 c 128,-1,2
 131 181 131 181 144.5 209.5 c 128,-1,3
 158 238 158 238 176.5 258.5 c 128,-1,4
 195 279 195 279 218 279 c 0,5,6
 248 279 248 279 282 274 c 128,-1,7
 316 269 316 269 345.5 255 c 128,-1,8
 375 241 375 241 394 217 c 128,-1,9
 413 193 413 193 413 156 c 0,10,11
 413 132 413 132 402.5 110.5 c 128,-1,12
 392 89 392 89 377 69.5 c 128,-1,13
 362 50 362 50 345 31.5 c 128,-1,14
 328 13 328 13 315 -5 c 0,15,16
 310 -9 310 -9 303.5 -9.5 c 128,-1,17
 297 -10 297 -10 289 -10 c 2,18,-1
 265 -10 l 2,19,20
 239 -10 239 -10 212.5 -3 c 128,-1,21
 186 4 186 4 164.5 18 c 128,-1,22
 143 32 143 32 129.5 53.5 c 128,-1,23
 116 75 116 75 116 104 c 0,0,1
199 471 m 0,24,25
 199 486 199 486 202.5 493.5 c 128,-1,26
 206 501 206 501 211 506 c 128,-1,27
 216 511 216 511 223 516.5 c 128,-1,28
 230 522 230 522 237 533 c 1,29,30
 234 551 234 551 234 569 c 256,31,32
 234 587 234 587 235.5 605.5 c 128,-1,33
 237 624 237 624 237 644 c 0,34,35
 237 661 237 661 234.5 676.5 c 128,-1,36
 232 692 232 692 225 706 c 1,37,-1
 225 862 l 1,38,39
 225 862 225 862 227.5 869 c 128,-1,40
 230 876 230 876 233 885.5 c 128,-1,41
 236 895 236 895 239 904.5 c 128,-1,42
 242 914 242 914 244 919 c 0,43,44
 255 945 255 945 270 963 c 128,-1,45
 285 981 285 981 302.5 995.5 c 128,-1,46
 320 1010 320 1010 340 1023.5 c 128,-1,47
 360 1037 360 1037 381 1054 c 1,48,49
 401 1059 401 1059 419.5 1068 c 128,-1,50
 438 1077 438 1077 458 1080 c 0,51,52
 460 1080 460 1080 468 1081 c 128,-1,53
 476 1082 476 1082 484.5 1083 c 128,-1,54
 493 1084 493 1084 500 1085 c 128,-1,55
 507 1086 507 1086 509 1086 c 0,56,57
 511 1087 511 1087 515.5 1092 c 128,-1,58
 520 1097 520 1097 525.5 1103 c 128,-1,59
 531 1109 531 1109 535 1114 c 128,-1,60
 539 1119 539 1119 540 1119 c 0,61,62
 544 1119 544 1119 549 1121.5 c 128,-1,63
 554 1124 554 1124 555 1126 c 0,64,65
 558 1127 558 1127 568 1128.5 c 128,-1,66
 578 1130 578 1130 589.5 1132 c 128,-1,67
 601 1134 601 1134 611 1135.5 c 128,-1,68
 621 1137 621 1137 626 1137 c 0,69,70
 635 1144 635 1144 640.5 1151.5 c 128,-1,71
 646 1159 646 1159 650.5 1165.5 c 128,-1,72
 655 1172 655 1172 661 1178 c 128,-1,73
 667 1184 667 1184 678 1190 c 0,74,75
 681 1192 681 1192 690.5 1196.5 c 128,-1,76
 700 1201 700 1201 710 1206.5 c 128,-1,77
 720 1212 720 1212 729.5 1216.5 c 128,-1,78
 739 1221 739 1221 742 1223 c 0,79,80
 745 1226 745 1226 752 1238.5 c 128,-1,81
 759 1251 759 1251 767 1266 c 128,-1,82
 775 1281 775 1281 781 1294.5 c 128,-1,83
 787 1308 787 1308 787 1313 c 0,84,85
 787 1323 787 1323 777 1335.5 c 128,-1,86
 767 1348 767 1348 752.5 1359 c 128,-1,87
 738 1370 738 1370 722 1377 c 128,-1,88
 706 1384 706 1384 694 1384 c 0,89,90
 678 1384 678 1384 661 1380 c 128,-1,91
 644 1376 644 1376 626.5 1371 c 128,-1,92
 609 1366 609 1366 591 1362 c 128,-1,93
 573 1358 573 1358 555 1358 c 0,94,95
 514 1358 514 1358 488.5 1372 c 128,-1,96
 463 1386 463 1386 438 1415 c 1,97,-1
 438 1419 l 2,98,99
 438 1458 438 1458 456 1488 c 128,-1,100
 474 1518 474 1518 503 1538 c 128,-1,101
 532 1558 532 1558 567 1568 c 128,-1,102
 602 1578 602 1578 637 1578 c 2,103,-1
 652 1578 l 1,104,105
 724 1565 724 1565 772 1533.5 c 128,-1,106
 820 1502 820 1502 849.5 1456 c 128,-1,107
 879 1410 879 1410 891 1351 c 128,-1,108
 903 1292 903 1292 903 1223 c 2,109,-1
 903 1209 l 2,110,111
 903 1204 903 1204 902 1194.5 c 128,-1,112
 901 1185 901 1185 900 1176 c 128,-1,113
 899 1167 899 1167 898 1160 c 128,-1,114
 897 1153 897 1153 896 1152 c 0,115,116
 892 1140 892 1140 884 1131 c 128,-1,117
 876 1122 876 1122 867.5 1113 c 128,-1,118
 859 1104 859 1104 851 1094.5 c 128,-1,119
 843 1085 843 1085 839 1073 c 1,120,-1
 759 996 l 2,121,122
 758 995 758 995 748 990.5 c 128,-1,123
 738 986 738 986 735 984 c 0,124,125
 734 983 734 983 729.5 978.5 c 128,-1,126
 725 974 725 974 720 969.5 c 128,-1,127
 715 965 715 965 709.5 961 c 128,-1,128
 704 957 704 957 702 957 c 0,129,130
 700 956 700 956 692.5 955.5 c 128,-1,131
 685 955 685 955 676.5 954 c 128,-1,132
 668 953 668 953 660.5 952.5 c 128,-1,133
 653 952 653 952 652 951 c 0,134,135
 643 948 643 948 629 935.5 c 128,-1,136
 615 923 615 923 600 908.5 c 128,-1,137
 585 894 585 894 571 883 c 128,-1,138
 557 872 557 872 548 872 c 2,139,-1
 477 872 l 1,140,141
 467 859 467 859 451.5 851 c 128,-1,142
 436 843 436 843 426 829 c 0,143,144
 392 781 392 781 381 729 c 128,-1,145
 370 677 370 677 363 623 c 0,146,147
 358 606 358 606 349.5 593.5 c 128,-1,148
 341 581 341 581 341 567 c 0,149,150
 341 557 341 557 349 544 c 128,-1,151
 357 531 357 531 367 514.5 c 128,-1,152
 377 498 377 498 385 478.5 c 128,-1,153
 393 459 393 459 393 436 c 2,154,-1
 393 420 l 1,155,156
 377 411 377 411 368.5 406 c 128,-1,157
 360 401 360 401 346 401 c 256,158,159
 332 401 332 401 307.5 408.5 c 128,-1,160
 283 416 283 416 259 426.5 c 128,-1,161
 235 437 235 437 217 449.5 c 128,-1,162
 199 462 199 462 199 471 c 0,24,25
EndSplineSet
EndChar

StartChar: at
Encoding: 64 64 35
Width: 1548
GlyphClass: 1
Flags: W
LayerCount: 2
Fore
SplineSet
928 408 m 2,0,1
 930 411 930 411 933 417 c 128,-1,2
 936 423 936 423 940 430.5 c 128,-1,3
 944 438 944 438 947 445 c 128,-1,4
 950 452 950 452 952 455 c 0,5,6
 957 467 957 467 957 484 c 0,7,8
 956 487 956 487 956 490 c 0,9,10
 955 493 955 493 955 497 c 256,11,12
 955 501 955 501 950.5 508.5 c 128,-1,13
 946 516 946 516 940 516 c 0,14,15
 937 516 937 516 936 515 c 128,-1,16
 935 514 935 514 933 512 c 0,17,18
 929 512 929 512 926.5 510.5 c 128,-1,19
 924 509 924 509 922 509 c 0,20,21
 920 505 920 505 918 504 c 256,22,23
 916 503 916 503 915 502 c 0,24,25
 915 500 915 500 911 496.5 c 128,-1,26
 907 493 907 493 902.5 488.5 c 128,-1,27
 898 484 898 484 894 480.5 c 128,-1,28
 890 477 890 477 888 476 c 2,29,-1
 829 438 l 2,30,31
 827 436 827 436 822.5 430.5 c 128,-1,32
 818 425 818 425 812.5 419.5 c 128,-1,33
 807 414 807 414 801.5 409 c 128,-1,34
 796 404 796 404 793 403 c 0,35,36
 770 378 770 378 736 362.5 c 128,-1,37
 702 347 702 347 670 344 c 2,38,-1
 640 344 l 2,39,40
 626 344 626 344 611.5 344.5 c 128,-1,41
 597 345 597 345 583 348 c 0,42,43
 582 348 582 348 579 350 c 128,-1,44
 576 352 576 352 575 355 c 0,45,46
 554 366 554 366 540 387 c 128,-1,47
 526 408 526 408 518 432 c 0,48,49
 513 444 513 444 512.5 454.5 c 128,-1,50
 512 465 512 465 512 479 c 2,51,-1
 512 500 l 2,52,53
 512 516 512 516 517 529 c 128,-1,54
 522 542 522 542 530 555 c 0,55,56
 543 589 543 589 558.5 621.5 c 128,-1,57
 574 654 574 654 592 683 c 0,58,59
 597 691 597 691 602.5 700.5 c 128,-1,60
 608 710 608 710 613 716 c 0,61,62
 613 718 613 718 616 723 c 0,63,64
 618 725 618 725 620 728 c 0,65,66
 623 732 623 732 630 741 c 128,-1,67
 637 750 637 750 645 759.5 c 128,-1,68
 653 769 653 769 660 778 c 128,-1,69
 667 787 667 787 670 791 c 0,70,71
 674 797 674 797 682.5 800 c 128,-1,72
 691 803 691 803 696 810 c 2,73,-1
 779 881 l 1,74,-1
 779 882 l 2,75,76
 779 883 779 883 780 884 c 2,77,-1
 782 886 l 2,78,79
 784 888 784 888 792 896.5 c 128,-1,80
 800 905 800 905 809 915 c 128,-1,81
 818 925 818 925 826 934 c 128,-1,82
 834 943 834 943 836 946 c 0,83,84
 838 948 838 948 842 950.5 c 128,-1,85
 846 953 846 953 848 955 c 2,86,-1
 850 957 l 1,87,-1
 855 957 l 2,88,89
 857 957 857 957 860 958 c 0,90,91
 867 960 867 960 872.5 965.5 c 128,-1,92
 878 971 878 971 883 976 c 0,93,94
 922 1007 922 1007 960.5 1024 c 128,-1,95
 999 1041 999 1041 1047 1050 c 0,96,97
 1064 1054 1064 1054 1080 1054.5 c 128,-1,98
 1096 1055 1096 1055 1113 1055 c 2,99,-1
 1121 1055 l 2,100,101
 1130 1053 1130 1053 1136.5 1048 c 128,-1,102
 1143 1043 1143 1043 1151 1041 c 0,103,104
 1155 1040 1155 1040 1158 1039 c 128,-1,105
 1161 1038 1161 1038 1163 1038 c 2,106,-1
 1185 1038 l 1,107,-1
 1187 1040 l 2,108,109
 1195 1046 1195 1046 1200.5 1053.5 c 128,-1,110
 1206 1061 1206 1061 1213 1069 c 0,111,112
 1225 1082 1225 1082 1239.5 1093.5 c 128,-1,113
 1254 1105 1254 1105 1272 1105 c 2,114,-1
 1282 1105 l 1,115,116
 1298 1091 1298 1091 1304 1074.5 c 128,-1,117
 1310 1058 1310 1058 1310 1038 c 0,118,119
 1310 1006 1310 1006 1299 983 c 128,-1,120
 1288 960 1288 960 1274 934 c 0,121,122
 1271 923 1271 923 1269.5 916 c 128,-1,123
 1268 909 1268 909 1267 901 c 0,124,125
 1267 895 1267 895 1263 891 c 2,126,-1
 1156 670 l 2,127,128
 1153 665 1153 665 1152.5 662.5 c 128,-1,129
 1152 660 1152 660 1152 656 c 0,130,131
 1152 645 1152 645 1151 640 c 0,132,133
 1143 623 1143 623 1136 605.5 c 128,-1,134
 1129 588 1129 588 1120 571 c 1,135,-1
 1120 567 l 2,136,137
 1118 560 1118 560 1115 555 c 0,138,139
 1113 550 1113 550 1111 545.5 c 128,-1,140
 1109 541 1109 541 1108 540 c 0,141,142
 1106 536 1106 536 1103.5 531 c 128,-1,143
 1101 526 1101 526 1101 519 c 0,144,145
 1101 508 1101 508 1103 499.5 c 128,-1,146
 1105 491 1105 491 1116 491 c 0,147,148
 1128 491 1128 491 1135.5 496.5 c 128,-1,149
 1143 502 1143 502 1152 509 c 2,150,-1
 1263 573 l 2,151,152
 1266 575 1266 575 1269.5 577.5 c 128,-1,153
 1273 580 1273 580 1277 581 c 0,154,155
 1306 605 1306 605 1335 631 c 128,-1,156
 1364 657 1364 657 1387.5 686 c 128,-1,157
 1411 715 1411 715 1428 747.5 c 128,-1,158
 1445 780 1445 780 1450 817 c 0,159,160
 1454 834 1454 834 1455.5 852.5 c 128,-1,161
 1457 871 1457 871 1457 889 c 0,162,163
 1457 903 1457 903 1453.5 918.5 c 128,-1,164
 1450 934 1450 934 1448 950 c 1,165,166
 1425 1006 1425 1006 1408 1049 c 128,-1,167
 1391 1092 1391 1092 1369 1124 c 1,168,-1
 1367 1124 l 1,169,-1
 1298 1218 l 1,170,171
 1266 1229 1266 1229 1243 1246.5 c 128,-1,172
 1220 1264 1220 1264 1192 1278 c 0,173,174
 1160 1299 1160 1299 1133.5 1314.5 c 128,-1,175
 1107 1330 1107 1330 1080 1334 c 1,176,177
 1066 1331 1066 1331 1058 1330 c 128,-1,178
 1050 1329 1050 1329 1045 1329 c 2,179,-1
 1030 1329 l 2,180,181
 1021 1329 1021 1329 1015.5 1328.5 c 128,-1,182
 1010 1328 1010 1328 1004 1325 c 1,183,-1
 967 1342 l 1,184,185
 940 1342 940 1342 909.5 1337.5 c 128,-1,186
 879 1333 879 1333 858 1310 c 1,187,188
 796 1305 796 1305 754.5 1293 c 128,-1,189
 713 1281 713 1281 681 1259.5 c 128,-1,190
 649 1238 649 1238 622 1206.5 c 128,-1,191
 595 1175 595 1175 564 1131 c 1,192,-1
 538 1105 l 1,193,-1
 502 1048 l 2,194,195
 495 1042 495 1042 492.5 1031.5 c 128,-1,196
 490 1021 490 1021 490 1010 c 1,197,-1
 441 889 l 2,198,199
 430 867 430 867 425.5 835 c 128,-1,200
 421 803 421 803 417 780 c 0,201,202
 417 775 417 775 413.5 766 c 128,-1,203
 410 757 410 757 406 746 c 128,-1,204
 402 735 402 735 399 724 c 128,-1,205
 396 713 396 713 396 706 c 0,206,207
 401 624 401 624 420.5 557.5 c 128,-1,208
 440 491 440 491 467 436 c 0,209,210
 475 425 475 425 478 411.5 c 128,-1,211
 481 398 481 398 485 383 c 128,-1,212
 489 368 489 368 497.5 353.5 c 128,-1,213
 506 339 506 339 526 327 c 1,214,215
 537 305 537 305 551.5 280.5 c 128,-1,216
 566 256 566 256 587 240 c 0,217,218
 600 231 600 231 610 220 c 128,-1,219
 620 209 620 209 630 197 c 128,-1,220
 640 185 640 185 651 171.5 c 128,-1,221
 662 158 662 158 678 144 c 1,222,223
 690 142 690 142 705 137.5 c 128,-1,224
 720 133 720 133 734 128.5 c 128,-1,225
 748 124 748 124 759 119.5 c 128,-1,226
 770 115 770 115 775 114 c 2,227,-1
 836 95 l 1,228,-1
 928 97 l 2,229,230
 952 101 952 101 971.5 102.5 c 128,-1,231
 991 104 991 104 1007 104 c 0,232,233
 1036 104 1036 104 1053 101.5 c 128,-1,234
 1070 99 1070 99 1076 99 c 0,235,236
 1083 99 1083 99 1088 96 c 128,-1,237
 1093 93 1093 93 1108 93 c 0,238,239
 1121 93 1121 93 1130 95.5 c 128,-1,240
 1139 98 1139 98 1146.5 102 c 128,-1,241
 1154 106 1154 106 1162.5 109.5 c 128,-1,242
 1171 113 1171 113 1185 116 c 0,243,244
 1187 118 1187 118 1206 129 c 128,-1,245
 1225 140 1225 140 1247.5 152.5 c 128,-1,246
 1270 165 1270 165 1289 175 c 128,-1,247
 1308 185 1308 185 1310 185 c 0,248,249
 1341 185 1341 185 1352.5 177 c 128,-1,250
 1364 169 1364 169 1364 156 c 0,251,252
 1364 140 1364 140 1349.5 120.5 c 128,-1,253
 1335 101 1335 101 1324 90 c 0,254,255
 1310 70 1310 70 1300 58.5 c 128,-1,256
 1290 47 1290 47 1282.5 41.5 c 128,-1,257
 1275 36 1275 36 1269 34.5 c 128,-1,258
 1263 33 1263 33 1256 33 c 0,259,260
 1243 33 1243 33 1232.5 29.5 c 128,-1,261
 1222 26 1222 26 1213 21 c 0,262,263
 1187 10 1187 10 1155.5 1.5 c 128,-1,264
 1124 -7 1124 -7 1085 -7 c 1,265,-1
 1088 -5 l 1,266,267
 1082 -7 1082 -7 1072 -7 c 128,-1,268
 1062 -7 1062 -7 1049 -7 c 2,269,-1
 915 -7 l 2,270,271
 901 -7 901 -7 889 -7 c 128,-1,272
 877 -7 877 -7 871 -5 c 0,273,274
 842 -5 842 -5 812 -0.5 c 128,-1,275
 782 4 782 4 752 11 c 128,-1,276
 722 18 722 18 692 25.5 c 128,-1,277
 662 33 662 33 633 38 c 0,278,279
 632 38 632 38 627.5 40.5 c 128,-1,280
 623 43 623 43 621 45 c 0,281,282
 565 88 565 88 502 123 c 1,283,-1
 467 130 l 2,284,285
 462 131 462 131 445 144.5 c 128,-1,286
 428 158 428 158 409 174.5 c 128,-1,287
 390 191 390 191 374.5 206.5 c 128,-1,288
 359 222 359 222 357 228 c 2,289,-1
 279 367 l 2,290,291
 272 385 272 385 259 423 c 128,-1,292
 246 461 246 461 233.5 503.5 c 128,-1,293
 221 546 221 546 212 584 c 128,-1,294
 203 622 203 622 203 640 c 0,295,296
 203 651 203 651 207 656.5 c 128,-1,297
 211 662 211 662 211 673 c 2,298,-1
 203 730 l 2,299,300
 203 753 203 753 208.5 786 c 128,-1,301
 214 819 214 819 220.5 854 c 128,-1,302
 227 889 227 889 234 920.5 c 128,-1,303
 241 952 241 952 244 972 c 0,304,305
 245 975 245 975 247.5 980 c 128,-1,306
 250 985 250 985 253.5 991 c 128,-1,307
 257 997 257 997 260 1002 c 128,-1,308
 263 1007 263 1007 265 1009 c 0,309,310
 275 1021 275 1021 280 1033 c 128,-1,311
 285 1045 285 1045 288.5 1057 c 128,-1,312
 292 1069 292 1069 296 1081 c 128,-1,313
 300 1093 300 1093 308 1105 c 0,314,315
 313 1114 313 1114 319 1118.5 c 128,-1,316
 325 1123 325 1123 330.5 1127 c 128,-1,317
 336 1131 336 1131 339.5 1137 c 128,-1,318
 343 1143 343 1143 343 1154 c 1,319,-1
 460 1272 l 1,320,-1
 544 1313 l 2,321,322
 545 1315 545 1315 549 1320 c 128,-1,323
 553 1325 553 1325 557 1330 c 2,324,-1
 606 1346 l 1,325,-1
 739 1410 l 1,326,-1
 997 1460 l 1,327,-1
 1052 1460 l 1,328,-1
 1102 1438 l 1,329,-1
 1130 1441 l 1,330,-1
 1197 1419 l 2,331,332
 1206 1415 1206 1415 1225.5 1407.5 c 128,-1,333
 1245 1400 1245 1400 1265.5 1392 c 128,-1,334
 1286 1384 1286 1384 1304 1376 c 128,-1,335
 1322 1368 1322 1368 1329 1362 c 0,336,337
 1355 1337 1355 1337 1374 1322.5 c 128,-1,338
 1393 1308 1393 1308 1419 1292 c 0,339,340
 1428 1286 1428 1286 1444.5 1266.5 c 128,-1,341
 1461 1247 1461 1247 1478 1224.5 c 128,-1,342
 1495 1202 1495 1202 1508 1181.5 c 128,-1,343
 1521 1161 1521 1161 1523 1154 c 0,344,345
 1525 1141 1525 1141 1525 1129.5 c 128,-1,346
 1525 1118 1525 1118 1526 1107.5 c 128,-1,347
 1527 1097 1527 1097 1531.5 1088.5 c 128,-1,348
 1536 1080 1536 1080 1547 1073 c 1,349,350
 1555 1040 1555 1040 1562.5 1002.5 c 128,-1,351
 1570 965 1570 965 1576 933 c 128,-1,352
 1582 901 1582 901 1586 878 c 128,-1,353
 1590 855 1590 855 1590 851 c 0,354,355
 1590 828 1590 828 1586 816 c 128,-1,356
 1582 804 1582 804 1578 785 c 1,357,358
 1562 765 1562 765 1552 750.5 c 128,-1,359
 1542 736 1542 736 1542 727 c 1,360,361
 1528 709 1528 709 1521.5 695 c 128,-1,362
 1515 681 1515 681 1509 668.5 c 128,-1,363
 1503 656 1503 656 1494 643.5 c 128,-1,364
 1485 631 1485 631 1466 616 c 0,365,366
 1431 587 1431 587 1407.5 569.5 c 128,-1,367
 1384 552 1384 552 1363.5 537.5 c 128,-1,368
 1343 523 1343 523 1320 509.5 c 128,-1,369
 1297 496 1297 496 1263 477 c 1,370,-1
 1197 422 l 1,371,-1
 1191 415 l 2,372,373
 1188 413 1188 413 1180 407 c 128,-1,374
 1172 401 1172 401 1170 400 c 0,375,376
 1162 392 1162 392 1151.5 389.5 c 128,-1,377
 1141 387 1141 387 1132 381 c 0,378,379
 1116 371 1116 371 1103 358.5 c 128,-1,380
 1090 346 1090 346 1075 339 c 2,381,-1
 1042 327 l 1,382,-1
 1038 327 l 1,383,-1
 973 339 l 2,384,385
 971 340 971 340 968 341 c 0,386,387
 966 342 966 342 964 343 c 128,-1,388
 962 344 962 344 960 344 c 0,389,390
 956 347 956 347 950 352 c 128,-1,391
 944 357 944 357 941 362 c 0,392,393
 928 381 928 381 928 400 c 2,394,-1
 928 408 l 2,0,1
692 493 m 0,395,396
 692 480 692 480 696 469 c 128,-1,397
 700 458 700 458 713 453 c 0,398,399
 716 449 716 449 720.5 446 c 128,-1,400
 725 443 725 443 730 443 c 0,401,402
 756 443 756 443 774 453.5 c 128,-1,403
 792 464 792 464 810 483 c 0,404,405
 824 494 824 494 843.5 513.5 c 128,-1,406
 863 533 863 533 882 552 c 0,407,408
 904 574 904 574 928 597 c 1,409,-1
 1011 706 l 1,410,-1
 1052 753 l 1,411,-1
 1099 846 l 1,412,-1
 1120 924 l 2,413,414
 1120 926 1120 926 1120.5 929 c 128,-1,415
 1121 932 1121 932 1121 934 c 0,416,417
 1121 942 1121 942 1119.5 951 c 128,-1,418
 1118 960 1118 960 1111 965 c 0,419,420
 1107 971 1107 971 1105 973 c 2,421,-1
 1102 976 l 1,422,-1
 1099 976 l 2,423,424
 1096 976 1096 976 1095 977 c 0,425,426
 1093 977 1093 977 1088 977 c 128,-1,427
 1083 977 1083 977 1083 979 c 1,428,-1
 1069 979 l 1,429,-1
 1066 977 l 2,430,431
 1063 977 1063 977 1054.5 973.5 c 128,-1,432
 1046 970 1046 970 1037 966 c 128,-1,433
 1028 962 1028 962 1020 958 c 128,-1,434
 1012 954 1012 954 1009 953 c 0,435,436
 1004 951 1004 951 1001.5 949 c 128,-1,437
 999 947 999 947 997 945 c 0,438,439
 994 943 994 943 985 934.5 c 128,-1,440
 976 926 976 926 965.5 916.5 c 128,-1,441
 955 907 955 907 946 899 c 128,-1,442
 937 891 937 891 935 889 c 2,443,-1
 924 881 l 1,444,-1
 914 881 l 1,445,-1
 838 799 l 2,446,447
 827 788 827 788 824 770 c 0,448,449
 821 766 821 766 820 760 c 128,-1,450
 819 754 819 754 817 749 c 0,451,452
 809 736 809 736 799 727 c 128,-1,453
 789 718 789 718 781 708 c 0,454,455
 776 703 776 703 769 689 c 128,-1,456
 762 675 762 675 760 673 c 2,457,-1
 696 559 l 1,458,-1
 696 552 l 2,459,460
 694 538 694 538 693 522.5 c 128,-1,461
 692 507 692 507 692 493 c 0,395,396
EndSplineSet
EndChar

StartChar: A
Encoding: 65 65 36
Width: 1464
GlyphClass: 1
Flags: W
LayerCount: 2
Fore
SplineSet
-178 17 m 0,0,1
 -178 28 -178 28 -172.5 41 c 128,-1,2
 -167 54 -167 54 -158.5 65.5 c 128,-1,3
 -150 77 -150 77 -139.5 85.5 c 128,-1,4
 -129 94 -129 94 -119 97 c 0,5,6
 -116 98 -116 98 -107 99 c 128,-1,7
 -98 100 -98 100 -87 101 c 128,-1,8
 -76 102 -76 102 -67 103 c 128,-1,9
 -58 104 -58 104 -55 104 c 0,10,11
 -27 107 -27 107 5 118.5 c 128,-1,12
 37 130 37 130 68 145.5 c 128,-1,13
 99 161 99 161 128 178.5 c 128,-1,14
 157 196 157 196 180 211 c 0,15,16
 181 212 181 212 188 219 c 128,-1,17
 195 226 195 226 204.5 235 c 128,-1,18
 214 244 214 244 224 252.5 c 128,-1,19
 234 261 234 261 241 266 c 0,20,21
 243 271 243 271 249.5 278 c 128,-1,22
 256 285 256 285 258 285 c 0,23,24
 270 302 270 302 281.5 312 c 128,-1,25
 293 322 293 322 305.5 330 c 128,-1,26
 318 338 318 338 331.5 345 c 128,-1,27
 345 352 345 352 362 363 c 0,28,29
 374 371 374 371 383.5 383.5 c 128,-1,30
 393 396 393 396 401 410.5 c 128,-1,31
 409 425 409 425 416.5 440 c 128,-1,32
 424 455 424 455 434 467 c 0,33,34
 460 499 460 499 482.5 518.5 c 128,-1,35
 505 538 505 538 536 559 c 0,36,37
 550 565 550 565 556 578 c 128,-1,38
 562 591 562 591 571 600 c 0,39,40
 586 610 586 610 601.5 619 c 128,-1,41
 617 628 617 628 632 638 c 128,-1,42
 647 648 647 648 661.5 659.5 c 128,-1,43
 676 671 676 671 689 687 c 0,44,45
 691 689 691 689 695 696.5 c 128,-1,46
 699 704 699 704 703 712 c 128,-1,47
 707 720 707 720 710.5 727.5 c 128,-1,48
 714 735 714 735 715 737 c 0,49,50
 720 744 720 744 735.5 751.5 c 128,-1,51
 751 759 751 759 768 768 c 128,-1,52
 785 777 785 777 799.5 786.5 c 128,-1,53
 814 796 814 796 817 808 c 2,54,-1
 817 839 l 2,55,56
 817 842 817 842 821.5 849 c 128,-1,57
 826 856 826 856 831 864 c 128,-1,58
 836 872 836 872 840.5 879 c 128,-1,59
 845 886 845 886 846 889 c 0,60,61
 848 892 848 892 851.5 895 c 128,-1,62
 855 898 855 898 856 898 c 0,63,64
 874 905 874 905 883 913 c 128,-1,65
 892 921 892 921 898.5 931 c 128,-1,66
 905 941 905 941 912.5 952 c 128,-1,67
 920 963 920 963 936 976 c 0,68,69
 946 984 946 984 957.5 991.5 c 128,-1,70
 969 999 969 999 981 1006.5 c 128,-1,71
 993 1014 993 1014 1003.5 1022.5 c 128,-1,72
 1014 1031 1014 1031 1021 1041 c 0,73,74
 1044 1072 1044 1072 1070.5 1097.5 c 128,-1,75
 1097 1123 1097 1123 1124.5 1146.5 c 128,-1,76
 1152 1170 1152 1170 1180 1193 c 128,-1,77
 1208 1216 1208 1216 1235 1242 c 0,78,79
 1273 1280 1273 1280 1307.5 1317.5 c 128,-1,80
 1342 1355 1342 1355 1372 1394 c 1,81,82
 1405 1413 1405 1413 1438 1413 c 0,83,84
 1467 1413 1467 1413 1485 1391.5 c 128,-1,85
 1503 1370 1503 1370 1503 1342 c 0,86,87
 1503 1313 1503 1313 1495 1287 c 128,-1,88
 1487 1261 1487 1261 1475 1236 c 128,-1,89
 1463 1211 1463 1211 1449.5 1187 c 128,-1,90
 1436 1163 1436 1163 1426 1138 c 0,91,92
 1426 1137 1426 1137 1423 1126.5 c 128,-1,93
 1420 1116 1420 1116 1419 1114 c 0,94,95
 1412 1093 1412 1093 1398 1079 c 128,-1,96
 1384 1065 1384 1065 1379 1048 c 0,97,98
 1379 1046 1379 1046 1378 1040 c 128,-1,99
 1377 1034 1377 1034 1375.5 1027.5 c 128,-1,100
 1374 1021 1374 1021 1373 1015.5 c 128,-1,101
 1372 1010 1372 1010 1372 1009 c 0,102,103
 1369 992 1369 992 1362 978.5 c 128,-1,104
 1355 965 1355 965 1346 952.5 c 128,-1,105
 1337 940 1337 940 1327.5 927 c 128,-1,106
 1318 914 1318 914 1311 898 c 0,107,108
 1291 844 1291 844 1275 789 c 128,-1,109
 1259 734 1259 734 1242 682 c 0,110,111
 1233 652 1233 652 1216.5 619 c 128,-1,112
 1200 586 1200 586 1192 552 c 0,113,114
 1190 550 1190 550 1190 543 c 0,115,116
 1190 534 1190 534 1191 528 c 128,-1,117
 1192 522 1192 522 1192 521 c 0,118,119
 1188 496 1188 496 1172.5 475.5 c 128,-1,120
 1157 455 1157 455 1144 432 c 0,121,122
 1144 431 1144 431 1142 425 c 128,-1,123
 1140 419 1140 419 1140 415 c 0,124,125
 1137 412 1137 412 1133 396 c 128,-1,126
 1129 380 1129 380 1124.5 361 c 128,-1,127
 1120 342 1120 342 1116.5 325 c 128,-1,128
 1113 308 1113 308 1113 303 c 0,129,130
 1107 285 1107 285 1099 270.5 c 128,-1,131
 1091 256 1091 256 1083.5 241.5 c 128,-1,132
 1076 227 1076 227 1071 211.5 c 128,-1,133
 1066 196 1066 196 1066 176 c 0,134,135
 1066 173 1066 173 1067 171 c 0,136,137
 1067 169 1067 169 1068 168 c 0,138,139
 1081 144 1081 144 1101 130 c 128,-1,140
 1121 116 1121 116 1140 102 c 128,-1,141
 1159 88 1159 88 1172 69 c 128,-1,142
 1185 50 1185 50 1185 16 c 1,143,144
 1183 16 1183 16 1177 14 c 128,-1,145
 1171 12 1171 12 1170 10 c 0,146,147
 1167 10 1167 10 1159.5 9.5 c 128,-1,148
 1152 9 1152 9 1143.5 8.5 c 128,-1,149
 1135 8 1135 8 1127.5 7.5 c 128,-1,150
 1120 7 1120 7 1119 7 c 0,151,152
 1081 14 1081 14 1043 16.5 c 128,-1,153
 1005 19 1005 19 967 19 c 0,154,155
 925 19 925 19 883 15.5 c 128,-1,156
 841 12 841 12 798 7 c 0,157,158
 789 5 789 5 784.5 1.5 c 128,-1,159
 780 -2 780 -2 768 -2 c 256,160,161
 756 -2 756 -2 739.5 0 c 128,-1,162
 723 2 723 2 708 8 c 128,-1,163
 693 14 693 14 683 25 c 128,-1,164
 673 36 673 36 673 54 c 0,165,166
 673 84 673 84 692 96 c 128,-1,167
 711 108 711 108 736.5 112.5 c 128,-1,168
 762 117 762 117 787 118.5 c 128,-1,169
 812 120 812 120 825 128 c 0,170,171
 845 144 845 144 855.5 157.5 c 128,-1,172
 866 171 866 171 871.5 185.5 c 128,-1,173
 877 200 877 200 879 217.5 c 128,-1,174
 881 235 881 235 884 259 c 0,175,176
 885 269 885 269 887.5 274.5 c 128,-1,177
 890 280 890 280 893.5 283.5 c 128,-1,178
 897 287 897 287 903 291 c 128,-1,179
 909 295 909 295 917 303 c 0,180,181
 927 315 927 315 935.5 340.5 c 128,-1,182
 944 366 944 366 950 394 c 128,-1,183
 956 422 956 422 959 448 c 128,-1,184
 962 474 962 474 962 488 c 0,185,186
 962 494 962 494 960 503 c 128,-1,187
 958 512 958 512 955 520.5 c 128,-1,188
 952 529 952 529 947 535 c 128,-1,189
 942 541 942 541 936 541 c 2,190,-1
 863 541 l 1,191,192
 842 559 842 559 815 559 c 0,193,194
 806 559 806 559 786 557.5 c 128,-1,195
 766 556 766 556 744.5 554 c 128,-1,196
 723 552 723 552 704.5 548.5 c 128,-1,197
 686 545 686 545 680 541 c 2,198,-1
 630 486 l 1,199,200
 598 459 598 459 575.5 422.5 c 128,-1,201
 553 386 553 386 528 349 c 0,202,203
 517 338 517 338 493 312 c 128,-1,204
 469 286 469 286 444 256.5 c 128,-1,205
 419 227 419 227 400 199 c 128,-1,206
 381 171 381 171 381 157 c 0,207,208
 381 136 381 136 397.5 127.5 c 128,-1,209
 414 119 414 119 434.5 113 c 128,-1,210
 455 107 455 107 471.5 100.5 c 128,-1,211
 488 94 488 94 488 78 c 0,212,213
 488 69 488 69 484.5 58 c 128,-1,214
 481 47 481 47 475.5 37 c 128,-1,215
 470 27 470 27 463 19 c 128,-1,216
 456 11 456 11 448 7 c 0,217,218
 412 4 412 4 381.5 -2.5 c 128,-1,219
 351 -9 351 -9 317 -9 c 2,220,-1
 215 0 l 2,221,222
 198 0 198 0 182.5 -8 c 128,-1,223
 167 -16 167 -16 147 -16 c 0,224,225
 146 -16 146 -16 141 -14 c 128,-1,226
 136 -12 136 -12 130.5 -9 c 128,-1,227
 125 -6 125 -6 119.5 -3.5 c 128,-1,228
 114 -1 114 -1 111 0 c 0,229,230
 99 0 99 0 87 -4.5 c 128,-1,231
 75 -9 75 -9 64 -14 c 128,-1,232
 53 -19 53 -19 41 -23.5 c 128,-1,233
 29 -28 29 -28 17 -28 c 2,234,-1
 -40 -22 l 2,235,236
 -53 -22 -53 -22 -64 -25 c 128,-1,237
 -75 -28 -75 -28 -86 -28 c 0,238,239
 -92 -28 -92 -28 -107 -23.5 c 128,-1,240
 -122 -19 -122 -19 -138 -12 c 128,-1,241
 -154 -5 -154 -5 -166 3 c 128,-1,242
 -178 11 -178 11 -178 17 c 0,0,1
922 747 m 0,243,244
 922 718 922 718 934 702.5 c 128,-1,245
 946 687 946 687 978 687 c 0,246,247
 1007 687 1007 687 1033.5 705.5 c 128,-1,248
 1060 724 1060 724 1080 747 c 0,249,250
 1088 757 1088 757 1090.5 771 c 128,-1,251
 1093 785 1093 785 1095.5 798.5 c 128,-1,252
 1098 812 1098 812 1102.5 824 c 128,-1,253
 1107 836 1107 836 1119 844 c 2,254,-1
 1140 860 l 2,255,256
 1143 865 1143 865 1144.5 875.5 c 128,-1,257
 1146 886 1146 886 1148 897.5 c 128,-1,258
 1150 909 1150 909 1151.5 920 c 128,-1,259
 1153 931 1153 931 1156 938 c 0,260,261
 1160 940 1160 940 1166.5 947.5 c 128,-1,262
 1173 955 1173 955 1175 957 c 0,263,264
 1175 970 1175 970 1172 973 c 128,-1,265
 1169 976 1169 976 1163 976 c 0,266,267
 1136 976 1136 976 1119.5 968 c 128,-1,268
 1103 960 1103 960 1091.5 948.5 c 128,-1,269
 1080 937 1080 937 1070.5 925 c 128,-1,270
 1061 913 1061 913 1049 905 c 0,271,272
 1048 904 1048 904 1043 902 c 128,-1,273
 1038 900 1038 900 1032 897.5 c 128,-1,274
 1026 895 1026 895 1020.5 892.5 c 128,-1,275
 1015 890 1015 890 1014 889 c 0,276,277
 1013 887 1013 887 1012 886 c 0,278,279
 1011 884 1011 884 1010 883.5 c 128,-1,280
 1009 883 1009 883 1009 882 c 2,281,-1
 1004 874 l 2,282,283
 991 860 991 860 976.5 846 c 128,-1,284
 962 832 962 832 950 817 c 128,-1,285
 938 802 938 802 930 785 c 128,-1,286
 922 768 922 768 922 747 c 0,243,244
EndSplineSet
EndChar

StartChar: B
Encoding: 66 66 37
Width: 1275
GlyphClass: 1
Flags: W
LayerCount: 2
Fore
SplineSet
186 9 m 1,0,1
 179 9 179 9 162.5 11.5 c 128,-1,2
 146 14 146 14 127 17 c 128,-1,3
 108 20 108 20 92 23 c 128,-1,4
 76 26 76 26 70 28 c 0,5,6
 67 28 67 28 59 29.5 c 128,-1,7
 51 31 51 31 49 33 c 0,8,9
 45 33 45 33 44 36 c 2,10,-1
 42 40 l 1,11,-1
 42 92 l 2,12,13
 42 95 42 95 48 99 c 128,-1,14
 54 103 54 103 62 108 c 0,15,16
 71 113 71 113 82 119 c 0,17,18
 83 120 83 120 87.5 123 c 128,-1,19
 92 126 92 126 97.5 129.5 c 128,-1,20
 103 133 103 133 108.5 135.5 c 128,-1,21
 114 138 114 138 116 138 c 0,22,23
 120 139 120 139 133.5 142.5 c 128,-1,24
 147 146 147 146 163 149 c 128,-1,25
 179 152 179 152 194 155 c 128,-1,26
 209 158 209 158 215 159 c 0,27,28
 229 168 229 168 241 190.5 c 128,-1,29
 253 213 253 213 258 228 c 0,30,31
 273 264 273 264 284 302 c 128,-1,32
 295 340 295 340 305.5 378.5 c 128,-1,33
 316 417 316 417 327 454.5 c 128,-1,34
 338 492 338 492 352 528 c 0,35,36
 360 559 360 559 375 589 c 128,-1,37
 390 619 390 619 402 649 c 0,38,39
 408 662 408 662 411 676 c 128,-1,40
 414 690 414 690 416 704.5 c 128,-1,41
 418 719 418 719 420.5 734 c 128,-1,42
 423 749 423 749 428 763 c 0,43,44
 454 836 454 836 475.5 910 c 128,-1,45
 497 984 497 984 520 1059 c 0,46,47
 526 1078 526 1078 535 1097.5 c 128,-1,48
 544 1117 544 1117 552.5 1137 c 128,-1,49
 561 1157 561 1157 567 1176.5 c 128,-1,50
 573 1196 573 1196 573 1216 c 0,51,52
 573 1266 573 1266 548 1289.5 c 128,-1,53
 523 1313 523 1313 486 1323 c 128,-1,54
 449 1333 449 1333 407 1336.5 c 128,-1,55
 365 1340 365 1340 331 1351 c 0,56,57
 319 1358 319 1358 315.5 1363.5 c 128,-1,58
 312 1369 312 1369 312 1377 c 0,59,60
 312 1386 312 1386 317.5 1395.5 c 128,-1,61
 323 1405 323 1405 331 1413 c 128,-1,62
 339 1421 339 1421 348 1426 c 128,-1,63
 357 1431 357 1431 364 1431 c 2,64,-1
 366 1431 l 2,65,66
 372 1429 372 1429 379.5 1427.5 c 128,-1,67
 387 1426 387 1426 390 1426 c 2,68,-1
 592 1417 l 2,69,70
 605 1417 605 1417 615.5 1417 c 128,-1,71
 626 1417 626 1417 637 1419 c 1,72,73
 642 1410 642 1410 651 1406 c 128,-1,74
 660 1402 660 1402 670.5 1400 c 128,-1,75
 681 1398 681 1398 691.5 1397.5 c 128,-1,76
 702 1397 702 1397 710 1396 c 2,77,-1
 793 1396 l 1,78,79
 804 1385 804 1385 813.5 1383.5 c 128,-1,80
 823 1382 823 1382 836 1382 c 0,81,82
 850 1382 850 1382 861.5 1389 c 128,-1,83
 873 1396 873 1396 886 1396 c 0,84,85
 898 1396 898 1396 920.5 1392.5 c 128,-1,86
 943 1389 943 1389 966 1382.5 c 128,-1,87
 989 1376 989 1376 1008.5 1367 c 128,-1,88
 1028 1358 1028 1358 1033 1346 c 1,89,90
 1049 1349 1049 1349 1063 1349 c 0,91,92
 1091 1349 1091 1349 1114.5 1335.5 c 128,-1,93
 1138 1322 1138 1322 1156 1301.5 c 128,-1,94
 1174 1281 1174 1281 1187.5 1256.5 c 128,-1,95
 1201 1232 1201 1232 1210 1209 c 0,96,97
 1214 1199 1214 1199 1218 1192.5 c 128,-1,98
 1222 1186 1222 1186 1225 1180 c 128,-1,99
 1228 1174 1228 1174 1229.5 1167 c 128,-1,100
 1231 1160 1231 1160 1231 1150 c 0,101,102
 1231 1129 1231 1129 1222 1106.5 c 128,-1,103
 1213 1084 1213 1084 1200.5 1061.5 c 128,-1,104
 1188 1039 1188 1039 1173.5 1019 c 128,-1,105
 1159 999 1159 999 1148 984 c 0,106,107
 1142 979 1142 979 1127 962 c 128,-1,108
 1112 945 1112 945 1095.5 924 c 128,-1,109
 1079 903 1079 903 1063.5 884 c 128,-1,110
 1048 865 1048 865 1042 856 c 0,111,112
 1022 831 1022 831 1005 809 c 128,-1,113
 988 787 988 787 988 756 c 0,114,115
 988 755 988 755 988 750.5 c 128,-1,116
 988 746 988 746 988 740.5 c 128,-1,117
 988 735 988 735 988.5 730.5 c 128,-1,118
 989 726 989 726 990 725 c 2,119,-1
 1056 666 l 1,120,121
 1095 605 1095 605 1113.5 541.5 c 128,-1,122
 1132 478 1132 478 1132 403 c 0,123,124
 1132 389 1132 389 1125 381 c 128,-1,125
 1118 373 1118 373 1118 356 c 2,126,-1
 1127 298 l 2,127,128
 1125 291 1125 291 1121 278 c 128,-1,129
 1117 265 1117 265 1111.5 251 c 128,-1,130
 1106 237 1106 237 1099.5 225 c 128,-1,131
 1093 213 1093 213 1087 209 c 0,132,133
 1086 209 1086 209 1080.5 206.5 c 128,-1,134
 1075 204 1075 204 1068.5 200.5 c 128,-1,135
 1062 197 1062 197 1056.5 194 c 128,-1,136
 1051 191 1051 191 1051 189 c 0,137,138
 1049 188 1049 188 1045.5 183.5 c 128,-1,139
 1042 179 1042 179 1038.5 174 c 128,-1,140
 1035 169 1035 169 1032 164.5 c 128,-1,141
 1029 160 1029 160 1028 159 c 0,142,143
 1014 142 1014 142 1004.5 134.5 c 128,-1,144
 995 127 995 127 985 122.5 c 128,-1,145
 975 118 975 118 963.5 113.5 c 128,-1,146
 952 109 952 109 936 99 c 0,147,148
 935 97 935 97 932 93 c 128,-1,149
 929 89 929 89 926 84.5 c 128,-1,150
 923 80 923 80 921 76.5 c 128,-1,151
 919 73 919 73 919 73 c 2,152,153
 912 66 912 66 900.5 59 c 128,-1,154
 889 52 889 52 876 46.5 c 128,-1,155
 863 41 863 41 851 36.5 c 128,-1,156
 839 32 839 32 831 29 c 2,157,-1
 827 28 l 1,158,-1
 796 28 l 1,159,-1
 570 9 l 1,160,-1
 471 16 l 1,161,-1
 430 9 l 1,162,-1
 352 16 l 2,163,164
 314 16 314 16 279 8 c 128,-1,165
 244 0 244 0 212 0 c 0,166,167
 202 0 202 0 197 1 c 128,-1,168
 192 2 192 2 186 9 c 1,0,1
480 183 m 0,169,170
 480 162 480 162 491 150 c 128,-1,171
 502 138 502 138 518 132.5 c 128,-1,172
 534 127 534 127 552 126 c 128,-1,173
 570 125 570 125 584 125 c 2,174,-1
 623 125 l 2,175,176
 626 125 626 125 634 129.5 c 128,-1,177
 642 134 642 134 650.5 138.5 c 128,-1,178
 659 143 659 143 666.5 147.5 c 128,-1,179
 674 152 674 152 675 152 c 2,180,-1
 717 154 l 2,181,182
 744 156 744 156 757.5 169 c 128,-1,183
 771 182 771 182 788 195 c 0,184,185
 806 209 806 209 824 219.5 c 128,-1,186
 842 230 842 230 858 242.5 c 128,-1,187
 874 255 874 255 886.5 271.5 c 128,-1,188
 899 288 899 288 905 313 c 0,189,190
 906 320 906 320 906.5 330 c 128,-1,191
 907 340 907 340 908.5 350.5 c 128,-1,192
 910 361 910 361 913 370.5 c 128,-1,193
 916 380 916 380 924 386 c 1,194,195
 926 404 926 404 931 430.5 c 128,-1,196
 936 457 936 457 936 483 c 1,197,198
 936 483 936 483 934.5 487.5 c 128,-1,199
 933 492 933 492 931 496.5 c 128,-1,200
 929 501 929 501 927 505.5 c 128,-1,201
 925 510 925 510 924 510 c 0,202,203
 914 537 914 537 903 560.5 c 128,-1,204
 892 584 892 584 879 605 c 128,-1,205
 866 626 866 626 851 646.5 c 128,-1,206
 836 667 836 667 819 689 c 2,207,-1
 807 704 l 1,208,209
 786 713 786 713 760 719 c 128,-1,210
 734 725 734 725 712 725 c 0,211,212
 705 725 705 725 688 720.5 c 128,-1,213
 671 716 671 716 653 709 c 128,-1,214
 635 702 635 702 620.5 693.5 c 128,-1,215
 606 685 606 685 604 678 c 0,216,217
 600 623 600 623 589.5 574 c 128,-1,218
 579 525 579 525 568 477 c 1,219,220
 554 473 554 473 548.5 458.5 c 128,-1,221
 543 444 543 444 541.5 426 c 128,-1,222
 540 408 540 408 540.5 391.5 c 128,-1,223
 541 375 541 375 539 367 c 2,224,-1
 525 346 l 2,225,226
 525 345 525 345 524.5 337.5 c 128,-1,227
 524 330 524 330 523 322 c 128,-1,228
 522 314 522 314 521 306.5 c 128,-1,229
 520 299 520 299 520 298 c 0,230,231
 518 291 518 291 512.5 275.5 c 128,-1,232
 507 260 507 260 501 242 c 128,-1,233
 495 224 495 224 489 208 c 128,-1,234
 483 192 483 192 480 183 c 0,169,170
675 851 m 0,235,236
 675 843 675 843 678.5 832.5 c 128,-1,237
 682 822 682 822 688 813 c 128,-1,238
 694 804 694 804 701 798 c 128,-1,239
 708 792 708 792 715 792 c 0,240,241
 736 792 736 792 762.5 793.5 c 128,-1,242
 789 795 789 795 815.5 799 c 128,-1,243
 842 803 842 803 867 810.5 c 128,-1,244
 892 818 892 818 912 830 c 0,245,246
 940 848 940 848 962.5 888 c 128,-1,247
 985 928 985 928 1000.5 974.5 c 128,-1,248
 1016 1021 1016 1021 1024.5 1066.5 c 128,-1,249
 1033 1112 1033 1112 1033 1142 c 2,250,-1
 1033 1150 l 1,251,-1
 985 1247 l 2,252,253
 980 1253 980 1253 972 1261 c 128,-1,254
 964 1269 964 1269 954 1276.5 c 128,-1,255
 944 1284 944 1284 934.5 1289 c 128,-1,256
 925 1294 925 1294 919 1294 c 0,257,258
 868 1294 868 1294 842.5 1280.5 c 128,-1,259
 817 1267 817 1267 805 1244 c 128,-1,260
 793 1221 793 1221 787 1189 c 128,-1,261
 781 1157 781 1157 769 1121 c 0,262,263
 762 1106 762 1106 754.5 1087 c 128,-1,264
 747 1068 747 1068 740 1048 c 128,-1,265
 733 1028 733 1028 726.5 1008 c 128,-1,266
 720 988 720 988 715 972 c 2,267,-1
 713 965 l 1,268,-1
 713 915 l 2,269,270
 713 904 713 904 707 897 c 128,-1,271
 701 890 701 890 694 883.5 c 128,-1,272
 687 877 687 877 681 869.5 c 128,-1,273
 675 862 675 862 675 851 c 0,235,236
EndSplineSet
EndChar

StartChar: C
Encoding: 67 67 38
Width: 1024
GlyphClass: 1
Flags: W
LayerCount: 2
Fore
SplineSet
142 313 m 0,0,1
 142 380 142 380 154 448.5 c 128,-1,2
 166 517 166 517 186 584.5 c 128,-1,3
 206 652 206 652 232 717 c 128,-1,4
 258 782 258 782 286 843 c 0,5,6
 300 872 300 872 321 904 c 128,-1,7
 342 936 342 936 351 965 c 2,8,-1
 357 983 l 2,9,10
 364 1005 364 1005 372 1027.5 c 128,-1,11
 380 1050 380 1050 390.5 1072 c 128,-1,12
 401 1094 401 1094 415 1114 c 128,-1,13
 429 1134 429 1134 448 1150 c 0,14,15
 451 1151 451 1151 460.5 1158.5 c 128,-1,16
 470 1166 470 1166 481.5 1175 c 128,-1,17
 493 1184 493 1184 502 1191.5 c 128,-1,18
 511 1199 511 1199 512 1202 c 0,19,20
 515 1203 515 1203 519 1209.5 c 128,-1,21
 523 1216 523 1216 527.5 1223.5 c 128,-1,22
 532 1231 532 1231 535.5 1237.5 c 128,-1,23
 539 1244 539 1244 540 1246 c 0,24,25
 555 1264 555 1264 574 1282.5 c 128,-1,26
 593 1301 593 1301 614 1319 c 128,-1,27
 635 1337 635 1337 656 1353 c 128,-1,28
 677 1369 677 1369 697 1382 c 0,29,30
 711 1391 711 1391 725 1393.5 c 128,-1,31
 739 1396 739 1396 756 1401 c 0,32,33
 757 1402 757 1402 765.5 1407 c 128,-1,34
 774 1412 774 1412 784.5 1418 c 128,-1,35
 795 1424 795 1424 804.5 1429 c 128,-1,36
 814 1434 814 1434 818 1434 c 0,37,38
 836 1434 836 1434 869 1429 c 128,-1,39
 902 1424 902 1424 937.5 1415 c 128,-1,40
 973 1406 973 1406 1004 1394 c 128,-1,41
 1035 1382 1035 1382 1047 1368 c 1,42,-1
 1171 1368 l 2,43,44
 1175 1368 1175 1368 1179 1363 c 128,-1,45
 1183 1358 1183 1358 1186 1351 c 128,-1,46
 1189 1344 1189 1344 1190.5 1338 c 128,-1,47
 1192 1332 1192 1332 1192 1329 c 0,48,49
 1192 1314 1192 1314 1185 1289 c 128,-1,50
 1178 1264 1178 1264 1169 1237.5 c 128,-1,51
 1160 1211 1160 1211 1151.5 1187 c 128,-1,52
 1143 1163 1143 1163 1140 1150 c 0,53,54
 1135 1131 1135 1131 1132 1107 c 128,-1,55
 1129 1083 1129 1083 1121.5 1062 c 128,-1,56
 1114 1041 1114 1041 1098.5 1026.5 c 128,-1,57
 1083 1012 1083 1012 1052 1012 c 0,58,59
 1045 1012 1045 1012 1038 1019.5 c 128,-1,60
 1031 1027 1031 1027 1025.5 1036.5 c 128,-1,61
 1020 1046 1020 1046 1015.5 1056.5 c 128,-1,62
 1011 1067 1011 1067 1010 1073 c 0,63,64
 1009 1074 1009 1074 1006 1081.5 c 128,-1,65
 1003 1089 1003 1089 1000 1099 c 128,-1,66
 997 1109 997 1109 994 1119.5 c 128,-1,67
 991 1130 991 1130 990 1137 c 2,68,-1
 990 1140 l 2,69,70
 990 1154 990 1154 997 1167 c 128,-1,71
 1004 1180 1004 1180 1004 1197 c 0,72,73
 1004 1207 1004 1207 1000.5 1224.5 c 128,-1,74
 997 1242 997 1242 991 1260 c 128,-1,75
 985 1278 985 1278 976.5 1294 c 128,-1,76
 968 1310 968 1310 957 1317 c 1,77,-1
 931 1317 l 2,78,79
 919 1319 919 1319 910.5 1320.5 c 128,-1,80
 902 1322 902 1322 891 1322 c 0,81,82
 874 1322 874 1322 857 1319 c 128,-1,83
 840 1316 840 1316 815 1311 c 1,84,85
 799 1297 799 1297 786 1282.5 c 128,-1,86
 773 1268 773 1268 760.5 1253 c 128,-1,87
 748 1238 748 1238 734.5 1223 c 128,-1,88
 721 1208 721 1208 704 1195 c 0,89,90
 694 1187 694 1187 685.5 1171.5 c 128,-1,91
 677 1156 677 1156 670 1139 c 128,-1,92
 663 1122 663 1122 657 1105.5 c 128,-1,93
 651 1089 651 1089 645 1078 c 2,94,-1
 597 1007 l 2,95,96
 584 984 584 984 567.5 955 c 128,-1,97
 551 926 551 926 540 900 c 0,98,99
 540 898 540 898 538 891.5 c 128,-1,100
 536 885 536 885 535 882 c 0,101,102
 528 859 528 859 516.5 836.5 c 128,-1,103
 505 814 505 814 492 792 c 128,-1,104
 479 770 479 770 467 747 c 128,-1,105
 455 724 455 724 448 699 c 0,106,107
 448 697 448 697 449 685 c 128,-1,108
 450 673 450 673 450 663 c 0,109,110
 450 658 450 658 450 653.5 c 128,-1,111
 450 649 450 649 448 647 c 0,112,113
 447 638 447 638 443 630 c 128,-1,114
 439 622 439 622 433.5 614 c 128,-1,115
 428 606 428 606 423 598 c 128,-1,116
 418 590 418 590 415 581 c 2,117,-1
 403 510 l 2,118,119
 398 488 398 488 383 467 c 128,-1,120
 368 446 368 446 360 426 c 0,121,122
 359 420 359 420 357.5 407 c 128,-1,123
 356 394 356 394 354.5 379.5 c 128,-1,124
 353 365 353 365 352 352.5 c 128,-1,125
 351 340 351 340 351 336 c 0,126,127
 351 306 351 306 366 269.5 c 128,-1,128
 381 233 381 233 404 201 c 128,-1,129
 427 169 427 169 455.5 147.5 c 128,-1,130
 484 126 484 126 510 126 c 0,131,132
 518 126 518 126 522 127 c 128,-1,133
 526 128 526 128 529.5 130 c 128,-1,134
 533 132 533 132 538 136 c 128,-1,135
 543 140 543 140 554 145 c 2,136,-1
 635 185 l 2,137,138
 658 199 658 199 686 232.5 c 128,-1,139
 714 266 714 266 743.5 300 c 128,-1,140
 773 334 773 334 801.5 360 c 128,-1,141
 830 386 830 386 853 386 c 0,142,143
 862 386 862 386 864.5 379.5 c 128,-1,144
 867 373 867 373 867 365 c 0,145,146
 867 360 867 360 866 354 c 128,-1,147
 865 348 865 348 865 346 c 0,148,149
 865 325 865 325 856.5 302.5 c 128,-1,150
 848 280 848 280 834.5 258.5 c 128,-1,151
 821 237 821 237 805 217.5 c 128,-1,152
 789 198 789 198 773 185 c 0,153,154
 767 179 767 179 752 165 c 128,-1,155
 737 151 737 151 720 135.5 c 128,-1,156
 703 120 703 120 687 106 c 128,-1,157
 671 92 671 92 664 88 c 0,158,159
 662 87 662 87 656 84 c 128,-1,160
 650 81 650 81 644 77.5 c 128,-1,161
 638 74 638 74 632.5 71 c 128,-1,162
 627 68 627 68 626 67 c 2,163,-1
 592 42 l 2,164,165
 587 37 587 37 580.5 36 c 128,-1,166
 574 35 574 35 569 35 c 2,167,-1
 550 35 l 1,168,-1
 535 33 l 2,169,170
 524 31 524 31 515 26.5 c 128,-1,171
 506 22 506 22 497 16 c 0,172,173
 486 8 486 8 474.5 1.5 c 128,-1,174
 463 -5 463 -5 438 -5 c 0,175,176
 436 -5 436 -5 432 -2.5 c 128,-1,177
 428 0 428 0 423.5 2.5 c 128,-1,178
 419 5 419 5 415 7.5 c 128,-1,179
 411 10 411 10 410 10 c 0,180,181
 407 10 407 10 395 11 c 128,-1,182
 383 12 383 12 369 13 c 128,-1,183
 355 14 355 14 342.5 15.5 c 128,-1,184
 330 17 330 17 327 17 c 0,185,186
 280 28 280 28 255 53.5 c 128,-1,187
 230 79 230 79 216.5 111.5 c 128,-1,188
 203 144 203 144 194.5 180 c 128,-1,189
 186 216 186 216 171 249 c 0,190,191
 171 250 171 250 167.5 253.5 c 128,-1,192
 164 257 164 257 160.5 261.5 c 128,-1,193
 157 266 157 266 154 270 c 128,-1,194
 151 274 151 274 151 275 c 0,195,196
 146 279 146 279 144 294 c 128,-1,197
 142 309 142 309 142 313 c 0,0,1
EndSplineSet
EndChar

StartChar: D
Encoding: 68 68 39
Width: 1448
GlyphClass: 1
Flags: W
LayerCount: 2
Fore
SplineSet
522 1247 m 2,0,1
 520 1250 520 1250 514.5 1258.5 c 128,-1,2
 509 1267 509 1267 503 1277.5 c 128,-1,3
 497 1288 497 1288 491.5 1296.5 c 128,-1,4
 486 1305 486 1305 483 1308 c 0,5,6
 483 1309 483 1309 481.5 1309.5 c 128,-1,7
 480 1310 480 1310 473.5 1311 c 128,-1,8
 467 1312 467 1312 454 1312.5 c 128,-1,9
 441 1313 441 1313 419 1313 c 0,10,11
 415 1314 415 1314 404 1317 c 128,-1,12
 393 1320 393 1320 382 1324.5 c 128,-1,13
 371 1329 371 1329 362 1334.5 c 128,-1,14
 353 1340 353 1340 353 1346 c 0,15,16
 353 1359 353 1359 361 1364.5 c 128,-1,17
 369 1370 369 1370 381 1379 c 0,18,19
 392 1386 392 1386 401 1386 c 2,20,-1
 438 1384 l 1,21,22
 438 1384 438 1384 442 1386.5 c 128,-1,23
 446 1389 446 1389 451 1392 c 128,-1,24
 456 1395 456 1395 460.5 1397.5 c 128,-1,25
 465 1400 465 1400 467 1400 c 0,26,27
 485 1404 485 1404 512.5 1406.5 c 128,-1,28
 540 1409 540 1409 571 1410.5 c 128,-1,29
 602 1412 602 1412 631.5 1412 c 128,-1,30
 661 1412 661 1412 682 1412 c 0,31,32
 711 1412 711 1412 725.5 1409.5 c 128,-1,33
 740 1407 740 1407 756 1398 c 1,34,35
 781 1400 781 1400 804.5 1401.5 c 128,-1,36
 828 1403 828 1403 851 1403 c 0,37,38
 871 1403 871 1403 891 1402 c 128,-1,39
 911 1401 911 1401 929 1400 c 1,40,41
 941 1393 941 1393 954 1390.5 c 128,-1,42
 967 1388 967 1388 980 1387 c 128,-1,43
 993 1386 993 1386 1006 1384.5 c 128,-1,44
 1019 1383 1019 1383 1031 1379 c 2,45,-1
 1163 1313 l 2,46,47
 1164 1312 1164 1312 1170.5 1310.5 c 128,-1,48
 1177 1309 1177 1309 1184.5 1307 c 128,-1,49
 1192 1305 1192 1305 1198.5 1303.5 c 128,-1,50
 1205 1302 1205 1302 1206 1301 c 0,51,52
 1218 1297 1218 1297 1225.5 1290.5 c 128,-1,53
 1233 1284 1233 1284 1238.5 1275.5 c 128,-1,54
 1244 1267 1244 1267 1249 1258.5 c 128,-1,55
 1254 1250 1254 1250 1261 1242 c 0,56,57
 1300 1199 1300 1199 1332.5 1155 c 128,-1,58
 1365 1111 1365 1111 1379 1052 c 0,59,60
 1379 1050 1379 1050 1379.5 1044 c 128,-1,61
 1380 1038 1380 1038 1380.5 1030.5 c 128,-1,62
 1381 1023 1381 1023 1382 1016.5 c 128,-1,63
 1383 1010 1383 1010 1384 1009 c 0,64,65
 1387 997 1387 997 1393.5 987 c 128,-1,66
 1400 977 1400 977 1406.5 967 c 128,-1,67
 1413 957 1413 957 1417.5 947 c 128,-1,68
 1422 937 1422 937 1422 924 c 0,69,70
 1422 916 1422 916 1420.5 903.5 c 128,-1,71
 1419 891 1419 891 1417 886 c 0,72,73
 1419 882 1419 882 1422 874.5 c 128,-1,74
 1425 867 1425 867 1427 865 c 0,75,76
 1431 848 1431 848 1433.5 831.5 c 128,-1,77
 1436 815 1436 815 1436 798 c 256,78,79
 1436 781 1436 781 1433.5 763 c 128,-1,80
 1431 745 1431 745 1427 728 c 1,81,82
 1427 728 1427 728 1428 723 c 128,-1,83
 1429 718 1429 718 1429.5 712 c 128,-1,84
 1430 706 1430 706 1431 700.5 c 128,-1,85
 1432 695 1432 695 1432 694 c 2,86,-1
 1432 692 l 2,87,88
 1432 668 1432 668 1424.5 643.5 c 128,-1,89
 1417 619 1417 619 1406.5 595.5 c 128,-1,90
 1396 572 1396 572 1384 549 c 128,-1,91
 1372 526 1372 526 1363 505 c 2,92,-1
 1351 474 l 2,93,94
 1343 452 1343 452 1329 427.5 c 128,-1,95
 1315 403 1315 403 1297.5 379 c 128,-1,96
 1280 355 1280 355 1262 332.5 c 128,-1,97
 1244 310 1244 310 1228 291 c 0,98,99
 1192 249 1192 249 1156 206 c 128,-1,100
 1120 163 1120 163 1071 133 c 0,101,102
 1069 131 1069 131 1058 128.5 c 128,-1,103
 1047 126 1047 126 1045 126 c 2,104,-1
 967 83 l 2,105,106
 937 70 937 70 906 67 c 128,-1,107
 875 64 875 64 842 57 c 1,108,-1
 797 35 l 2,109,110
 795 35 795 35 785 34 c 128,-1,111
 775 33 775 33 764 32 c 128,-1,112
 753 31 753 31 743.5 29.5 c 128,-1,113
 734 28 734 28 733 28 c 0,114,115
 670 21 670 21 603.5 9 c 128,-1,116
 537 -3 537 -3 467 -3 c 0,117,118
 459 -3 459 -3 440 -2 c 128,-1,119
 421 -1 421 -1 400 0 c 128,-1,120
 379 1 379 1 360.5 2 c 128,-1,121
 342 3 342 3 336 3 c 0,122,123
 319 15 319 15 305.5 17 c 128,-1,124
 292 19 292 19 275 19 c 0,125,126
 253 19 253 19 233 14.5 c 128,-1,127
 213 10 213 10 194 4.5 c 128,-1,128
 175 -1 175 -1 157 -5.5 c 128,-1,129
 139 -10 139 -10 121 -10 c 0,130,131
 110 -10 110 -10 95.5 -4.5 c 128,-1,132
 81 1 81 1 67.5 10 c 128,-1,133
 54 19 54 19 44.5 31 c 128,-1,134
 35 43 35 43 35 57 c 0,135,136
 35 60 35 60 35 67 c 128,-1,137
 35 74 35 74 36.5 81 c 128,-1,138
 38 88 38 88 40.5 93.5 c 128,-1,139
 43 99 43 99 48 100 c 0,140,141
 96 134 96 134 150 142 c 0,142,143
 190 148 190 148 216 172 c 128,-1,144
 242 196 242 196 259 229.5 c 128,-1,145
 276 263 276 263 287 300.5 c 128,-1,146
 298 338 298 338 308 370 c 0,147,148
 316 393 316 393 326.5 418.5 c 128,-1,149
 337 444 337 444 339 469 c 0,150,151
 343 482 343 482 343 492.5 c 128,-1,152
 343 503 343 503 343.5 512.5 c 128,-1,153
 344 522 344 522 347.5 532 c 128,-1,154
 351 542 351 542 362 554 c 1,155,156
 364 588 364 588 372.5 627.5 c 128,-1,157
 381 667 381 667 394 699 c 0,158,159
 397 715 397 715 405 730.5 c 128,-1,160
 413 746 413 746 421.5 762 c 128,-1,161
 430 778 430 778 437 794 c 128,-1,162
 444 810 444 810 446 827 c 0,163,164
 448 849 448 849 448.5 873 c 128,-1,165
 449 897 449 897 450.5 921 c 128,-1,166
 452 945 452 945 455.5 968.5 c 128,-1,167
 459 992 459 992 467 1014 c 0,168,169
 475 1041 475 1041 484.5 1067.5 c 128,-1,170
 494 1094 494 1094 502.5 1121 c 128,-1,171
 511 1148 511 1148 516.5 1176.5 c 128,-1,172
 522 1205 522 1205 522 1235 c 2,173,-1
 522 1247 l 2,0,1
477 213 m 2,174,175
 478 212 478 212 482 203 c 128,-1,176
 486 194 486 194 491.5 181 c 128,-1,177
 497 168 497 168 502.5 155 c 128,-1,178
 508 142 508 142 512 133 c 0,179,180
 515 124 515 124 526.5 117 c 128,-1,181
 538 110 538 110 552.5 104 c 128,-1,182
 567 98 567 98 583 93.5 c 128,-1,183
 599 89 599 89 611 86 c 0,184,185
 614 86 614 86 626 83 c 0,186,187
 628 82 628 82 630 82 c 0,188,189
 632 81 632 81 638 81 c 0,190,191
 656 81 656 81 674 89 c 128,-1,192
 692 97 692 97 709 109 c 128,-1,193
 726 121 726 121 741.5 134 c 128,-1,194
 757 147 757 147 772 156 c 0,195,196
 774 156 774 156 779.5 157 c 128,-1,197
 785 158 785 158 791.5 159.5 c 128,-1,198
 798 161 798 161 803.5 162.5 c 128,-1,199
 809 164 809 164 811 164 c 0,200,201
 825 174 825 174 842 188.5 c 128,-1,202
 859 203 859 203 876 219 c 128,-1,203
 893 235 893 235 908 250.5 c 128,-1,204
 923 266 923 266 934 279 c 0,205,206
 939 284 939 284 940 291 c 128,-1,207
 941 298 941 298 941.5 305.5 c 128,-1,208
 942 313 942 313 944 320 c 128,-1,209
 946 327 946 327 953 332 c 0,210,211
 970 341 970 341 979 349.5 c 128,-1,212
 988 358 988 358 993.5 367.5 c 128,-1,213
 999 377 999 377 1003 388.5 c 128,-1,214
 1007 400 1007 400 1015 415 c 0,215,216
 1020 421 1020 421 1030.5 437 c 128,-1,217
 1041 453 1041 453 1052.5 470.5 c 128,-1,218
 1064 488 1064 488 1075 503.5 c 128,-1,219
 1086 519 1086 519 1092 524 c 1,220,221
 1106 565 1106 565 1119 611 c 128,-1,222
 1132 657 1132 657 1137 699 c 0,223,224
 1138 707 1138 707 1142.5 714 c 128,-1,225
 1147 721 1147 721 1151.5 727.5 c 128,-1,226
 1156 734 1156 734 1159.5 740.5 c 128,-1,227
 1163 747 1163 747 1163 754 c 0,228,229
 1167 784 1167 784 1170 813 c 128,-1,230
 1173 842 1173 842 1173 868 c 0,231,232
 1173 893 1173 893 1170 915 c 128,-1,233
 1167 937 1167 937 1163 957 c 0,234,235
 1161 962 1161 962 1157.5 972.5 c 128,-1,236
 1154 983 1154 983 1149 996 c 0,237,238
 1144 1011 1144 1011 1139 1025 c 128,-1,239
 1134 1039 1134 1039 1131 1047 c 0,240,241
 1130 1048 1130 1048 1128 1058 c 0,242,243
 1127 1062 1127 1062 1126 1067 c 2,244,-1
 1126 1105 l 2,245,246
 1124 1108 1124 1108 1112.5 1128.5 c 128,-1,247
 1101 1149 1101 1149 1088 1172.5 c 128,-1,248
 1075 1196 1075 1196 1063.5 1215 c 128,-1,249
 1052 1234 1052 1234 1050 1235 c 0,250,251
 1033 1265 1033 1265 1011.5 1284.5 c 128,-1,252
 990 1304 990 1304 967 1320 c 0,253,254
 951 1332 951 1332 938 1332 c 2,255,-1
 903 1332 l 2,256,257
 892 1335 892 1335 879 1340.5 c 128,-1,258
 866 1346 866 1346 852.5 1352 c 128,-1,259
 839 1358 839 1358 825 1362.5 c 128,-1,260
 811 1367 811 1367 799 1367 c 0,261,262
 781 1367 781 1367 773.5 1360.5 c 128,-1,263
 766 1354 766 1354 763.5 1344.5 c 128,-1,264
 761 1335 761 1335 760.5 1323 c 128,-1,265
 760 1311 760 1311 756 1301 c 0,266,267
 756 1297 756 1297 751.5 1287 c 128,-1,268
 747 1277 747 1277 746 1275 c 0,269,270
 745 1272 745 1272 743 1262 c 128,-1,271
 741 1252 741 1252 738.5 1240 c 128,-1,272
 736 1228 736 1228 734.5 1217.5 c 128,-1,273
 733 1207 733 1207 733 1204 c 0,274,275
 732 1202 732 1202 732 1192 c 0,276,277
 732 1185 732 1185 732.5 1175.5 c 128,-1,278
 733 1166 733 1166 733 1164 c 0,279,280
 731 1162 731 1162 729 1152.5 c 128,-1,281
 727 1143 727 1143 727 1138 c 0,282,283
 726 1137 726 1137 723 1130.5 c 128,-1,284
 720 1124 720 1124 716.5 1116.5 c 128,-1,285
 713 1109 713 1109 710.5 1102 c 128,-1,286
 708 1095 708 1095 708 1093 c 2,287,-1
 708 1031 l 2,288,289
 708 1030 708 1030 705 1026 c 128,-1,290
 702 1022 702 1022 698 1017 c 128,-1,291
 694 1012 694 1012 690.5 1008 c 128,-1,292
 687 1004 687 1004 687 1003 c 0,293,294
 686 1001 686 1001 685 998.5 c 128,-1,295
 684 996 684 996 683 994 c 0,296,297
 681 991 681 991 680 988 c 0,298,299
 660 904 660 904 636.5 824.5 c 128,-1,300
 613 745 613 745 595 661 c 1,301,-1
 569 597 l 2,302,303
 566 584 566 584 565 572 c 128,-1,304
 564 560 564 560 563.5 548 c 128,-1,305
 563 536 563 536 561.5 524 c 128,-1,306
 560 512 560 512 555 500 c 0,307,308
 545 470 545 470 536 448 c 128,-1,309
 527 426 527 426 519.5 405 c 128,-1,310
 512 384 512 384 506.5 360.5 c 128,-1,311
 501 337 501 337 498 303 c 0,312,313
 496 283 496 283 486.5 267.5 c 128,-1,314
 477 252 477 252 477 234 c 2,315,-1
 477 213 l 2,174,175
EndSplineSet
EndChar

StartChar: E
Encoding: 69 69 40
Width: 1369
GlyphClass: 1
Flags: W
LayerCount: 2
Fore
SplineSet
-2 59 m 0,0,1
 -2 86 -2 86 14.5 99 c 128,-1,2
 31 112 31 112 54 117 c 128,-1,3
 77 122 77 122 101.5 123.5 c 128,-1,4
 126 125 126 125 142 130 c 0,5,6
 146 130 146 130 156.5 134.5 c 128,-1,7
 167 139 167 139 178.5 144 c 128,-1,8
 190 149 190 149 200.5 154 c 128,-1,9
 211 159 211 159 215 161 c 0,10,11
 224 172 224 172 225 184 c 128,-1,12
 226 196 226 196 228 209 c 0,13,14
 229 214 229 214 233.5 228 c 128,-1,15
 238 242 238 242 243.5 260.5 c 128,-1,16
 249 279 249 279 256 300 c 128,-1,17
 263 321 263 321 269.5 339.5 c 128,-1,18
 276 358 276 358 280.5 372 c 128,-1,19
 285 386 285 386 287 391 c 0,20,21
 294 420 294 420 307 451 c 128,-1,22
 320 482 320 482 329 522 c 0,23,24
 337 561 337 561 346 602 c 128,-1,25
 355 643 355 643 370 678 c 0,26,27
 384 705 384 705 401 727.5 c 128,-1,28
 418 750 418 750 429 782 c 0,29,30
 429 783 429 783 429.5 788 c 128,-1,31
 430 793 430 793 431 799.5 c 128,-1,32
 432 806 432 806 433 812.5 c 128,-1,33
 434 819 434 819 434 822 c 0,34,35
 442 871 442 871 458 925.5 c 128,-1,36
 474 980 474 980 490 1029 c 0,37,38
 496 1050 496 1050 503.5 1070 c 128,-1,39
 511 1090 511 1090 518.5 1109.5 c 128,-1,40
 526 1129 526 1129 532.5 1148.5 c 128,-1,41
 539 1168 539 1168 542 1189 c 0,42,43
 544 1202 544 1202 550.5 1214.5 c 128,-1,44
 557 1227 557 1227 557 1240 c 0,45,46
 557 1248 557 1248 556.5 1255.5 c 128,-1,47
 556 1263 556 1263 552 1270 c 0,48,49
 516 1300 516 1300 469.5 1312.5 c 128,-1,50
 423 1325 423 1325 370 1325 c 1,51,52
 362 1332 362 1332 360 1337.5 c 128,-1,53
 358 1343 358 1343 358 1355 c 0,54,55
 358 1365 358 1365 364 1371 c 128,-1,56
 370 1377 370 1377 380 1380.5 c 128,-1,57
 390 1384 390 1384 401.5 1385 c 128,-1,58
 413 1386 413 1386 424 1386 c 0,59,60
 438 1386 438 1386 448.5 1385 c 128,-1,61
 459 1384 459 1384 465 1382 c 0,62,63
 518 1377 518 1377 569 1374.5 c 128,-1,64
 620 1372 620 1372 671 1372 c 0,65,66
 721 1372 721 1372 770 1374.5 c 128,-1,67
 819 1377 819 1377 867 1382 c 1,68,69
 877 1389 877 1389 884.5 1393 c 128,-1,70
 892 1397 892 1397 898.5 1399.5 c 128,-1,71
 905 1402 905 1402 912 1402.5 c 128,-1,72
 919 1403 919 1403 929 1403 c 2,73,-1
 1076 1387 l 2,74,75
 1106 1387 1106 1387 1131 1392.5 c 128,-1,76
 1156 1398 1156 1398 1183 1398 c 1,77,-1
 1230 1382 l 1,78,-1
 1270 1387 l 1,79,-1
 1306 1387 l 2,80,81
 1321 1387 1321 1387 1331.5 1385.5 c 128,-1,82
 1342 1384 1342 1384 1349.5 1379.5 c 128,-1,83
 1357 1375 1357 1375 1363 1366 c 128,-1,84
 1369 1357 1369 1357 1375 1342 c 0,85,86
 1377 1337 1377 1337 1380.5 1330 c 128,-1,87
 1384 1323 1384 1323 1387 1315 c 0,88,89
 1391 1306 1391 1306 1394 1297 c 2,90,-1
 1394 1156 l 2,91,92
 1392 1154 1392 1154 1391 1152 c 256,93,94
 1390 1150 1390 1150 1389 1148.5 c 128,-1,95
 1388 1147 1388 1147 1388 1145 c 0,96,97
 1378 1139 1378 1139 1373 1133.5 c 128,-1,98
 1368 1128 1368 1128 1356 1128 c 0,99,100
 1334 1128 1334 1128 1323.5 1142 c 128,-1,101
 1313 1156 1313 1156 1308 1174 c 128,-1,102
 1303 1192 1303 1192 1299.5 1209 c 128,-1,103
 1296 1226 1296 1226 1289 1232 c 0,104,105
 1286 1235 1286 1235 1279 1242.5 c 128,-1,106
 1272 1250 1272 1250 1264 1258.5 c 128,-1,107
 1256 1267 1256 1267 1248.5 1274.5 c 128,-1,108
 1241 1282 1241 1282 1237 1284 c 0,109,110
 1211 1285 1211 1285 1185.5 1294.5 c 128,-1,111
 1160 1304 1160 1304 1140 1327 c 1,112,-1
 939 1318 l 1,113,-1
 844 1337 l 2,114,115
 833 1337 833 1337 816 1330 c 128,-1,116
 799 1323 799 1323 794 1311 c 1,117,-1
 794 1284 l 2,118,119
 793 1282 793 1282 790.5 1274 c 128,-1,120
 788 1266 788 1266 785 1256 c 128,-1,121
 782 1246 782 1246 779 1237.5 c 128,-1,122
 776 1229 776 1229 775 1227 c 256,123,124
 774 1225 774 1225 772.5 1213.5 c 128,-1,125
 771 1202 771 1202 769 1188.5 c 128,-1,126
 767 1175 767 1175 765.5 1162 c 128,-1,127
 764 1149 764 1149 763 1145 c 0,128,129
 763 1144 763 1144 760 1137.5 c 128,-1,130
 757 1131 757 1131 753 1123.5 c 128,-1,131
 749 1116 749 1116 746 1109.5 c 128,-1,132
 743 1103 743 1103 742 1102 c 2,133,-1
 742 1059 l 2,134,135
 739 1030 739 1030 729.5 1004 c 128,-1,136
 720 978 720 978 709.5 952 c 128,-1,137
 699 926 699 926 691 900 c 128,-1,138
 683 874 683 874 683 846 c 2,139,-1
 683 829 l 2,140,141
 684 826 684 826 689.5 819.5 c 128,-1,142
 695 813 695 813 701.5 806 c 128,-1,143
 708 799 708 799 714 793.5 c 128,-1,144
 720 788 720 788 723 787 c 2,145,-1
 779 787 l 2,146,147
 814 787 814 787 842.5 787.5 c 128,-1,148
 871 788 871 788 905 792 c 0,149,150
 909 793 909 793 916.5 798.5 c 128,-1,151
 924 804 924 804 931 810.5 c 128,-1,152
 938 817 938 817 943.5 822 c 128,-1,153
 949 827 949 827 950 829 c 0,154,155
 969 845 969 845 980.5 868.5 c 128,-1,156
 992 892 992 892 1005 913.5 c 128,-1,157
 1018 935 1018 935 1036.5 950 c 128,-1,158
 1055 965 1055 965 1087 965 c 0,159,160
 1101 965 1101 965 1112 955 c 128,-1,161
 1123 945 1123 945 1123 927 c 2,162,-1
 1123 913 l 1,163,164
 1113 875 1113 875 1096.5 839 c 128,-1,165
 1080 803 1080 803 1064.5 766.5 c 128,-1,166
 1049 730 1049 730 1037.5 692.5 c 128,-1,167
 1026 655 1026 655 1026 614 c 2,168,-1
 1026 567 l 1,169,170
 1013 545 1013 545 999.5 529.5 c 128,-1,171
 986 514 986 514 959 514 c 0,172,173
 956 515 956 515 948 516 c 128,-1,174
 940 517 940 517 932 518.5 c 128,-1,175
 924 520 924 520 916 521 c 128,-1,176
 908 522 908 522 905 522 c 0,177,178
 887 535 887 535 880 553 c 128,-1,179
 873 571 873 571 870 590 c 128,-1,180
 867 609 867 609 865 628.5 c 128,-1,181
 863 648 863 648 856 663 c 128,-1,182
 849 678 849 678 833.5 687.5 c 128,-1,183
 818 697 818 697 789 697 c 2,184,-1
 683 690 l 1,185,186
 683 690 683 690 679 691 c 128,-1,187
 675 692 675 692 670 693 c 128,-1,188
 665 694 665 694 660 695 c 128,-1,189
 655 696 655 696 652 697 c 0,190,191
 634 697 634 697 624 680.5 c 128,-1,192
 614 664 614 664 605 642 c 128,-1,193
 596 620 596 620 585.5 598.5 c 128,-1,194
 575 577 575 577 557 567 c 0,195,196
 557 564 557 564 556.5 557.5 c 128,-1,197
 556 551 556 551 555 544 c 128,-1,198
 554 537 554 537 553.5 530.5 c 128,-1,199
 553 524 553 524 552 522 c 0,200,201
 552 518 552 518 543.5 511 c 128,-1,202
 535 504 535 504 533 500 c 0,203,204
 533 498 533 498 534 490 c 128,-1,205
 535 482 535 482 535 474 c 0,206,207
 535 465 535 465 533 464 c 0,208,209
 530 438 530 438 519 413 c 128,-1,210
 508 388 508 388 502 365 c 0,211,212
 498 351 498 351 490 327.5 c 128,-1,213
 482 304 482 304 473.5 278.5 c 128,-1,214
 465 253 465 253 459 230 c 128,-1,215
 453 207 453 207 453 195 c 1,216,217
 474 171 474 171 495.5 151.5 c 128,-1,218
 517 132 517 132 540 117.5 c 128,-1,219
 563 103 563 103 590.5 95.5 c 128,-1,220
 618 88 618 88 651 88 c 2,221,-1
 939 123 l 1,222,-1
 964 123 l 2,223,224
 975 126 975 126 980.5 132 c 128,-1,225
 986 138 986 138 989.5 145 c 128,-1,226
 993 152 993 152 995.5 160 c 128,-1,227
 998 168 998 168 1003 175 c 0,228,229
 1012 187 1012 187 1023 197.5 c 128,-1,230
 1034 208 1034 208 1045.5 217 c 128,-1,231
 1057 226 1057 226 1068 235 c 128,-1,232
 1079 244 1079 244 1088 254 c 0,233,234
 1092 258 1092 258 1101 268 c 128,-1,235
 1110 278 1110 278 1120.5 289.5 c 128,-1,236
 1131 301 1131 301 1141 311.5 c 128,-1,237
 1151 322 1151 322 1157 327 c 1,238,239
 1160 342 1160 342 1169 357.5 c 128,-1,240
 1178 373 1178 373 1190.5 385.5 c 128,-1,241
 1203 398 1203 398 1218.5 407 c 128,-1,242
 1234 416 1234 416 1251 419 c 0,243,244
 1257 419 1257 419 1262 414.5 c 128,-1,245
 1267 410 1267 410 1270.5 404 c 128,-1,246
 1274 398 1274 398 1276 392.5 c 128,-1,247
 1278 387 1278 387 1279 386 c 0,248,249
 1276 354 1276 354 1268.5 315.5 c 128,-1,250
 1261 277 1261 277 1244 247 c 0,251,252
 1243 245 1243 245 1238.5 238.5 c 128,-1,253
 1234 232 1234 232 1229 224.5 c 128,-1,254
 1224 217 1224 217 1219.5 210.5 c 128,-1,255
 1215 204 1215 204 1215 201 c 0,256,257
 1201 181 1201 181 1197 157 c 128,-1,258
 1193 133 1193 133 1185 111 c 0,259,260
 1176 80 1176 80 1160.5 60.5 c 128,-1,261
 1145 41 1145 41 1125 30 c 128,-1,262
 1105 19 1105 19 1080.5 15 c 128,-1,263
 1056 11 1056 11 1028 10 c 2,264,-1
 988 12 l 2,265,266
 928 16 928 16 869 19 c 128,-1,267
 810 22 810 22 747 22 c 0,268,269
 711 22 711 22 675 13.5 c 128,-1,270
 639 5 639 5 604 5 c 1,271,-1
 533 14 l 2,272,273
 519 14 519 14 506 12 c 128,-1,274
 493 10 493 10 480.5 8 c 128,-1,275
 468 6 468 6 454 4 c 128,-1,276
 440 2 440 2 424 2 c 2,277,-1
 260 2 l 2,278,279
 254 0 254 0 240 -1.5 c 128,-1,280
 226 -3 226 -3 210.5 -5 c 128,-1,281
 195 -7 195 -7 181 -8 c 128,-1,282
 167 -9 167 -9 161 -9 c 0,283,284
 153 -13 153 -13 141.5 -17.5 c 128,-1,285
 130 -22 130 -22 106 -22 c 0,286,287
 86 -19 86 -19 66.5 -15 c 128,-1,288
 47 -11 47 -11 32 -2.5 c 128,-1,289
 17 6 17 6 7.5 20.5 c 128,-1,290
 -2 35 -2 35 -2 59 c 0,0,1
EndSplineSet
EndChar

